%TF.GenerationSoftware,KiCad,Pcbnew,9.0.5*%
%TF.CreationDate,2026-02-20T11:52:18+01:00*%
%TF.ProjectId,Pekaway_rework,50656b61-7761-4795-9f72-65776f726b2e,rev?*%
%TF.SameCoordinates,Original*%
%TF.FileFunction,Copper,L2,Bot*%
%TF.FilePolarity,Positive*%
%FSLAX46Y46*%
G04 Gerber Fmt 4.6, Leading zero omitted, Abs format (unit mm)*
G04 Created by KiCad (PCBNEW 9.0.5) date 2026-02-20 11:52:18*
%MOMM*%
%LPD*%
G01*
G04 APERTURE LIST*
G04 Aperture macros list*
%AMRoundRect*
0 Rectangle with rounded corners*
0 $1 Rounding radius*
0 $2 $3 $4 $5 $6 $7 $8 $9 X,Y pos of 4 corners*
0 Add a 4 corners polygon primitive as box body*
4,1,4,$2,$3,$4,$5,$6,$7,$8,$9,$2,$3,0*
0 Add four circle primitives for the rounded corners*
1,1,$1+$1,$2,$3*
1,1,$1+$1,$4,$5*
1,1,$1+$1,$6,$7*
1,1,$1+$1,$8,$9*
0 Add four rect primitives between the rounded corners*
20,1,$1+$1,$2,$3,$4,$5,0*
20,1,$1+$1,$4,$5,$6,$7,0*
20,1,$1+$1,$6,$7,$8,$9,0*
20,1,$1+$1,$8,$9,$2,$3,0*%
G04 Aperture macros list end*
%TA.AperFunction,ComponentPad*%
%ADD10C,2.000000*%
%TD*%
%TA.AperFunction,ComponentPad*%
%ADD11C,2.400000*%
%TD*%
%TA.AperFunction,ComponentPad*%
%ADD12R,2.300000X1.500000*%
%TD*%
%TA.AperFunction,ComponentPad*%
%ADD13RoundRect,0.250001X-0.899999X0.499999X-0.899999X-0.499999X0.899999X-0.499999X0.899999X0.499999X0*%
%TD*%
%TA.AperFunction,ComponentPad*%
%ADD14O,2.300000X1.500000*%
%TD*%
%TA.AperFunction,ViaPad*%
%ADD15C,0.600000*%
%TD*%
G04 APERTURE END LIST*
D10*
%TO.P,J3,1,Pin_1*%
%TO.N,VCC*%
X179800000Y-88083400D03*
%TO.P,J3,2*%
%TO.N,N/C*%
X187999999Y-88083400D03*
%TD*%
D11*
%TO.P,F4,1,A*%
%TO.N,/LED4*%
X156065000Y-79700000D03*
X156065000Y-83100000D03*
%TO.P,F4,2,B*%
%TO.N,VCC*%
X165795000Y-79700000D03*
X165795000Y-83100000D03*
%TD*%
%TO.P,F2,1,A*%
%TO.N,/LED2*%
X156065000Y-57200000D03*
X156065000Y-60600000D03*
%TO.P,F2,2,B*%
%TO.N,VCC*%
X165795000Y-57200000D03*
X165795000Y-60600000D03*
%TD*%
%TO.P,F1,1,A*%
%TO.N,/LED1*%
X156135000Y-46800000D03*
X156135000Y-50200000D03*
%TO.P,F1,2,B*%
%TO.N,VCC*%
X165865000Y-46800000D03*
X165865000Y-50200000D03*
%TD*%
D10*
%TO.P,SW1,1,1*%
%TO.N,GND*%
X180500000Y-46000000D03*
X180500000Y-52500000D03*
%TO.P,SW1,2,2*%
%TO.N,Net-(D10-K)*%
X176000000Y-46000000D03*
X176000000Y-52500000D03*
%TD*%
D11*
%TO.P,F3,1,A*%
%TO.N,/LED3*%
X156065000Y-68700000D03*
X156065000Y-72100000D03*
%TO.P,F3,2,B*%
%TO.N,VCC*%
X165795000Y-68700000D03*
X165795000Y-72100000D03*
%TD*%
%TO.P,F7,1,A*%
%TO.N,GND*%
X177135000Y-59800000D03*
X177135000Y-63200000D03*
%TO.P,F7,2,B*%
%TO.N,Net-(F7-B)*%
X186865000Y-59800000D03*
X186865000Y-63200000D03*
%TD*%
%TO.P,F5,1,A*%
%TO.N,/LED5*%
X156065000Y-90200000D03*
X156065000Y-93600000D03*
%TO.P,F5,2,B*%
%TO.N,VCC*%
X165795000Y-90200000D03*
X165795000Y-93600000D03*
%TD*%
D12*
%TO.P,J5,1,Pin_1*%
%TO.N,/LED1*%
X121500000Y-53500000D03*
D13*
X116500000Y-53500000D03*
D14*
%TO.P,J5,2,Pin_2*%
%TO.N,GND*%
X121500000Y-57000000D03*
X116500000Y-57000000D03*
%TO.P,J5,3,Pin_3*%
%TO.N,/LED2*%
X121500000Y-60500000D03*
X116500000Y-60500000D03*
%TO.P,J5,4,Pin_4*%
%TO.N,GND*%
X121500000Y-64000000D03*
X116500000Y-64000000D03*
%TO.P,J5,5,Pin_5*%
%TO.N,/LED3*%
X121500000Y-67500000D03*
X116500000Y-67500000D03*
%TO.P,J5,6,Pin_6*%
%TO.N,GND*%
X121500000Y-71000000D03*
X116500000Y-71000000D03*
%TO.P,J5,7,Pin_7*%
%TO.N,/LED4*%
X121500000Y-74500000D03*
X116500000Y-74500000D03*
%TO.P,J5,8,Pin_8*%
%TO.N,GND*%
X121500000Y-78000000D03*
X116500000Y-78000000D03*
%TO.P,J5,9,Pin_9*%
%TO.N,/LED5*%
X121500000Y-81500000D03*
X116500000Y-81500000D03*
%TO.P,J5,10,Pin_10*%
%TO.N,GND*%
X121500000Y-85000000D03*
X116500000Y-85000000D03*
%TO.P,J5,11,Pin_11*%
%TO.N,/LED6*%
X121500000Y-88500000D03*
X116500000Y-88500000D03*
%TO.P,J5,12,Pin_12*%
%TO.N,GND*%
X121500000Y-92000000D03*
X116500000Y-92000000D03*
%TD*%
D10*
%TO.P,J4,1,Pin_1*%
%TO.N,Net-(F7-B)*%
X179800000Y-75583400D03*
%TO.P,J4,2*%
%TO.N,N/C*%
X187999999Y-75583400D03*
%TD*%
D11*
%TO.P,F6,1,A*%
%TO.N,/LED6*%
X156065000Y-101700000D03*
X156065000Y-105100000D03*
%TO.P,F6,2,B*%
%TO.N,VCC*%
X165795000Y-101700000D03*
X165795000Y-105100000D03*
%TD*%
D15*
%TO.N,/LED1*%
X132500000Y-47500000D03*
%TO.N,/LED2*%
X132500000Y-57500000D03*
%TO.N,/LED3*%
X132500000Y-67500000D03*
%TO.N,/LED4*%
X134000000Y-78500000D03*
%TO.N,/LED5*%
X133500000Y-89000000D03*
%TO.N,/LED6*%
X132500000Y-101000000D03*
%TD*%
%TA.AperFunction,Conductor*%
%TO.N,Net-(F7-B)*%
G36*
X187115000Y-62437639D02*
G01*
X187098351Y-62430743D01*
X186943793Y-62400000D01*
X186786207Y-62400000D01*
X186631649Y-62430743D01*
X186615000Y-62437639D01*
X186615000Y-60562360D01*
X186631649Y-60569257D01*
X186786207Y-60600000D01*
X186943793Y-60600000D01*
X187098351Y-60569257D01*
X187115000Y-60562360D01*
X187115000Y-62437639D01*
G37*
%TD.AperFunction*%
%TA.AperFunction,Conductor*%
G36*
X190048247Y-57054165D02*
G01*
X190129029Y-57108141D01*
X190183005Y-57188923D01*
X190201959Y-57284211D01*
X190201822Y-57292458D01*
X190149935Y-58853508D01*
X190002650Y-63284600D01*
X189980540Y-63379206D01*
X189951489Y-63427705D01*
X183770688Y-71500000D01*
X183770688Y-75459819D01*
X183751734Y-75555107D01*
X183728869Y-75597939D01*
X182177941Y-77924331D01*
X182109313Y-77993102D01*
X182019593Y-78030376D01*
X181970760Y-78035211D01*
X177070616Y-78035211D01*
X176975328Y-78016257D01*
X176894546Y-77962281D01*
X176863435Y-77924331D01*
X176146734Y-76849279D01*
X176146732Y-76849275D01*
X175312508Y-75597939D01*
X175303196Y-75575393D01*
X175289642Y-75555107D01*
X175284832Y-75530926D01*
X175275422Y-75508141D01*
X175271230Y-75465351D01*
X178300000Y-75465351D01*
X178300000Y-75701448D01*
X178300001Y-75701463D01*
X178336934Y-75934647D01*
X178409893Y-76159195D01*
X178517088Y-76369576D01*
X178577339Y-76452505D01*
X179198957Y-75830886D01*
X179223978Y-75891290D01*
X179295112Y-75997751D01*
X179385649Y-76088288D01*
X179492110Y-76159422D01*
X179552510Y-76184441D01*
X178930893Y-76806059D01*
X179013823Y-76866311D01*
X179224204Y-76973506D01*
X179448752Y-77046465D01*
X179681936Y-77083398D01*
X179681951Y-77083400D01*
X179918049Y-77083400D01*
X179918063Y-77083398D01*
X180151247Y-77046465D01*
X180375795Y-76973506D01*
X180586177Y-76866310D01*
X180669105Y-76806059D01*
X180047487Y-76184441D01*
X180107890Y-76159422D01*
X180214351Y-76088288D01*
X180304888Y-75997751D01*
X180376022Y-75891290D01*
X180401041Y-75830887D01*
X181022659Y-76452505D01*
X181082910Y-76369577D01*
X181190106Y-76159195D01*
X181263065Y-75934647D01*
X181299998Y-75701463D01*
X181300000Y-75701448D01*
X181300000Y-75465351D01*
X181299998Y-75465336D01*
X181263065Y-75232152D01*
X181190106Y-75007604D01*
X181082911Y-74797223D01*
X181022659Y-74714293D01*
X180401041Y-75335910D01*
X180376022Y-75275510D01*
X180304888Y-75169049D01*
X180214351Y-75078512D01*
X180107890Y-75007378D01*
X180047486Y-74982357D01*
X180669105Y-74360739D01*
X180586176Y-74300488D01*
X180375795Y-74193293D01*
X180151247Y-74120334D01*
X179918063Y-74083401D01*
X179918049Y-74083400D01*
X179681951Y-74083400D01*
X179681936Y-74083401D01*
X179448752Y-74120334D01*
X179224204Y-74193294D01*
X179224199Y-74193296D01*
X179013833Y-74300482D01*
X178930894Y-74360740D01*
X179552512Y-74982358D01*
X179492110Y-75007378D01*
X179385649Y-75078512D01*
X179295112Y-75169049D01*
X179223978Y-75275510D01*
X179198958Y-75335912D01*
X178577340Y-74714294D01*
X178517082Y-74797233D01*
X178409896Y-75007599D01*
X178409894Y-75007604D01*
X178336934Y-75232152D01*
X178300001Y-75465336D01*
X178300000Y-75465351D01*
X175271230Y-75465351D01*
X175270688Y-75459819D01*
X175270688Y-70115525D01*
X175289642Y-70020237D01*
X175317616Y-69970033D01*
X178981176Y-64881755D01*
X182820039Y-59550000D01*
X185183244Y-59550000D01*
X186102639Y-59550000D01*
X186095743Y-59566649D01*
X186065000Y-59721207D01*
X186065000Y-59878793D01*
X186095743Y-60033351D01*
X186102639Y-60050000D01*
X185183244Y-60050000D01*
X185194086Y-60132361D01*
X185251762Y-60347616D01*
X185337045Y-60553504D01*
X185448465Y-60746491D01*
X185448475Y-60746505D01*
X185584125Y-60923287D01*
X185741712Y-61080874D01*
X185918494Y-61216524D01*
X185918508Y-61216534D01*
X186035985Y-61284359D01*
X186109030Y-61348417D01*
X186152001Y-61435553D01*
X186158356Y-61532500D01*
X186127127Y-61624499D01*
X186063069Y-61697544D01*
X186035985Y-61715641D01*
X185918508Y-61783465D01*
X185918494Y-61783475D01*
X185741712Y-61919125D01*
X185584125Y-62076712D01*
X185448475Y-62253494D01*
X185448465Y-62253508D01*
X185337045Y-62446495D01*
X185251762Y-62652383D01*
X185194086Y-62867638D01*
X185183244Y-62950000D01*
X186102639Y-62950000D01*
X186095743Y-62966649D01*
X186065000Y-63121207D01*
X186065000Y-63278793D01*
X186095743Y-63433351D01*
X186102639Y-63450000D01*
X185183244Y-63450000D01*
X185194086Y-63532361D01*
X185251762Y-63747616D01*
X185337045Y-63953504D01*
X185448465Y-64146491D01*
X185448475Y-64146505D01*
X185584125Y-64323287D01*
X185741712Y-64480874D01*
X185918494Y-64616524D01*
X185918508Y-64616534D01*
X186111495Y-64727954D01*
X186317383Y-64813237D01*
X186532639Y-64870913D01*
X186532637Y-64870913D01*
X186615000Y-64881755D01*
X186615000Y-63962360D01*
X186631649Y-63969257D01*
X186786207Y-64000000D01*
X186943793Y-64000000D01*
X187098351Y-63969257D01*
X187115000Y-63962360D01*
X187115000Y-64881754D01*
X187197361Y-64870913D01*
X187412616Y-64813237D01*
X187618504Y-64727954D01*
X187811491Y-64616534D01*
X187811505Y-64616524D01*
X187988287Y-64480874D01*
X188145874Y-64323287D01*
X188281524Y-64146505D01*
X188281534Y-64146491D01*
X188392954Y-63953504D01*
X188478237Y-63747616D01*
X188535913Y-63532361D01*
X188546756Y-63450000D01*
X187627361Y-63450000D01*
X187634257Y-63433351D01*
X187665000Y-63278793D01*
X187665000Y-63121207D01*
X187634257Y-62966649D01*
X187627361Y-62950000D01*
X188546755Y-62950000D01*
X188535913Y-62867638D01*
X188478237Y-62652383D01*
X188392954Y-62446495D01*
X188281534Y-62253508D01*
X188281524Y-62253494D01*
X188145874Y-62076712D01*
X187988287Y-61919125D01*
X187811505Y-61783475D01*
X187811485Y-61783461D01*
X187694015Y-61715641D01*
X187620969Y-61651583D01*
X187577998Y-61564448D01*
X187571643Y-61467501D01*
X187602872Y-61375502D01*
X187666930Y-61302456D01*
X187694015Y-61284359D01*
X187811485Y-61216538D01*
X187811505Y-61216524D01*
X187988287Y-61080874D01*
X188145874Y-60923287D01*
X188281524Y-60746505D01*
X188281534Y-60746491D01*
X188392954Y-60553504D01*
X188478237Y-60347616D01*
X188535913Y-60132361D01*
X188546756Y-60050000D01*
X187627361Y-60050000D01*
X187634257Y-60033351D01*
X187665000Y-59878793D01*
X187665000Y-59721207D01*
X187634257Y-59566649D01*
X187627361Y-59550000D01*
X188546755Y-59550000D01*
X188535913Y-59467638D01*
X188478237Y-59252383D01*
X188392954Y-59046495D01*
X188281534Y-58853508D01*
X188281524Y-58853494D01*
X188145874Y-58676712D01*
X187988287Y-58519125D01*
X187811505Y-58383475D01*
X187811491Y-58383465D01*
X187618504Y-58272045D01*
X187412616Y-58186762D01*
X187197360Y-58129086D01*
X187115000Y-58118243D01*
X187115000Y-59037639D01*
X187098351Y-59030743D01*
X186943793Y-59000000D01*
X186786207Y-59000000D01*
X186631649Y-59030743D01*
X186615000Y-59037639D01*
X186615000Y-58118243D01*
X186532639Y-58129086D01*
X186317383Y-58186762D01*
X186111495Y-58272045D01*
X185918508Y-58383465D01*
X185918494Y-58383475D01*
X185741712Y-58519125D01*
X185584125Y-58676712D01*
X185448475Y-58853494D01*
X185448465Y-58853508D01*
X185337045Y-59046495D01*
X185251762Y-59252383D01*
X185194086Y-59467638D01*
X185183244Y-59550000D01*
X182820039Y-59550000D01*
X184556162Y-57138718D01*
X184627221Y-57072464D01*
X184718226Y-57038446D01*
X184758234Y-57035211D01*
X189952959Y-57035211D01*
X190048247Y-57054165D01*
G37*
%TD.AperFunction*%
%TD*%
%TA.AperFunction,Conductor*%
%TO.N,GND*%
G36*
X120258025Y-83794031D02*
G01*
X120323994Y-83817037D01*
X120367055Y-83872060D01*
X120373532Y-83941629D01*
X120341370Y-84003656D01*
X120324716Y-84018192D01*
X120285680Y-84046553D01*
X120146555Y-84185678D01*
X120030904Y-84344856D01*
X119941581Y-84520162D01*
X119880781Y-84707283D01*
X119874016Y-84750000D01*
X120951518Y-84750000D01*
X120940889Y-84768409D01*
X120900000Y-84921009D01*
X120900000Y-85078991D01*
X120940889Y-85231591D01*
X120951518Y-85250000D01*
X119874016Y-85250000D01*
X119880781Y-85292716D01*
X119941581Y-85479837D01*
X120030904Y-85655143D01*
X120134417Y-85797614D01*
X120157897Y-85863420D01*
X120142072Y-85931474D01*
X120091967Y-85980169D01*
X120034099Y-85994500D01*
X117965901Y-85994500D01*
X117898862Y-85974815D01*
X117853107Y-85922011D01*
X117843163Y-85852853D01*
X117865583Y-85797614D01*
X117969095Y-85655143D01*
X118058418Y-85479837D01*
X118119218Y-85292716D01*
X118125984Y-85250000D01*
X117048482Y-85250000D01*
X117059111Y-85231591D01*
X117100000Y-85078991D01*
X117100000Y-84921009D01*
X117059111Y-84768409D01*
X117048482Y-84750000D01*
X118125984Y-84750000D01*
X118119218Y-84707283D01*
X118058418Y-84520162D01*
X117969095Y-84344856D01*
X117853444Y-84185678D01*
X117714321Y-84046555D01*
X117555143Y-83930904D01*
X117479928Y-83892580D01*
X117429132Y-83844605D01*
X117412337Y-83776784D01*
X117434874Y-83710649D01*
X117489590Y-83667198D01*
X117542409Y-83658250D01*
X120258025Y-83794031D01*
G37*
%TD.AperFunction*%
%TA.AperFunction,Conductor*%
G36*
X118472799Y-76506746D02*
G01*
X120305858Y-76768611D01*
X120369436Y-76797577D01*
X120407264Y-76856321D01*
X120407327Y-76926190D01*
X120369605Y-76985003D01*
X120361205Y-76991680D01*
X120285680Y-77046553D01*
X120146555Y-77185678D01*
X120030904Y-77344856D01*
X119941581Y-77520162D01*
X119880781Y-77707283D01*
X119874016Y-77750000D01*
X120951518Y-77750000D01*
X120940889Y-77768409D01*
X120900000Y-77921009D01*
X120900000Y-78078991D01*
X120940889Y-78231591D01*
X120951518Y-78250000D01*
X119874016Y-78250000D01*
X119880781Y-78292716D01*
X119941581Y-78479837D01*
X120030904Y-78655143D01*
X120134417Y-78797614D01*
X120157897Y-78863420D01*
X120142072Y-78931474D01*
X120091967Y-78980169D01*
X120034099Y-78994500D01*
X117965901Y-78994500D01*
X117898862Y-78974815D01*
X117853107Y-78922011D01*
X117843163Y-78852853D01*
X117865583Y-78797614D01*
X117969095Y-78655143D01*
X118058418Y-78479837D01*
X118119218Y-78292716D01*
X118125984Y-78250000D01*
X117048482Y-78250000D01*
X117059111Y-78231591D01*
X117100000Y-78078991D01*
X117100000Y-77921009D01*
X117059111Y-77768409D01*
X117048482Y-77750000D01*
X118125984Y-77750000D01*
X118119218Y-77707283D01*
X118058418Y-77520162D01*
X117969095Y-77344856D01*
X117853444Y-77185678D01*
X117714321Y-77046555D01*
X117555143Y-76930904D01*
X117379835Y-76841581D01*
X117192705Y-76780778D01*
X117010839Y-76751973D01*
X116947704Y-76722044D01*
X116910773Y-76662732D01*
X116911771Y-76592869D01*
X116950381Y-76534637D01*
X117014345Y-76506523D01*
X117030237Y-76505500D01*
X118455263Y-76505500D01*
X118472799Y-76506746D01*
G37*
%TD.AperFunction*%
%TA.AperFunction,Conductor*%
G36*
X117380013Y-69585182D02*
G01*
X120315545Y-69752927D01*
X120381349Y-69776403D01*
X120424017Y-69831731D01*
X120429999Y-69901344D01*
X120397396Y-69963141D01*
X120381354Y-69977041D01*
X120285686Y-70046549D01*
X120285677Y-70046556D01*
X120146555Y-70185678D01*
X120030904Y-70344856D01*
X119941581Y-70520162D01*
X119880781Y-70707283D01*
X119874016Y-70750000D01*
X120951518Y-70750000D01*
X120940889Y-70768409D01*
X120900000Y-70921009D01*
X120900000Y-71078991D01*
X120940889Y-71231591D01*
X120951518Y-71250000D01*
X119874016Y-71250000D01*
X119880781Y-71292716D01*
X119941581Y-71479837D01*
X120030904Y-71655143D01*
X120134417Y-71797614D01*
X120157897Y-71863420D01*
X120142072Y-71931474D01*
X120091967Y-71980169D01*
X120034099Y-71994500D01*
X117965901Y-71994500D01*
X117898862Y-71974815D01*
X117853107Y-71922011D01*
X117843163Y-71852853D01*
X117865583Y-71797614D01*
X117969095Y-71655143D01*
X118058418Y-71479837D01*
X118119218Y-71292716D01*
X118125984Y-71250000D01*
X117048482Y-71250000D01*
X117059111Y-71231591D01*
X117100000Y-71078991D01*
X117100000Y-70921009D01*
X117059111Y-70768409D01*
X117048482Y-70750000D01*
X118125984Y-70750000D01*
X118119218Y-70707283D01*
X118058418Y-70520162D01*
X117969095Y-70344856D01*
X117853444Y-70185678D01*
X117714321Y-70046555D01*
X117555143Y-69930904D01*
X117379838Y-69841582D01*
X117334698Y-69826915D01*
X117277023Y-69787476D01*
X117249826Y-69723117D01*
X117261741Y-69654271D01*
X117308986Y-69602796D01*
X117376561Y-69585035D01*
X117380013Y-69585182D01*
G37*
%TD.AperFunction*%
%TA.AperFunction,Conductor*%
G36*
X120101138Y-63025185D02*
G01*
X120146893Y-63077989D01*
X120156837Y-63147147D01*
X120134417Y-63202386D01*
X120030904Y-63344856D01*
X119941581Y-63520162D01*
X119880781Y-63707283D01*
X119874016Y-63750000D01*
X120951518Y-63750000D01*
X120940889Y-63768409D01*
X120900000Y-63921009D01*
X120900000Y-64078991D01*
X120940889Y-64231591D01*
X120951518Y-64250000D01*
X119874016Y-64250000D01*
X119880781Y-64292716D01*
X119941581Y-64479837D01*
X120030904Y-64655143D01*
X120087482Y-64733015D01*
X120110962Y-64798821D01*
X120095137Y-64866875D01*
X120045031Y-64915570D01*
X119988623Y-64929892D01*
X117997273Y-64953319D01*
X117930006Y-64934425D01*
X117883633Y-64882163D01*
X117872877Y-64813126D01*
X117895497Y-64756441D01*
X117969095Y-64655144D01*
X118058418Y-64479837D01*
X118119218Y-64292716D01*
X118125984Y-64250000D01*
X117048482Y-64250000D01*
X117059111Y-64231591D01*
X117100000Y-64078991D01*
X117100000Y-63921009D01*
X117059111Y-63768409D01*
X117048482Y-63750000D01*
X118125984Y-63750000D01*
X118119218Y-63707283D01*
X118058418Y-63520162D01*
X117969095Y-63344856D01*
X117865583Y-63202386D01*
X117842103Y-63136580D01*
X117857928Y-63068526D01*
X117908033Y-63019831D01*
X117965901Y-63005500D01*
X120034099Y-63005500D01*
X120101138Y-63025185D01*
G37*
%TD.AperFunction*%
%TA.AperFunction,Conductor*%
G36*
X121036802Y-55525185D02*
G01*
X121082557Y-55577989D01*
X121092501Y-55647147D01*
X121063476Y-55710703D01*
X121004698Y-55748477D01*
X120989161Y-55751973D01*
X120807294Y-55780778D01*
X120620164Y-55841581D01*
X120444856Y-55930904D01*
X120285678Y-56046555D01*
X120146555Y-56185678D01*
X120030904Y-56344856D01*
X119941581Y-56520162D01*
X119880781Y-56707283D01*
X119874016Y-56750000D01*
X120951518Y-56750000D01*
X120940889Y-56768409D01*
X120900000Y-56921009D01*
X120900000Y-57078991D01*
X120940889Y-57231591D01*
X120951518Y-57250000D01*
X119874016Y-57250000D01*
X119880781Y-57292716D01*
X119941581Y-57479837D01*
X120030904Y-57655143D01*
X120146555Y-57814321D01*
X120285678Y-57953444D01*
X120444856Y-58069095D01*
X120620164Y-58158418D01*
X120807294Y-58219221D01*
X120989161Y-58248027D01*
X121052296Y-58277956D01*
X121089227Y-58337268D01*
X121088229Y-58407131D01*
X121049619Y-58465363D01*
X120985655Y-58493477D01*
X120969763Y-58494500D01*
X117030237Y-58494500D01*
X116963198Y-58474815D01*
X116917443Y-58422011D01*
X116907499Y-58352853D01*
X116936524Y-58289297D01*
X116995302Y-58251523D01*
X117010839Y-58248027D01*
X117192705Y-58219221D01*
X117379835Y-58158418D01*
X117555143Y-58069095D01*
X117714321Y-57953444D01*
X117853444Y-57814321D01*
X117969095Y-57655143D01*
X118058418Y-57479837D01*
X118119218Y-57292716D01*
X118125984Y-57250000D01*
X117048482Y-57250000D01*
X117059111Y-57231591D01*
X117100000Y-57078991D01*
X117100000Y-56921009D01*
X117059111Y-56768409D01*
X117048482Y-56750000D01*
X118125984Y-56750000D01*
X118119218Y-56707283D01*
X118058418Y-56520162D01*
X117969095Y-56344856D01*
X117853444Y-56185678D01*
X117714321Y-56046555D01*
X117555143Y-55930904D01*
X117379835Y-55841581D01*
X117192705Y-55780778D01*
X117010839Y-55751973D01*
X116947704Y-55722044D01*
X116910773Y-55662732D01*
X116911771Y-55592869D01*
X116950381Y-55534637D01*
X117014345Y-55506523D01*
X117030237Y-55505500D01*
X120969763Y-55505500D01*
X121036802Y-55525185D01*
G37*
%TD.AperFunction*%
%TA.AperFunction,Conductor*%
G36*
X177385000Y-62437639D02*
G01*
X177368351Y-62430743D01*
X177213793Y-62400000D01*
X177056207Y-62400000D01*
X176901649Y-62430743D01*
X176885000Y-62437639D01*
X176885000Y-60562360D01*
X176901649Y-60569257D01*
X177056207Y-60600000D01*
X177213793Y-60600000D01*
X177368351Y-60569257D01*
X177385000Y-60562360D01*
X177385000Y-62437639D01*
G37*
%TD.AperFunction*%
%TA.AperFunction,Conductor*%
G36*
X199942539Y-34520185D02*
G01*
X199988294Y-34572989D01*
X199999500Y-34624500D01*
X199999500Y-112375500D01*
X199979815Y-112442539D01*
X199927011Y-112488294D01*
X199875500Y-112499500D01*
X96624500Y-112499500D01*
X96557461Y-112479815D01*
X96511706Y-112427011D01*
X96500500Y-112375500D01*
X96500500Y-104818206D01*
X102299500Y-104818206D01*
X102299500Y-104848638D01*
X102299500Y-105181794D01*
X102310337Y-105291829D01*
X102335137Y-105543630D01*
X102406064Y-105900212D01*
X102406067Y-105900223D01*
X102511614Y-106248165D01*
X102650754Y-106584078D01*
X102650756Y-106584083D01*
X102822140Y-106904720D01*
X102822151Y-106904738D01*
X103024140Y-107207035D01*
X103024150Y-107207049D01*
X103254807Y-107488106D01*
X103511893Y-107745192D01*
X103511898Y-107745196D01*
X103511899Y-107745197D01*
X103792956Y-107975854D01*
X104095268Y-108177853D01*
X104095277Y-108177858D01*
X104095279Y-108177859D01*
X104415916Y-108349243D01*
X104415918Y-108349243D01*
X104415924Y-108349247D01*
X104751836Y-108488386D01*
X105099767Y-108593930D01*
X105099773Y-108593931D01*
X105099776Y-108593932D01*
X105099787Y-108593935D01*
X105456369Y-108664862D01*
X105818206Y-108700500D01*
X105818209Y-108700500D01*
X106181791Y-108700500D01*
X106181794Y-108700500D01*
X106543631Y-108664862D01*
X106613045Y-108651054D01*
X106900212Y-108593935D01*
X106900223Y-108593932D01*
X106900223Y-108593931D01*
X106900233Y-108593930D01*
X107248164Y-108488386D01*
X107584076Y-108349247D01*
X107904732Y-108177853D01*
X108207044Y-107975854D01*
X108488101Y-107745197D01*
X108745197Y-107488101D01*
X108975854Y-107207044D01*
X109177853Y-106904732D01*
X109349247Y-106584076D01*
X109488386Y-106248164D01*
X109593930Y-105900233D01*
X109593932Y-105900223D01*
X109593935Y-105900212D01*
X109664862Y-105543630D01*
X109675812Y-105432452D01*
X109700500Y-105181794D01*
X109700500Y-104818206D01*
X109664862Y-104456369D01*
X109604564Y-104153226D01*
X109593935Y-104099787D01*
X109593932Y-104099776D01*
X109593931Y-104099773D01*
X109593930Y-104099767D01*
X109488386Y-103751836D01*
X109349247Y-103415924D01*
X109340735Y-103400000D01*
X109177859Y-103095279D01*
X109177858Y-103095277D01*
X109177853Y-103095268D01*
X108975854Y-102792956D01*
X108745197Y-102511899D01*
X108745196Y-102511898D01*
X108745192Y-102511893D01*
X108488106Y-102254807D01*
X108207049Y-102024150D01*
X108207048Y-102024149D01*
X108207044Y-102024146D01*
X107904732Y-101822147D01*
X107904727Y-101822144D01*
X107904720Y-101822140D01*
X107584083Y-101650756D01*
X107584078Y-101650754D01*
X107248165Y-101511614D01*
X106900223Y-101406067D01*
X106900212Y-101406064D01*
X106543630Y-101335137D01*
X106271111Y-101308296D01*
X106181794Y-101299500D01*
X105818206Y-101299500D01*
X105735679Y-101307628D01*
X105456369Y-101335137D01*
X105099787Y-101406064D01*
X105099776Y-101406067D01*
X104751834Y-101511614D01*
X104415921Y-101650754D01*
X104415916Y-101650756D01*
X104095279Y-101822140D01*
X104095261Y-101822151D01*
X103792964Y-102024140D01*
X103792950Y-102024150D01*
X103511893Y-102254807D01*
X103254807Y-102511893D01*
X103024150Y-102792950D01*
X103024140Y-102792964D01*
X102822151Y-103095261D01*
X102822140Y-103095279D01*
X102650756Y-103415916D01*
X102650754Y-103415921D01*
X102511614Y-103751834D01*
X102406067Y-104099776D01*
X102406064Y-104099787D01*
X102335137Y-104456369D01*
X102307628Y-104735679D01*
X102299500Y-104818206D01*
X96500500Y-104818206D01*
X96500500Y-50568519D01*
X111494500Y-50568519D01*
X111494500Y-53948640D01*
X111497397Y-54002688D01*
X111497397Y-54002689D01*
X111500229Y-54029022D01*
X111500232Y-54029049D01*
X111508885Y-54082445D01*
X111508885Y-54082447D01*
X111559166Y-54217252D01*
X111559168Y-54217257D01*
X111592653Y-54278580D01*
X111678877Y-54393761D01*
X111678881Y-54393765D01*
X111678886Y-54393771D01*
X112150806Y-54865690D01*
X112606239Y-55321123D01*
X112606255Y-55321137D01*
X112606262Y-55321144D01*
X112646480Y-55357271D01*
X112646492Y-55357281D01*
X112646500Y-55357288D01*
X112667142Y-55373922D01*
X112711026Y-55405567D01*
X112841903Y-55465338D01*
X112908942Y-55485023D01*
X112908946Y-55485024D01*
X113051362Y-55505500D01*
X113051365Y-55505500D01*
X115969763Y-55505500D01*
X116036802Y-55525185D01*
X116082557Y-55577989D01*
X116092501Y-55647147D01*
X116063476Y-55710703D01*
X116004698Y-55748477D01*
X115989161Y-55751973D01*
X115807294Y-55780778D01*
X115620164Y-55841581D01*
X115444856Y-55930904D01*
X115285678Y-56046555D01*
X115146555Y-56185678D01*
X115030904Y-56344856D01*
X114941581Y-56520162D01*
X114880781Y-56707283D01*
X114874016Y-56750000D01*
X115951518Y-56750000D01*
X115940889Y-56768409D01*
X115900000Y-56921009D01*
X115900000Y-57078991D01*
X115940889Y-57231591D01*
X115951518Y-57250000D01*
X114874016Y-57250000D01*
X114880781Y-57292716D01*
X114941581Y-57479837D01*
X115030904Y-57655143D01*
X115146555Y-57814321D01*
X115285678Y-57953444D01*
X115444856Y-58069095D01*
X115620164Y-58158418D01*
X115807294Y-58219221D01*
X115989161Y-58248027D01*
X116052296Y-58277956D01*
X116089227Y-58337268D01*
X116088229Y-58407131D01*
X116049619Y-58465363D01*
X115985655Y-58493477D01*
X115969763Y-58494500D01*
X115529270Y-58494500D01*
X115413127Y-58508023D01*
X115357676Y-58521114D01*
X115247759Y-58560955D01*
X115247741Y-58560963D01*
X113342478Y-59513594D01*
X113342477Y-59513595D01*
X113230832Y-59589589D01*
X113181980Y-59633451D01*
X113181974Y-59633457D01*
X113181970Y-59633461D01*
X113181967Y-59633465D01*
X113094432Y-59736300D01*
X113078589Y-59770992D01*
X113045018Y-59844500D01*
X113045018Y-59844501D01*
X113045017Y-59844500D01*
X113034663Y-59867173D01*
X113014976Y-59934218D01*
X112994500Y-60076637D01*
X112994500Y-60938001D01*
X112999644Y-61009940D01*
X113004667Y-61044873D01*
X113004673Y-61044904D01*
X113009675Y-61067903D01*
X113010147Y-61070078D01*
X113010282Y-61070821D01*
X113010415Y-61071306D01*
X113011086Y-61074393D01*
X113019980Y-61115288D01*
X113021992Y-61119695D01*
X113028790Y-61138453D01*
X113033989Y-61157448D01*
X113033990Y-61157451D01*
X113064210Y-61212917D01*
X113064211Y-61212917D01*
X113066309Y-61216767D01*
X113079736Y-61246178D01*
X113081490Y-61248908D01*
X113083216Y-61247798D01*
X113102829Y-61283794D01*
X113102830Y-61283795D01*
X113102832Y-61283798D01*
X113107942Y-61290637D01*
X113112927Y-61297824D01*
X113117253Y-61304556D01*
X113117560Y-61305039D01*
X113117585Y-61305073D01*
X113122944Y-61311255D01*
X113128583Y-61318258D01*
X113141936Y-61336131D01*
X113141936Y-61336132D01*
X113144636Y-61339746D01*
X113144653Y-61339769D01*
X113160356Y-61355500D01*
X113164410Y-61359561D01*
X113164411Y-61359563D01*
X113170336Y-61365931D01*
X113211825Y-61413796D01*
X113219289Y-61418591D01*
X113240026Y-61435315D01*
X113246299Y-61441599D01*
X113246299Y-61441600D01*
X114204974Y-62160606D01*
X115163633Y-62879600D01*
X115178476Y-62890318D01*
X115185837Y-62895433D01*
X115200997Y-62905567D01*
X115201003Y-62905569D01*
X115202540Y-62906427D01*
X115203031Y-62906926D01*
X115205145Y-62908340D01*
X115204851Y-62908779D01*
X115251503Y-62956271D01*
X115265745Y-63024674D01*
X115240745Y-63089918D01*
X115229827Y-63102405D01*
X115146557Y-63185676D01*
X115146555Y-63185678D01*
X115030904Y-63344856D01*
X114941581Y-63520162D01*
X114880781Y-63707283D01*
X114874016Y-63750000D01*
X115951518Y-63750000D01*
X115940889Y-63768409D01*
X115900000Y-63921009D01*
X115900000Y-64078991D01*
X115940889Y-64231591D01*
X115951518Y-64250000D01*
X114874016Y-64250000D01*
X114880781Y-64292716D01*
X114941581Y-64479837D01*
X115030904Y-64655143D01*
X115129858Y-64791339D01*
X115153338Y-64857145D01*
X115137513Y-64925199D01*
X115087408Y-64973894D01*
X115030999Y-64988216D01*
X114594496Y-64993352D01*
X114594469Y-64993353D01*
X114539239Y-64997036D01*
X114539212Y-64997038D01*
X114512280Y-65000324D01*
X114457778Y-65010026D01*
X114323820Y-65062569D01*
X114263077Y-65097074D01*
X114257581Y-65101261D01*
X114256890Y-65101870D01*
X114149357Y-65185222D01*
X114149354Y-65185225D01*
X114088447Y-65269502D01*
X114065077Y-65301840D01*
X114046215Y-65337806D01*
X114032625Y-65363720D01*
X113984620Y-65499343D01*
X113984618Y-65499350D01*
X113586976Y-67487561D01*
X113522891Y-67807984D01*
X113516490Y-67848456D01*
X113514157Y-67868420D01*
X113511395Y-67904805D01*
X113511057Y-67909263D01*
X113514862Y-67944500D01*
X113514987Y-67945659D01*
X113514994Y-67945737D01*
X113526501Y-68052312D01*
X113526502Y-68052315D01*
X113542980Y-68116751D01*
X113543608Y-68119518D01*
X113598933Y-68252909D01*
X113601021Y-68255498D01*
X113689260Y-68364893D01*
X113689263Y-68364895D01*
X113689266Y-68364899D01*
X113720251Y-68393721D01*
X113740420Y-68412482D01*
X113740423Y-68412484D01*
X113740425Y-68412486D01*
X113858646Y-68494489D01*
X114211652Y-68670992D01*
X114761608Y-68945970D01*
X114761612Y-68945971D01*
X114761613Y-68945972D01*
X114850571Y-68980389D01*
X114895410Y-68993024D01*
X114895414Y-68993024D01*
X114895415Y-68993025D01*
X114989263Y-69010119D01*
X115132908Y-69001904D01*
X115201386Y-68988028D01*
X115264323Y-68965571D01*
X115279049Y-68964729D01*
X115292678Y-68959077D01*
X115313227Y-68962774D01*
X115334075Y-68961582D01*
X115346922Y-68968837D01*
X115361444Y-68971450D01*
X115376733Y-68985671D01*
X115394914Y-68995938D01*
X115402690Y-69009814D01*
X115412604Y-69019036D01*
X115426124Y-69051634D01*
X115428090Y-69059322D01*
X115428716Y-69062074D01*
X115484040Y-69195463D01*
X115484043Y-69195467D01*
X115574366Y-69307446D01*
X115574369Y-69307448D01*
X115574372Y-69307452D01*
X115605357Y-69336274D01*
X115625526Y-69355035D01*
X115625529Y-69355037D01*
X115625531Y-69355039D01*
X115743752Y-69437042D01*
X115743756Y-69437044D01*
X115751076Y-69440704D01*
X115784091Y-69454362D01*
X115784108Y-69454369D01*
X115786828Y-69455494D01*
X115786830Y-69455496D01*
X115786840Y-69455499D01*
X115786844Y-69455501D01*
X115817682Y-69468259D01*
X115817692Y-69468262D01*
X115817710Y-69468270D01*
X115851202Y-69479401D01*
X115851211Y-69479403D01*
X115851224Y-69479407D01*
X115921119Y-69497212D01*
X115938853Y-69497836D01*
X115954096Y-69499318D01*
X115960170Y-69500290D01*
X115995942Y-69506017D01*
X116059026Y-69536049D01*
X116095859Y-69595421D01*
X116094747Y-69665282D01*
X116056041Y-69723451D01*
X115995740Y-69750930D01*
X115807293Y-69780778D01*
X115620164Y-69841581D01*
X115444856Y-69930904D01*
X115285678Y-70046555D01*
X115146555Y-70185678D01*
X115030904Y-70344856D01*
X114941581Y-70520162D01*
X114880781Y-70707283D01*
X114874016Y-70750000D01*
X115951518Y-70750000D01*
X115940889Y-70768409D01*
X115900000Y-70921009D01*
X115900000Y-71078991D01*
X115940889Y-71231591D01*
X115951518Y-71250000D01*
X114874016Y-71250000D01*
X114880781Y-71292716D01*
X114941581Y-71479837D01*
X115030904Y-71655143D01*
X115134417Y-71797614D01*
X115157897Y-71863420D01*
X115142072Y-71931474D01*
X115091967Y-71980169D01*
X115034099Y-71994500D01*
X114089374Y-71994500D01*
X114079263Y-71994770D01*
X114062402Y-71995220D01*
X114049224Y-71995924D01*
X114022372Y-71998076D01*
X114022371Y-71998076D01*
X113882950Y-72033592D01*
X113882949Y-72033592D01*
X113819058Y-72060022D01*
X113818429Y-72060277D01*
X113818370Y-72060306D01*
X113694601Y-72133667D01*
X113596510Y-72238930D01*
X113556639Y-72296300D01*
X113556636Y-72296305D01*
X113492180Y-72424929D01*
X113492179Y-72424932D01*
X113036683Y-73791419D01*
X113022348Y-73843577D01*
X113022336Y-73843625D01*
X113016698Y-73869481D01*
X113016695Y-73869500D01*
X113008014Y-73922916D01*
X113008014Y-73922918D01*
X113013086Y-74066709D01*
X113025461Y-74135470D01*
X113025461Y-74135472D01*
X113070839Y-74272012D01*
X114013594Y-76157521D01*
X114013595Y-76157522D01*
X114089589Y-76269167D01*
X114089591Y-76269169D01*
X114133461Y-76318030D01*
X114236300Y-76405567D01*
X114367177Y-76465338D01*
X114434216Y-76485023D01*
X114434220Y-76485024D01*
X114576636Y-76505500D01*
X115969763Y-76505500D01*
X116036802Y-76525185D01*
X116082557Y-76577989D01*
X116092501Y-76647147D01*
X116063476Y-76710703D01*
X116004698Y-76748477D01*
X115989161Y-76751973D01*
X115807294Y-76780778D01*
X115620164Y-76841581D01*
X115444856Y-76930904D01*
X115285678Y-77046555D01*
X115146555Y-77185678D01*
X115030904Y-77344856D01*
X114941581Y-77520162D01*
X114880781Y-77707283D01*
X114874016Y-77750000D01*
X115951518Y-77750000D01*
X115940889Y-77768409D01*
X115900000Y-77921009D01*
X115900000Y-78078991D01*
X115940889Y-78231591D01*
X115951518Y-78250000D01*
X114874016Y-78250000D01*
X114880781Y-78292716D01*
X114941581Y-78479837D01*
X115030904Y-78655143D01*
X115146555Y-78814321D01*
X115207671Y-78875437D01*
X115241156Y-78936760D01*
X115236172Y-79006452D01*
X115194300Y-79062385D01*
X115159202Y-79080755D01*
X113904723Y-79498914D01*
X113805454Y-79544437D01*
X113759730Y-79571735D01*
X113672580Y-79637494D01*
X113582852Y-79749964D01*
X113582846Y-79749972D01*
X113547503Y-79810212D01*
X113547488Y-79810238D01*
X113493083Y-79943431D01*
X113197092Y-81127398D01*
X113107051Y-81487561D01*
X113026619Y-81809287D01*
X113026617Y-81809298D01*
X113011585Y-81924131D01*
X113010718Y-81980540D01*
X113010719Y-81980555D01*
X113022211Y-82095773D01*
X113072493Y-82230582D01*
X113105978Y-82291905D01*
X113192202Y-82407086D01*
X113192206Y-82407090D01*
X113192211Y-82407096D01*
X114108781Y-83323666D01*
X114139287Y-83351765D01*
X114139294Y-83351771D01*
X114139305Y-83351781D01*
X114154821Y-83364937D01*
X114187547Y-83390452D01*
X114315277Y-83456683D01*
X114372253Y-83476553D01*
X114377956Y-83479048D01*
X114381249Y-83479690D01*
X114381250Y-83479691D01*
X114381251Y-83479692D01*
X114522467Y-83507254D01*
X115692790Y-83565770D01*
X115758760Y-83588776D01*
X115801821Y-83643799D01*
X115808298Y-83713368D01*
X115776136Y-83775395D01*
X115724914Y-83807545D01*
X115620162Y-83841581D01*
X115444856Y-83930904D01*
X115285678Y-84046555D01*
X115146555Y-84185678D01*
X115030904Y-84344856D01*
X114941581Y-84520162D01*
X114880781Y-84707283D01*
X114874016Y-84750000D01*
X115951518Y-84750000D01*
X115940889Y-84768409D01*
X115900000Y-84921009D01*
X115900000Y-85078991D01*
X115940889Y-85231591D01*
X115951518Y-85250000D01*
X114874016Y-85250000D01*
X114880781Y-85292716D01*
X114941581Y-85479837D01*
X115030904Y-85655143D01*
X115146555Y-85814321D01*
X115223060Y-85890826D01*
X115256545Y-85952149D01*
X115251561Y-86021841D01*
X115209689Y-86077774D01*
X115190834Y-86089416D01*
X114342475Y-86513596D01*
X114230832Y-86589589D01*
X114181980Y-86633451D01*
X114181974Y-86633457D01*
X114181970Y-86633461D01*
X114181967Y-86633465D01*
X114094432Y-86736300D01*
X114034663Y-86867173D01*
X114014976Y-86934218D01*
X113994500Y-87076637D01*
X113994500Y-89438299D01*
X114002318Y-89526863D01*
X114009928Y-89569631D01*
X114009930Y-89569639D01*
X114033146Y-89655468D01*
X114033146Y-89655470D01*
X114101495Y-89782075D01*
X114143103Y-89838214D01*
X114244341Y-89940424D01*
X114244352Y-89940434D01*
X114686194Y-90274500D01*
X114823338Y-90378191D01*
X114838604Y-90389292D01*
X114846198Y-90394600D01*
X114861892Y-90405138D01*
X114992684Y-90465096D01*
X115059691Y-90484876D01*
X115059691Y-90484877D01*
X115158398Y-90499213D01*
X115202080Y-90505558D01*
X115962654Y-90506655D01*
X116029660Y-90526435D01*
X116075339Y-90579305D01*
X116085182Y-90648478D01*
X116056066Y-90711992D01*
X115997233Y-90749681D01*
X115981869Y-90753127D01*
X115807293Y-90780778D01*
X115620164Y-90841581D01*
X115444856Y-90930904D01*
X115285678Y-91046555D01*
X115146555Y-91185678D01*
X115030904Y-91344856D01*
X114941581Y-91520162D01*
X114880781Y-91707283D01*
X114874016Y-91750000D01*
X115951518Y-91750000D01*
X115940889Y-91768409D01*
X115900000Y-91921009D01*
X115900000Y-92078991D01*
X115940889Y-92231591D01*
X115951518Y-92250000D01*
X114874016Y-92250000D01*
X114880781Y-92292716D01*
X114941581Y-92479837D01*
X115030904Y-92655143D01*
X115146555Y-92814321D01*
X115285678Y-92953444D01*
X115444856Y-93069095D01*
X115620164Y-93158418D01*
X115807294Y-93219221D01*
X116001618Y-93250000D01*
X116250000Y-93250000D01*
X116250000Y-92548482D01*
X116268409Y-92559111D01*
X116421009Y-92600000D01*
X116578991Y-92600000D01*
X116731591Y-92559111D01*
X116750000Y-92548482D01*
X116750000Y-93250000D01*
X116998382Y-93250000D01*
X117192705Y-93219221D01*
X117379835Y-93158418D01*
X117555143Y-93069095D01*
X117714321Y-92953444D01*
X117853444Y-92814321D01*
X117969095Y-92655143D01*
X118058418Y-92479837D01*
X118119218Y-92292716D01*
X118125984Y-92250000D01*
X117048482Y-92250000D01*
X117059111Y-92231591D01*
X117100000Y-92078991D01*
X117100000Y-91921009D01*
X117059111Y-91768409D01*
X117048482Y-91750000D01*
X118125984Y-91750000D01*
X118119218Y-91707283D01*
X118058418Y-91520162D01*
X117969095Y-91344856D01*
X117853444Y-91185678D01*
X117714321Y-91046555D01*
X117555143Y-90930904D01*
X117379835Y-90841581D01*
X117192705Y-90780778D01*
X117192707Y-90780778D01*
X117028015Y-90754693D01*
X116964881Y-90724763D01*
X116927950Y-90665452D01*
X116928948Y-90595589D01*
X116967558Y-90537357D01*
X117031522Y-90509243D01*
X117047575Y-90508221D01*
X120917506Y-90513805D01*
X120984516Y-90533586D01*
X121030195Y-90586456D01*
X121040038Y-90655629D01*
X121010922Y-90719143D01*
X120952089Y-90756832D01*
X120936724Y-90760278D01*
X120807294Y-90780778D01*
X120620164Y-90841581D01*
X120444856Y-90930904D01*
X120285678Y-91046555D01*
X120146555Y-91185678D01*
X120030904Y-91344856D01*
X119941581Y-91520162D01*
X119880781Y-91707283D01*
X119874016Y-91750000D01*
X120951518Y-91750000D01*
X120940889Y-91768409D01*
X120900000Y-91921009D01*
X120900000Y-92078991D01*
X120940889Y-92231591D01*
X120951518Y-92250000D01*
X119874016Y-92250000D01*
X119880781Y-92292716D01*
X119941581Y-92479837D01*
X120030904Y-92655143D01*
X120146555Y-92814321D01*
X120285678Y-92953444D01*
X120444856Y-93069095D01*
X120620164Y-93158418D01*
X120807294Y-93219221D01*
X121001618Y-93250000D01*
X121250000Y-93250000D01*
X121250000Y-92548482D01*
X121268409Y-92559111D01*
X121421009Y-92600000D01*
X121578991Y-92600000D01*
X121731591Y-92559111D01*
X121750000Y-92548482D01*
X121750000Y-93250000D01*
X121998382Y-93250000D01*
X122192705Y-93219221D01*
X122379835Y-93158418D01*
X122555143Y-93069095D01*
X122714321Y-92953444D01*
X122853444Y-92814321D01*
X122969095Y-92655143D01*
X123058418Y-92479837D01*
X123119218Y-92292716D01*
X123125984Y-92250000D01*
X122048482Y-92250000D01*
X122059111Y-92231591D01*
X122100000Y-92078991D01*
X122100000Y-91921009D01*
X122059111Y-91768409D01*
X122048482Y-91750000D01*
X123125984Y-91750000D01*
X123119218Y-91707283D01*
X123058418Y-91520162D01*
X122969095Y-91344856D01*
X122853444Y-91185678D01*
X122714321Y-91046555D01*
X122555143Y-90930904D01*
X122379835Y-90841581D01*
X122192705Y-90780778D01*
X122073990Y-90761975D01*
X122010855Y-90732045D01*
X121973924Y-90672734D01*
X121974922Y-90602871D01*
X122013532Y-90544639D01*
X122077496Y-90516525D01*
X122093558Y-90515502D01*
X124090788Y-90518384D01*
X124157798Y-90538165D01*
X124203477Y-90591035D01*
X124205551Y-90595864D01*
X128393887Y-100944500D01*
X128670740Y-101628554D01*
X128670741Y-101628558D01*
X128675228Y-101639644D01*
X128687915Y-101670992D01*
X129004966Y-102454369D01*
X129004992Y-102454432D01*
X129005433Y-102455523D01*
X129620959Y-103976377D01*
X129769947Y-104344500D01*
X130020431Y-104963401D01*
X130076587Y-105066054D01*
X130080078Y-105070979D01*
X130080083Y-105070993D01*
X130080086Y-105070991D01*
X130080087Y-105070992D01*
X130109558Y-105112575D01*
X130187813Y-105199570D01*
X130930305Y-105853726D01*
X130931040Y-105854373D01*
X130931054Y-105854386D01*
X130932328Y-105855509D01*
X130932329Y-105855509D01*
X132628707Y-107350063D01*
X132641588Y-107360795D01*
X132643833Y-107362666D01*
X132650118Y-107367902D01*
X132660827Y-107376336D01*
X132660836Y-107376343D01*
X132683197Y-107392976D01*
X132811529Y-107458034D01*
X132877710Y-107480436D01*
X132950832Y-107494013D01*
X133019164Y-107506701D01*
X133019166Y-107506701D01*
X133019171Y-107506702D01*
X158850328Y-108561035D01*
X158968303Y-108551991D01*
X159024871Y-108540888D01*
X159137504Y-108504672D01*
X159162846Y-108488386D01*
X159258537Y-108426888D01*
X159258537Y-108426887D01*
X159258543Y-108426884D01*
X159311347Y-108381129D01*
X159405567Y-108272395D01*
X159465338Y-108141518D01*
X159485023Y-108074479D01*
X159485024Y-108074475D01*
X159505500Y-107932059D01*
X159505500Y-101588549D01*
X164094500Y-101588549D01*
X164094500Y-101811450D01*
X164094501Y-101811466D01*
X164123594Y-102032452D01*
X164123595Y-102032457D01*
X164123596Y-102032463D01*
X164123597Y-102032465D01*
X164181290Y-102247780D01*
X164181293Y-102247790D01*
X164218925Y-102338641D01*
X164266595Y-102453726D01*
X164378052Y-102646774D01*
X164378057Y-102646780D01*
X164378058Y-102646782D01*
X164513751Y-102823622D01*
X164513757Y-102823629D01*
X164671370Y-102981242D01*
X164671377Y-102981248D01*
X164797294Y-103077867D01*
X164848226Y-103116948D01*
X165041274Y-103228405D01*
X165078199Y-103243699D01*
X165178965Y-103285439D01*
X165233368Y-103329280D01*
X165255433Y-103395574D01*
X165238154Y-103463274D01*
X165187016Y-103510884D01*
X165178965Y-103514561D01*
X165041277Y-103571593D01*
X165041273Y-103571595D01*
X164848226Y-103683052D01*
X164848217Y-103683058D01*
X164671377Y-103818751D01*
X164671370Y-103818757D01*
X164513757Y-103976370D01*
X164513751Y-103976377D01*
X164378058Y-104153217D01*
X164378052Y-104153226D01*
X164266595Y-104346273D01*
X164266593Y-104346277D01*
X164181293Y-104552209D01*
X164181290Y-104552219D01*
X164123597Y-104767534D01*
X164123594Y-104767547D01*
X164094501Y-104988533D01*
X164094500Y-104988549D01*
X164094500Y-105211450D01*
X164094501Y-105211466D01*
X164123594Y-105432452D01*
X164123595Y-105432457D01*
X164123596Y-105432463D01*
X164181290Y-105647780D01*
X164181293Y-105647790D01*
X164222519Y-105747317D01*
X164266595Y-105853726D01*
X164378052Y-106046774D01*
X164378057Y-106046780D01*
X164378058Y-106046782D01*
X164513751Y-106223622D01*
X164513757Y-106223629D01*
X164671370Y-106381242D01*
X164671376Y-106381247D01*
X164848226Y-106516948D01*
X165041274Y-106628405D01*
X165247219Y-106713710D01*
X165462537Y-106771404D01*
X165683543Y-106800500D01*
X165683550Y-106800500D01*
X165906450Y-106800500D01*
X165906457Y-106800500D01*
X166127463Y-106771404D01*
X166342781Y-106713710D01*
X166548726Y-106628405D01*
X166741774Y-106516948D01*
X166918624Y-106381247D01*
X167076247Y-106223624D01*
X167211948Y-106046774D01*
X167323405Y-105853726D01*
X167408710Y-105647781D01*
X167466404Y-105432463D01*
X167495500Y-105211457D01*
X167495500Y-104988543D01*
X167473075Y-104818206D01*
X186299500Y-104818206D01*
X186299500Y-104848638D01*
X186299500Y-105181794D01*
X186310337Y-105291829D01*
X186335137Y-105543630D01*
X186406064Y-105900212D01*
X186406067Y-105900223D01*
X186511614Y-106248165D01*
X186650754Y-106584078D01*
X186650756Y-106584083D01*
X186822140Y-106904720D01*
X186822151Y-106904738D01*
X187024140Y-107207035D01*
X187024150Y-107207049D01*
X187254807Y-107488106D01*
X187511893Y-107745192D01*
X187511898Y-107745196D01*
X187511899Y-107745197D01*
X187792956Y-107975854D01*
X188095268Y-108177853D01*
X188095277Y-108177858D01*
X188095279Y-108177859D01*
X188415916Y-108349243D01*
X188415918Y-108349243D01*
X188415924Y-108349247D01*
X188751836Y-108488386D01*
X189099767Y-108593930D01*
X189099773Y-108593931D01*
X189099776Y-108593932D01*
X189099787Y-108593935D01*
X189456369Y-108664862D01*
X189818206Y-108700500D01*
X189818209Y-108700500D01*
X190181791Y-108700500D01*
X190181794Y-108700500D01*
X190543631Y-108664862D01*
X190613045Y-108651054D01*
X190900212Y-108593935D01*
X190900223Y-108593932D01*
X190900223Y-108593931D01*
X190900233Y-108593930D01*
X191248164Y-108488386D01*
X191584076Y-108349247D01*
X191904732Y-108177853D01*
X192207044Y-107975854D01*
X192488101Y-107745197D01*
X192745197Y-107488101D01*
X192975854Y-107207044D01*
X193177853Y-106904732D01*
X193349247Y-106584076D01*
X193488386Y-106248164D01*
X193593930Y-105900233D01*
X193593932Y-105900223D01*
X193593935Y-105900212D01*
X193664862Y-105543630D01*
X193675812Y-105432452D01*
X193700500Y-105181794D01*
X193700500Y-104818206D01*
X193664862Y-104456369D01*
X193604564Y-104153226D01*
X193593935Y-104099787D01*
X193593932Y-104099776D01*
X193593931Y-104099773D01*
X193593930Y-104099767D01*
X193488386Y-103751836D01*
X193349247Y-103415924D01*
X193340735Y-103400000D01*
X193177859Y-103095279D01*
X193177858Y-103095277D01*
X193177853Y-103095268D01*
X192975854Y-102792956D01*
X192745197Y-102511899D01*
X192745196Y-102511898D01*
X192745192Y-102511893D01*
X192488106Y-102254807D01*
X192207049Y-102024150D01*
X192207048Y-102024149D01*
X192207044Y-102024146D01*
X191904732Y-101822147D01*
X191904727Y-101822144D01*
X191904720Y-101822140D01*
X191584083Y-101650756D01*
X191584078Y-101650754D01*
X191248165Y-101511614D01*
X190900223Y-101406067D01*
X190900212Y-101406064D01*
X190543630Y-101335137D01*
X190271111Y-101308296D01*
X190181794Y-101299500D01*
X189818206Y-101299500D01*
X189735679Y-101307628D01*
X189456369Y-101335137D01*
X189099787Y-101406064D01*
X189099776Y-101406067D01*
X188751834Y-101511614D01*
X188415921Y-101650754D01*
X188415916Y-101650756D01*
X188095279Y-101822140D01*
X188095261Y-101822151D01*
X187792964Y-102024140D01*
X187792950Y-102024150D01*
X187511893Y-102254807D01*
X187254807Y-102511893D01*
X187024150Y-102792950D01*
X187024140Y-102792964D01*
X186822151Y-103095261D01*
X186822140Y-103095279D01*
X186650756Y-103415916D01*
X186650754Y-103415921D01*
X186511614Y-103751834D01*
X186406067Y-104099776D01*
X186406064Y-104099787D01*
X186335137Y-104456369D01*
X186307628Y-104735679D01*
X186299500Y-104818206D01*
X167473075Y-104818206D01*
X167466404Y-104767537D01*
X167408710Y-104552219D01*
X167323405Y-104346274D01*
X167211948Y-104153226D01*
X167076247Y-103976376D01*
X167076242Y-103976370D01*
X166918629Y-103818757D01*
X166918622Y-103818751D01*
X166741782Y-103683058D01*
X166741780Y-103683057D01*
X166741774Y-103683052D01*
X166548726Y-103571595D01*
X166548722Y-103571593D01*
X166411034Y-103514561D01*
X166356631Y-103470720D01*
X166334566Y-103404426D01*
X166351845Y-103336727D01*
X166402982Y-103289116D01*
X166411034Y-103285439D01*
X166448768Y-103269808D01*
X166548726Y-103228405D01*
X166741774Y-103116948D01*
X166918624Y-102981247D01*
X167076247Y-102823624D01*
X167211948Y-102646774D01*
X167323405Y-102453726D01*
X167408710Y-102247781D01*
X167466404Y-102032463D01*
X167495500Y-101811457D01*
X167495500Y-101588543D01*
X167466404Y-101367537D01*
X167408710Y-101152219D01*
X167323405Y-100946274D01*
X167211948Y-100753226D01*
X167076247Y-100576376D01*
X167076242Y-100576370D01*
X166918629Y-100418757D01*
X166918622Y-100418751D01*
X166741782Y-100283058D01*
X166741780Y-100283057D01*
X166741774Y-100283052D01*
X166548726Y-100171595D01*
X166548722Y-100171593D01*
X166342790Y-100086293D01*
X166342783Y-100086291D01*
X166342781Y-100086290D01*
X166127463Y-100028596D01*
X166127457Y-100028595D01*
X166127452Y-100028594D01*
X165906466Y-99999501D01*
X165906463Y-99999500D01*
X165906457Y-99999500D01*
X165683543Y-99999500D01*
X165683537Y-99999500D01*
X165683533Y-99999501D01*
X165462547Y-100028594D01*
X165462540Y-100028595D01*
X165462537Y-100028596D01*
X165247219Y-100086290D01*
X165247209Y-100086293D01*
X165041277Y-100171593D01*
X165041273Y-100171595D01*
X164848226Y-100283052D01*
X164848217Y-100283058D01*
X164671377Y-100418751D01*
X164671370Y-100418757D01*
X164513757Y-100576370D01*
X164513751Y-100576377D01*
X164378058Y-100753217D01*
X164378052Y-100753226D01*
X164266595Y-100946273D01*
X164266593Y-100946277D01*
X164181293Y-101152209D01*
X164181290Y-101152219D01*
X164141827Y-101299500D01*
X164123597Y-101367534D01*
X164123594Y-101367547D01*
X164094501Y-101588533D01*
X164094500Y-101588549D01*
X159505500Y-101588549D01*
X159505500Y-99124000D01*
X159493947Y-99016544D01*
X159482741Y-98965033D01*
X159482637Y-98964722D01*
X159448616Y-98862502D01*
X159448613Y-98862496D01*
X159370828Y-98741462D01*
X159370825Y-98741457D01*
X159370820Y-98741451D01*
X159325076Y-98688659D01*
X159325072Y-98688656D01*
X159325070Y-98688653D01*
X159216336Y-98594433D01*
X159216333Y-98594431D01*
X159216331Y-98594430D01*
X159085465Y-98534664D01*
X159085460Y-98534662D01*
X159085459Y-98534662D01*
X159018420Y-98514977D01*
X159018422Y-98514977D01*
X159018417Y-98514976D01*
X158970944Y-98508150D01*
X158876000Y-98494500D01*
X158875998Y-98494500D01*
X154015358Y-98494500D01*
X154009316Y-98494353D01*
X133877200Y-97512297D01*
X133811200Y-97489369D01*
X133774418Y-97447885D01*
X132971804Y-95978476D01*
X129358870Y-89363987D01*
X129324506Y-89309611D01*
X129306020Y-89284111D01*
X129306016Y-89284105D01*
X129265032Y-89234545D01*
X129265015Y-89234525D01*
X126405010Y-86192799D01*
X126404984Y-86192773D01*
X126359931Y-86150385D01*
X126359928Y-86150382D01*
X126351124Y-86143061D01*
X126336633Y-86131010D01*
X126336625Y-86131004D01*
X126286723Y-86094433D01*
X126155849Y-86034663D01*
X126088804Y-86014976D01*
X126040443Y-86008023D01*
X125946387Y-85994500D01*
X122965901Y-85994500D01*
X122898862Y-85974815D01*
X122853107Y-85922011D01*
X122843163Y-85852853D01*
X122865583Y-85797614D01*
X122969095Y-85655143D01*
X123058418Y-85479837D01*
X123119218Y-85292716D01*
X123125984Y-85250000D01*
X122048482Y-85250000D01*
X122059111Y-85231591D01*
X122100000Y-85078991D01*
X122100000Y-84921009D01*
X122059111Y-84768409D01*
X122048482Y-84750000D01*
X123125984Y-84750000D01*
X123119218Y-84707283D01*
X123058418Y-84520162D01*
X122969095Y-84344856D01*
X122853444Y-84185678D01*
X122805384Y-84137618D01*
X122771899Y-84076295D01*
X122776883Y-84006603D01*
X122818755Y-83950670D01*
X122884219Y-83926253D01*
X122899244Y-83926092D01*
X124357659Y-83999012D01*
X124401823Y-84009543D01*
X128602316Y-85876428D01*
X128655583Y-85921644D01*
X128660349Y-85929518D01*
X129297637Y-87076636D01*
X130613117Y-89444500D01*
X130613116Y-89444500D01*
X131016723Y-90170992D01*
X131034531Y-90203046D01*
X131034534Y-90203050D01*
X131056329Y-90242283D01*
X131063864Y-90255380D01*
X131067600Y-90261656D01*
X131073493Y-90271228D01*
X131075507Y-90274500D01*
X131507742Y-90953726D01*
X131508157Y-90954378D01*
X131508176Y-90954408D01*
X131508882Y-90955518D01*
X132290044Y-92183058D01*
X132710962Y-92844500D01*
X133173275Y-93570992D01*
X133671375Y-94353722D01*
X133671793Y-94354378D01*
X133671812Y-94354408D01*
X133672518Y-94355518D01*
X134539882Y-95718517D01*
X134539882Y-95718518D01*
X134596175Y-95791361D01*
X134596181Y-95791368D01*
X134626807Y-95824301D01*
X134626810Y-95824304D01*
X134626815Y-95824309D01*
X134695398Y-95885743D01*
X134695402Y-95885745D01*
X134821895Y-95954271D01*
X134821899Y-95954272D01*
X134821907Y-95954277D01*
X134887452Y-95978476D01*
X135028144Y-96008592D01*
X156909365Y-97500493D01*
X156980657Y-97500315D01*
X157015450Y-97497768D01*
X157085996Y-97487565D01*
X157220805Y-97437283D01*
X157282128Y-97403798D01*
X157397309Y-97317574D01*
X159816373Y-94898510D01*
X159866497Y-94840101D01*
X159888773Y-94809740D01*
X159929458Y-94744377D01*
X159977133Y-94608625D01*
X159990667Y-94540079D01*
X159998165Y-94396395D01*
X159725766Y-91400000D01*
X159607194Y-90095710D01*
X159606543Y-90088549D01*
X164094500Y-90088549D01*
X164094500Y-90311450D01*
X164094501Y-90311466D01*
X164123594Y-90532452D01*
X164123595Y-90532457D01*
X164123596Y-90532463D01*
X164177074Y-90732045D01*
X164181290Y-90747780D01*
X164181293Y-90747790D01*
X164266593Y-90953722D01*
X164266595Y-90953726D01*
X164378052Y-91146774D01*
X164378057Y-91146780D01*
X164378058Y-91146782D01*
X164513751Y-91323622D01*
X164513757Y-91323629D01*
X164671370Y-91481242D01*
X164671376Y-91481247D01*
X164848226Y-91616948D01*
X165041274Y-91728405D01*
X165078199Y-91743699D01*
X165178965Y-91785439D01*
X165233368Y-91829280D01*
X165255433Y-91895574D01*
X165238154Y-91963274D01*
X165187016Y-92010884D01*
X165178965Y-92014561D01*
X165041277Y-92071593D01*
X165041273Y-92071595D01*
X164848226Y-92183052D01*
X164848217Y-92183058D01*
X164671377Y-92318751D01*
X164671370Y-92318757D01*
X164513757Y-92476370D01*
X164513751Y-92476377D01*
X164378058Y-92653217D01*
X164378052Y-92653226D01*
X164266595Y-92846273D01*
X164266593Y-92846277D01*
X164181293Y-93052209D01*
X164181290Y-93052219D01*
X164123597Y-93267534D01*
X164123594Y-93267547D01*
X164094501Y-93488533D01*
X164094500Y-93488549D01*
X164094500Y-93711450D01*
X164094501Y-93711466D01*
X164123594Y-93932452D01*
X164123595Y-93932457D01*
X164123596Y-93932463D01*
X164123597Y-93932465D01*
X164181290Y-94147780D01*
X164181293Y-94147790D01*
X164266593Y-94353722D01*
X164266595Y-94353726D01*
X164378052Y-94546774D01*
X164378057Y-94546780D01*
X164378058Y-94546782D01*
X164513751Y-94723622D01*
X164513757Y-94723629D01*
X164671370Y-94881242D01*
X164671377Y-94881248D01*
X164693893Y-94898525D01*
X164848226Y-95016948D01*
X165041274Y-95128405D01*
X165247219Y-95213710D01*
X165462537Y-95271404D01*
X165683543Y-95300500D01*
X165683550Y-95300500D01*
X165906450Y-95300500D01*
X165906457Y-95300500D01*
X166127463Y-95271404D01*
X166342781Y-95213710D01*
X166548726Y-95128405D01*
X166741774Y-95016948D01*
X166918624Y-94881247D01*
X167076247Y-94723624D01*
X167211948Y-94546774D01*
X167323405Y-94353726D01*
X167408710Y-94147781D01*
X167466404Y-93932463D01*
X167495500Y-93711457D01*
X167495500Y-93488543D01*
X167466404Y-93267537D01*
X167408710Y-93052219D01*
X167323405Y-92846274D01*
X167211948Y-92653226D01*
X167171106Y-92600000D01*
X167076248Y-92476377D01*
X167076242Y-92476370D01*
X166918629Y-92318757D01*
X166918622Y-92318751D01*
X166741782Y-92183058D01*
X166741780Y-92183057D01*
X166741774Y-92183052D01*
X166548726Y-92071595D01*
X166548722Y-92071593D01*
X166411034Y-92014561D01*
X166356631Y-91970720D01*
X166334566Y-91904426D01*
X166351845Y-91836727D01*
X166402982Y-91789116D01*
X166411034Y-91785439D01*
X166452148Y-91768409D01*
X166548726Y-91728405D01*
X166741774Y-91616948D01*
X166918624Y-91481247D01*
X167076247Y-91323624D01*
X167211948Y-91146774D01*
X167323405Y-90953726D01*
X167408710Y-90747781D01*
X167466404Y-90532463D01*
X167495500Y-90311457D01*
X167495500Y-90088543D01*
X167466404Y-89867537D01*
X167408710Y-89652219D01*
X167323405Y-89446274D01*
X167211948Y-89253226D01*
X167076247Y-89076376D01*
X167076242Y-89076370D01*
X166918629Y-88918757D01*
X166918622Y-88918751D01*
X166741782Y-88783058D01*
X166741780Y-88783057D01*
X166741774Y-88783052D01*
X166548726Y-88671595D01*
X166548722Y-88671593D01*
X166342790Y-88586293D01*
X166342783Y-88586291D01*
X166342781Y-88586290D01*
X166127463Y-88528596D01*
X166127457Y-88528595D01*
X166127452Y-88528594D01*
X165906466Y-88499501D01*
X165906463Y-88499500D01*
X165906457Y-88499500D01*
X165683543Y-88499500D01*
X165683537Y-88499500D01*
X165683533Y-88499501D01*
X165462547Y-88528594D01*
X165462540Y-88528595D01*
X165462537Y-88528596D01*
X165247219Y-88586290D01*
X165247209Y-88586293D01*
X165041277Y-88671593D01*
X165041273Y-88671595D01*
X164848226Y-88783052D01*
X164848217Y-88783058D01*
X164671377Y-88918751D01*
X164671370Y-88918757D01*
X164513757Y-89076370D01*
X164513751Y-89076377D01*
X164378058Y-89253217D01*
X164378052Y-89253226D01*
X164266595Y-89446273D01*
X164266593Y-89446277D01*
X164181293Y-89652209D01*
X164181290Y-89652219D01*
X164123597Y-89867534D01*
X164123594Y-89867547D01*
X164094501Y-90088533D01*
X164094500Y-90088549D01*
X159606543Y-90088549D01*
X159508416Y-89009152D01*
X159508415Y-89009149D01*
X159508414Y-89009132D01*
X159497931Y-88942918D01*
X159490661Y-88910915D01*
X159471507Y-88846666D01*
X159402665Y-88720324D01*
X159360844Y-88664353D01*
X159360842Y-88664350D01*
X159259199Y-88562524D01*
X158588682Y-88059636D01*
X158462903Y-87965302D01*
X178299500Y-87965302D01*
X178299500Y-88201497D01*
X178336446Y-88434768D01*
X178409433Y-88659396D01*
X178472443Y-88783058D01*
X178516657Y-88869833D01*
X178655483Y-89060910D01*
X178822490Y-89227917D01*
X179013567Y-89366743D01*
X179112991Y-89417402D01*
X179224003Y-89473966D01*
X179224005Y-89473966D01*
X179224008Y-89473968D01*
X179344412Y-89513089D01*
X179448631Y-89546953D01*
X179681903Y-89583900D01*
X179681908Y-89583900D01*
X179918097Y-89583900D01*
X180151368Y-89546953D01*
X180213198Y-89526863D01*
X180375992Y-89473968D01*
X180586433Y-89366743D01*
X180777510Y-89227917D01*
X180944517Y-89060910D01*
X181083343Y-88869833D01*
X181190568Y-88659392D01*
X181263553Y-88434768D01*
X181300500Y-88201497D01*
X181300500Y-87965302D01*
X186499499Y-87965302D01*
X186499499Y-88201497D01*
X186536445Y-88434768D01*
X186609432Y-88659396D01*
X186672442Y-88783058D01*
X186716656Y-88869833D01*
X186855482Y-89060910D01*
X187022489Y-89227917D01*
X187213566Y-89366743D01*
X187312990Y-89417402D01*
X187424002Y-89473966D01*
X187424004Y-89473966D01*
X187424007Y-89473968D01*
X187544411Y-89513089D01*
X187648630Y-89546953D01*
X187881902Y-89583900D01*
X187881907Y-89583900D01*
X188118096Y-89583900D01*
X188351367Y-89546953D01*
X188413197Y-89526863D01*
X188575991Y-89473968D01*
X188786432Y-89366743D01*
X188977509Y-89227917D01*
X189144516Y-89060910D01*
X189283342Y-88869833D01*
X189390567Y-88659392D01*
X189463552Y-88434768D01*
X189500499Y-88201497D01*
X189500499Y-87965302D01*
X189463552Y-87732031D01*
X189390565Y-87507403D01*
X189283341Y-87296966D01*
X189144516Y-87105890D01*
X188977509Y-86938883D01*
X188786432Y-86800057D01*
X188575995Y-86692833D01*
X188351367Y-86619846D01*
X188118096Y-86582900D01*
X188118091Y-86582900D01*
X187881907Y-86582900D01*
X187881902Y-86582900D01*
X187648630Y-86619846D01*
X187424002Y-86692833D01*
X187213565Y-86800057D01*
X187104549Y-86879262D01*
X187022489Y-86938883D01*
X187022487Y-86938885D01*
X187022486Y-86938885D01*
X186855484Y-87105887D01*
X186855484Y-87105888D01*
X186855482Y-87105890D01*
X186847342Y-87117094D01*
X186716656Y-87296966D01*
X186609432Y-87507403D01*
X186536445Y-87732031D01*
X186499499Y-87965302D01*
X181300500Y-87965302D01*
X181263553Y-87732031D01*
X181190566Y-87507403D01*
X181083342Y-87296966D01*
X180944517Y-87105890D01*
X180777510Y-86938883D01*
X180586433Y-86800057D01*
X180375996Y-86692833D01*
X180151368Y-86619846D01*
X179918097Y-86582900D01*
X179918092Y-86582900D01*
X179681908Y-86582900D01*
X179681903Y-86582900D01*
X179448631Y-86619846D01*
X179224003Y-86692833D01*
X179013566Y-86800057D01*
X178904550Y-86879262D01*
X178822490Y-86938883D01*
X178822488Y-86938885D01*
X178822487Y-86938885D01*
X178655485Y-87105887D01*
X178655485Y-87105888D01*
X178655483Y-87105890D01*
X178647343Y-87117094D01*
X178516657Y-87296966D01*
X178409433Y-87507403D01*
X178336446Y-87732031D01*
X178299500Y-87965302D01*
X158462903Y-87965302D01*
X157331963Y-87117097D01*
X157331958Y-87117094D01*
X157207786Y-87048798D01*
X157207780Y-87048795D01*
X157207777Y-87048794D01*
X157176423Y-87036913D01*
X157143397Y-87024399D01*
X157143392Y-87024398D01*
X157005137Y-86993256D01*
X138676617Y-85507160D01*
X138626418Y-85491961D01*
X138622202Y-85489619D01*
X134255560Y-83063706D01*
X134255557Y-83063704D01*
X134255545Y-83063698D01*
X134213594Y-83042874D01*
X134213586Y-83042870D01*
X134192596Y-83033638D01*
X134148928Y-83016798D01*
X134148919Y-83016795D01*
X122705454Y-79202307D01*
X122648079Y-79162433D01*
X122621371Y-79097869D01*
X122633807Y-79029115D01*
X122671781Y-78984351D01*
X122714323Y-78953442D01*
X122853444Y-78814321D01*
X122969095Y-78655143D01*
X123058418Y-78479837D01*
X123119218Y-78292716D01*
X123125984Y-78250000D01*
X122048482Y-78250000D01*
X122059111Y-78231591D01*
X122100000Y-78078991D01*
X122100000Y-77921009D01*
X122059111Y-77768409D01*
X122048482Y-77750000D01*
X123125984Y-77750000D01*
X123119218Y-77707283D01*
X123058417Y-77520160D01*
X122969949Y-77346530D01*
X122957053Y-77277861D01*
X122983330Y-77213121D01*
X123040436Y-77172864D01*
X123097964Y-77167482D01*
X125273730Y-77478305D01*
X125329126Y-77500776D01*
X128687777Y-79943432D01*
X129390315Y-80454369D01*
X129391870Y-80455500D01*
X129391891Y-80455515D01*
X129391890Y-80455515D01*
X130688524Y-81398523D01*
X130688534Y-81398529D01*
X130688545Y-81398537D01*
X130748508Y-81436029D01*
X130779065Y-81452280D01*
X130843672Y-81481038D01*
X130843683Y-81481042D01*
X130843688Y-81481044D01*
X133073556Y-82291905D01*
X133218192Y-82344500D01*
X135216045Y-83070992D01*
X137370331Y-83854368D01*
X137370350Y-83854382D01*
X137370352Y-83854376D01*
X137373442Y-83855500D01*
X137373464Y-83855508D01*
X137373463Y-83855508D01*
X141808575Y-85468276D01*
X141808583Y-85468278D01*
X141808590Y-85468281D01*
X141885871Y-85489618D01*
X141924374Y-85497023D01*
X142004055Y-85505873D01*
X142004067Y-85505873D01*
X142004074Y-85505874D01*
X148900882Y-85721398D01*
X157919801Y-86003240D01*
X158017330Y-85996835D01*
X158064432Y-85989117D01*
X158158921Y-85964056D01*
X158285263Y-85895214D01*
X158341234Y-85853393D01*
X158443063Y-85751748D01*
X159868011Y-83851817D01*
X159913328Y-83779352D01*
X159932407Y-83742182D01*
X159964867Y-83663121D01*
X159988095Y-83521129D01*
X159989447Y-83451272D01*
X159989447Y-83451269D01*
X159971730Y-83308484D01*
X158957203Y-79588549D01*
X164094500Y-79588549D01*
X164094500Y-79811450D01*
X164094501Y-79811466D01*
X164123594Y-80032452D01*
X164123595Y-80032457D01*
X164123596Y-80032463D01*
X164123597Y-80032465D01*
X164181290Y-80247780D01*
X164181293Y-80247790D01*
X164266593Y-80453722D01*
X164266595Y-80453726D01*
X164378052Y-80646774D01*
X164378057Y-80646780D01*
X164378058Y-80646782D01*
X164513751Y-80823622D01*
X164513757Y-80823629D01*
X164671370Y-80981242D01*
X164671376Y-80981247D01*
X164848226Y-81116948D01*
X165041274Y-81228405D01*
X165078199Y-81243699D01*
X165178965Y-81285439D01*
X165233368Y-81329280D01*
X165255433Y-81395574D01*
X165238154Y-81463274D01*
X165187016Y-81510884D01*
X165178965Y-81514561D01*
X165041277Y-81571593D01*
X165041273Y-81571595D01*
X164848226Y-81683052D01*
X164848217Y-81683058D01*
X164671377Y-81818751D01*
X164671370Y-81818757D01*
X164513757Y-81976370D01*
X164513751Y-81976377D01*
X164378058Y-82153217D01*
X164378052Y-82153226D01*
X164266595Y-82346273D01*
X164266593Y-82346277D01*
X164181293Y-82552209D01*
X164181290Y-82552219D01*
X164123597Y-82767534D01*
X164123594Y-82767547D01*
X164094501Y-82988533D01*
X164094500Y-82988549D01*
X164094500Y-83211450D01*
X164094501Y-83211466D01*
X164123594Y-83432452D01*
X164123595Y-83432457D01*
X164123596Y-83432463D01*
X164136251Y-83479691D01*
X164181290Y-83647780D01*
X164181293Y-83647790D01*
X164235784Y-83779342D01*
X164266595Y-83853726D01*
X164378052Y-84046774D01*
X164378057Y-84046780D01*
X164378058Y-84046782D01*
X164513751Y-84223622D01*
X164513757Y-84223629D01*
X164671370Y-84381242D01*
X164671377Y-84381248D01*
X164749103Y-84440889D01*
X164848226Y-84516948D01*
X165041274Y-84628405D01*
X165247219Y-84713710D01*
X165462537Y-84771404D01*
X165683543Y-84800500D01*
X165683550Y-84800500D01*
X165906450Y-84800500D01*
X165906457Y-84800500D01*
X166127463Y-84771404D01*
X166342781Y-84713710D01*
X166548726Y-84628405D01*
X166741774Y-84516948D01*
X166918624Y-84381247D01*
X167076247Y-84223624D01*
X167211948Y-84046774D01*
X167323405Y-83853726D01*
X167408710Y-83647781D01*
X167466404Y-83432463D01*
X167495500Y-83211457D01*
X167495500Y-82988543D01*
X167466404Y-82767537D01*
X167408710Y-82552219D01*
X167323405Y-82346274D01*
X167211948Y-82153226D01*
X167076247Y-81976376D01*
X167076242Y-81976370D01*
X166918629Y-81818757D01*
X166918622Y-81818751D01*
X166741782Y-81683058D01*
X166741780Y-81683057D01*
X166741774Y-81683052D01*
X166548726Y-81571595D01*
X166548722Y-81571593D01*
X166411034Y-81514561D01*
X166356631Y-81470720D01*
X166334566Y-81404426D01*
X166351845Y-81336727D01*
X166402982Y-81289116D01*
X166411034Y-81285439D01*
X166448768Y-81269808D01*
X166548726Y-81228405D01*
X166741774Y-81116948D01*
X166918624Y-80981247D01*
X167076247Y-80823624D01*
X167211948Y-80646774D01*
X167323405Y-80453726D01*
X167408710Y-80247781D01*
X167466404Y-80032463D01*
X167495500Y-79811457D01*
X167495500Y-79588543D01*
X167466404Y-79367537D01*
X167408710Y-79152219D01*
X167323405Y-78946274D01*
X167211948Y-78753226D01*
X167076247Y-78576376D01*
X167076242Y-78576370D01*
X166918629Y-78418757D01*
X166918622Y-78418751D01*
X166741782Y-78283058D01*
X166741780Y-78283057D01*
X166741774Y-78283052D01*
X166548726Y-78171595D01*
X166548722Y-78171593D01*
X166342790Y-78086293D01*
X166342783Y-78086291D01*
X166342781Y-78086290D01*
X166127463Y-78028596D01*
X166127457Y-78028595D01*
X166127452Y-78028594D01*
X165906466Y-77999501D01*
X165906463Y-77999500D01*
X165906457Y-77999500D01*
X165683543Y-77999500D01*
X165683537Y-77999500D01*
X165683533Y-77999501D01*
X165462547Y-78028594D01*
X165462540Y-78028595D01*
X165462537Y-78028596D01*
X165274459Y-78078991D01*
X165247219Y-78086290D01*
X165247209Y-78086293D01*
X165041277Y-78171593D01*
X165041273Y-78171595D01*
X164848226Y-78283052D01*
X164848217Y-78283058D01*
X164671377Y-78418751D01*
X164671370Y-78418757D01*
X164513757Y-78576370D01*
X164513751Y-78576377D01*
X164378058Y-78753217D01*
X164378052Y-78753226D01*
X164266595Y-78946273D01*
X164266593Y-78946277D01*
X164181293Y-79152209D01*
X164181290Y-79152219D01*
X164123597Y-79367534D01*
X164123594Y-79367547D01*
X164094501Y-79588533D01*
X164094500Y-79588549D01*
X158957203Y-79588549D01*
X158511998Y-77956132D01*
X158501630Y-77922717D01*
X158495987Y-77906532D01*
X158493117Y-77899134D01*
X158483357Y-77873972D01*
X158483355Y-77873970D01*
X158483354Y-77873965D01*
X158444982Y-77811011D01*
X158408470Y-77751107D01*
X158408469Y-77751106D01*
X158363987Y-77697231D01*
X158257527Y-77600450D01*
X158257524Y-77600448D01*
X158128112Y-77537582D01*
X158128105Y-77537580D01*
X158123654Y-77536157D01*
X158062253Y-77516528D01*
X158061607Y-77516317D01*
X158061555Y-77516304D01*
X157919671Y-77492444D01*
X157919668Y-77492443D01*
X157919664Y-77492443D01*
X157597976Y-77484784D01*
X156954611Y-77469466D01*
X156954608Y-77469466D01*
X156954601Y-77469466D01*
X156919003Y-77471799D01*
X156864677Y-77475359D01*
X156821169Y-77482144D01*
X156733731Y-77503908D01*
X156733724Y-77503911D01*
X156605845Y-77569838D01*
X156548924Y-77610372D01*
X156444800Y-77709654D01*
X156444796Y-77709659D01*
X156372857Y-77834260D01*
X156372856Y-77834263D01*
X156349606Y-77892337D01*
X156349599Y-77892358D01*
X156346890Y-77899127D01*
X156346887Y-77899134D01*
X156343570Y-77912805D01*
X156342707Y-77915734D01*
X156325357Y-77942659D01*
X156309337Y-77970405D01*
X156306556Y-77971838D01*
X156304863Y-77974467D01*
X156275706Y-77987741D01*
X156247234Y-78002419D01*
X156243205Y-78002538D01*
X156241274Y-78003418D01*
X156236570Y-78002736D01*
X156207586Y-78003598D01*
X156176467Y-77999501D01*
X156176462Y-77999500D01*
X156176457Y-77999500D01*
X155985155Y-77999500D01*
X155918116Y-77979815D01*
X155872361Y-77927011D01*
X155865381Y-77907595D01*
X155848043Y-77842893D01*
X155839500Y-77811011D01*
X155764614Y-77688155D01*
X155720128Y-77634277D01*
X155613675Y-77537503D01*
X155538074Y-77500776D01*
X155484263Y-77474634D01*
X155484251Y-77474629D01*
X155417724Y-77453361D01*
X155417716Y-77453359D01*
X155417709Y-77453357D01*
X155417708Y-77453357D01*
X155417700Y-77453355D01*
X155417698Y-77453354D01*
X155417692Y-77453353D01*
X155275819Y-77429495D01*
X155275816Y-77429494D01*
X155275812Y-77429494D01*
X150228656Y-77309323D01*
X137164550Y-76998274D01*
X137108124Y-76983168D01*
X131755971Y-74063812D01*
X131697740Y-74036699D01*
X131668439Y-74025261D01*
X131668426Y-74025256D01*
X131607205Y-74005743D01*
X123637403Y-72013293D01*
X123576567Y-72001989D01*
X123576570Y-72001989D01*
X123546495Y-71998287D01*
X123546483Y-71998286D01*
X123484749Y-71994500D01*
X123484734Y-71994500D01*
X122965901Y-71994500D01*
X122898862Y-71974815D01*
X122853107Y-71922011D01*
X122843163Y-71852853D01*
X122865583Y-71797614D01*
X122969095Y-71655143D01*
X123058418Y-71479837D01*
X123119218Y-71292716D01*
X123125984Y-71250000D01*
X122048482Y-71250000D01*
X122059111Y-71231591D01*
X122100000Y-71078991D01*
X122100000Y-70921009D01*
X122059111Y-70768409D01*
X122048482Y-70750000D01*
X123125984Y-70750000D01*
X123119218Y-70707283D01*
X123058418Y-70520162D01*
X122969095Y-70344856D01*
X122853444Y-70185678D01*
X122778316Y-70110550D01*
X122744831Y-70049227D01*
X122749815Y-69979535D01*
X122791687Y-69923602D01*
X122857151Y-69899185D01*
X122873064Y-69899071D01*
X132746622Y-70463274D01*
X133423802Y-70501970D01*
X133442273Y-70504428D01*
X136524023Y-71153217D01*
X137432618Y-71344500D01*
X140883456Y-72070992D01*
X142893880Y-72494238D01*
X142894366Y-72494342D01*
X144550486Y-72854369D01*
X144555672Y-72855496D01*
X144555687Y-72855504D01*
X144555689Y-72855500D01*
X154370820Y-74989224D01*
X154400305Y-74992931D01*
X154459954Y-75000431D01*
X154459960Y-75000431D01*
X154459966Y-75000432D01*
X154503843Y-75002016D01*
X154593568Y-74997264D01*
X157998726Y-74510813D01*
X157998732Y-74510811D01*
X157998735Y-74510811D01*
X158036737Y-74500430D01*
X158120060Y-74477673D01*
X158176658Y-74454318D01*
X158286053Y-74392249D01*
X158387972Y-74290691D01*
X158429943Y-74234831D01*
X158429943Y-74234830D01*
X158432544Y-74231369D01*
X158435301Y-74225058D01*
X158499121Y-74108672D01*
X159954328Y-70228122D01*
X159972834Y-70167434D01*
X159980013Y-70137206D01*
X159990773Y-70074660D01*
X159985701Y-69930869D01*
X159985701Y-69930866D01*
X159973326Y-69862105D01*
X159973326Y-69862103D01*
X159958245Y-69816728D01*
X159927951Y-69725570D01*
X159359441Y-68588549D01*
X164094500Y-68588549D01*
X164094500Y-68811450D01*
X164094501Y-68811466D01*
X164123594Y-69032452D01*
X164123595Y-69032457D01*
X164123596Y-69032463D01*
X164167272Y-69195463D01*
X164181290Y-69247780D01*
X164181293Y-69247790D01*
X164225718Y-69355041D01*
X164266595Y-69453726D01*
X164378052Y-69646774D01*
X164378057Y-69646780D01*
X164378058Y-69646782D01*
X164513751Y-69823622D01*
X164513757Y-69823629D01*
X164671370Y-69981242D01*
X164671377Y-69981248D01*
X164756489Y-70046556D01*
X164848226Y-70116948D01*
X165041274Y-70228405D01*
X165078199Y-70243699D01*
X165178965Y-70285439D01*
X165233368Y-70329280D01*
X165255433Y-70395574D01*
X165238154Y-70463274D01*
X165187016Y-70510884D01*
X165178965Y-70514561D01*
X165041277Y-70571593D01*
X165041273Y-70571595D01*
X164848226Y-70683052D01*
X164848217Y-70683058D01*
X164671377Y-70818751D01*
X164671370Y-70818757D01*
X164513757Y-70976370D01*
X164513751Y-70976377D01*
X164378058Y-71153217D01*
X164378052Y-71153226D01*
X164266595Y-71346273D01*
X164266593Y-71346277D01*
X164181293Y-71552209D01*
X164181290Y-71552219D01*
X164123597Y-71767534D01*
X164123594Y-71767547D01*
X164094501Y-71988533D01*
X164094500Y-71988549D01*
X164094500Y-72211450D01*
X164094501Y-72211466D01*
X164123594Y-72432452D01*
X164123595Y-72432457D01*
X164123596Y-72432463D01*
X164181290Y-72647780D01*
X164181293Y-72647790D01*
X164266593Y-72853722D01*
X164266595Y-72853726D01*
X164378052Y-73046774D01*
X164378057Y-73046780D01*
X164378058Y-73046782D01*
X164513751Y-73223622D01*
X164513757Y-73223629D01*
X164671370Y-73381242D01*
X164671376Y-73381247D01*
X164848226Y-73516948D01*
X165041274Y-73628405D01*
X165247219Y-73713710D01*
X165462537Y-73771404D01*
X165683543Y-73800500D01*
X165683550Y-73800500D01*
X165906450Y-73800500D01*
X165906457Y-73800500D01*
X166127463Y-73771404D01*
X166342781Y-73713710D01*
X166548726Y-73628405D01*
X166741774Y-73516948D01*
X166918624Y-73381247D01*
X167076247Y-73223624D01*
X167211948Y-73046774D01*
X167323405Y-72853726D01*
X167408710Y-72647781D01*
X167466404Y-72432463D01*
X167495500Y-72211457D01*
X167495500Y-71988543D01*
X167466404Y-71767537D01*
X167408710Y-71552219D01*
X167323405Y-71346274D01*
X167211948Y-71153226D01*
X167076247Y-70976376D01*
X167076242Y-70976370D01*
X166918629Y-70818757D01*
X166918622Y-70818751D01*
X166741782Y-70683058D01*
X166741780Y-70683057D01*
X166741774Y-70683052D01*
X166548726Y-70571595D01*
X166548722Y-70571593D01*
X166411034Y-70514561D01*
X166356631Y-70470720D01*
X166334566Y-70404426D01*
X166351845Y-70336727D01*
X166402982Y-70289116D01*
X166411034Y-70285439D01*
X166448768Y-70269808D01*
X166548726Y-70228405D01*
X166741774Y-70116948D01*
X166743626Y-70115527D01*
X174765188Y-70115527D01*
X174765188Y-75459823D01*
X174767534Y-75507832D01*
X174767534Y-75507836D01*
X174767597Y-75509110D01*
X174768138Y-75514636D01*
X174768138Y-75514637D01*
X174772330Y-75557427D01*
X174772762Y-75561652D01*
X174778006Y-75582289D01*
X174785916Y-75613419D01*
X174786478Y-75616643D01*
X174793858Y-75653742D01*
X174807233Y-75706144D01*
X174807234Y-75706149D01*
X174828064Y-75749687D01*
X174830814Y-75755863D01*
X174845288Y-75790907D01*
X174845289Y-75790908D01*
X174845290Y-75790910D01*
X174846460Y-75793104D01*
X174891906Y-75878341D01*
X176442831Y-78204729D01*
X176442845Y-78204749D01*
X176472509Y-78244811D01*
X176472512Y-78244815D01*
X176503526Y-78282646D01*
X176503619Y-78282759D01*
X176506669Y-78286444D01*
X176506671Y-78286446D01*
X176506673Y-78286448D01*
X176577616Y-78350172D01*
X176613708Y-78382591D01*
X176667826Y-78418751D01*
X176694485Y-78436564D01*
X176694490Y-78436567D01*
X176741017Y-78464173D01*
X176741019Y-78464174D01*
X176741021Y-78464174D01*
X176741025Y-78464177D01*
X176876710Y-78512044D01*
X176971998Y-78530998D01*
X177070616Y-78540711D01*
X177070618Y-78540711D01*
X181970760Y-78540711D01*
X181970781Y-78540710D01*
X182020546Y-78538252D01*
X182020546Y-78538251D01*
X182020566Y-78538251D01*
X182069399Y-78533416D01*
X182074158Y-78532922D01*
X182213531Y-78497193D01*
X182303251Y-78459919D01*
X182352035Y-78436516D01*
X182467127Y-78350172D01*
X182535755Y-78281401D01*
X182598542Y-78204732D01*
X184149470Y-75878340D01*
X184174806Y-75835994D01*
X184197671Y-75793162D01*
X184199654Y-75789410D01*
X184247521Y-75653725D01*
X184266475Y-75558437D01*
X184275648Y-75465302D01*
X186499499Y-75465302D01*
X186499499Y-75701497D01*
X186536445Y-75934768D01*
X186609432Y-76159396D01*
X186665364Y-76269167D01*
X186716656Y-76369833D01*
X186855482Y-76560910D01*
X187022489Y-76727917D01*
X187213566Y-76866743D01*
X187312990Y-76917402D01*
X187424002Y-76973966D01*
X187424004Y-76973966D01*
X187424007Y-76973968D01*
X187498813Y-76998274D01*
X187648630Y-77046953D01*
X187881902Y-77083900D01*
X187881907Y-77083900D01*
X188118096Y-77083900D01*
X188351367Y-77046953D01*
X188352598Y-77046553D01*
X188575991Y-76973968D01*
X188786432Y-76866743D01*
X188977509Y-76727917D01*
X189144516Y-76560910D01*
X189283342Y-76369833D01*
X189390567Y-76159392D01*
X189463552Y-75934768D01*
X189500499Y-75701497D01*
X189500499Y-75465302D01*
X189463552Y-75232031D01*
X189390565Y-75007403D01*
X189283341Y-74796966D01*
X189144516Y-74605890D01*
X188977509Y-74438883D01*
X188786432Y-74300057D01*
X188731379Y-74272006D01*
X188575995Y-74192833D01*
X188351367Y-74119846D01*
X188118096Y-74082900D01*
X188118091Y-74082900D01*
X187881907Y-74082900D01*
X187881902Y-74082900D01*
X187648630Y-74119846D01*
X187424002Y-74192833D01*
X187213565Y-74300057D01*
X187104549Y-74379262D01*
X187022489Y-74438883D01*
X187022487Y-74438885D01*
X187022486Y-74438885D01*
X186855484Y-74605887D01*
X186855484Y-74605888D01*
X186855482Y-74605890D01*
X186795861Y-74687950D01*
X186716656Y-74796966D01*
X186609432Y-75007403D01*
X186536445Y-75232031D01*
X186499499Y-75465302D01*
X184275648Y-75465302D01*
X184276188Y-75459819D01*
X184276188Y-71713322D01*
X184295873Y-71646283D01*
X184301734Y-71637938D01*
X190352848Y-63735018D01*
X190385142Y-63687464D01*
X190414193Y-63638965D01*
X190420427Y-63628264D01*
X190439693Y-63578942D01*
X190472772Y-63494257D01*
X190472773Y-63494252D01*
X190472776Y-63494245D01*
X190494886Y-63399639D01*
X190507871Y-63301393D01*
X190707043Y-57309251D01*
X190707252Y-57300854D01*
X190707389Y-57292607D01*
X190697746Y-57185593D01*
X190678792Y-57090305D01*
X190665410Y-57037876D01*
X190603315Y-56908085D01*
X190549339Y-56827303D01*
X190516906Y-56783978D01*
X190409867Y-56687831D01*
X190356554Y-56652209D01*
X190329089Y-56633857D01*
X190329084Y-56633854D01*
X190282557Y-56606248D01*
X190282555Y-56606247D01*
X190282550Y-56606245D01*
X190222169Y-56584944D01*
X190146863Y-56558377D01*
X190051575Y-56539423D01*
X189969651Y-56531355D01*
X189952959Y-56529711D01*
X184758234Y-56529711D01*
X184758230Y-56529711D01*
X184717506Y-56531354D01*
X184717494Y-56531354D01*
X184717493Y-56531355D01*
X184707886Y-56532131D01*
X184677483Y-56534590D01*
X184677477Y-56534591D01*
X184541231Y-56564945D01*
X184541220Y-56564948D01*
X184450229Y-56598962D01*
X184400628Y-56620594D01*
X184400616Y-56620601D01*
X184282502Y-56702735D01*
X184211444Y-56768988D01*
X184145938Y-56843343D01*
X184145930Y-56843353D01*
X182727273Y-58813710D01*
X182561104Y-59044500D01*
X182409808Y-59254634D01*
X182038030Y-59770992D01*
X181473999Y-60554369D01*
X181473185Y-60555500D01*
X180113105Y-62444500D01*
X179590031Y-63170992D01*
X179174859Y-63747620D01*
X179025992Y-63954379D01*
X179025190Y-63955493D01*
X179025185Y-63955500D01*
X174907388Y-69674661D01*
X174907386Y-69674664D01*
X174876043Y-69723975D01*
X174876034Y-69723990D01*
X174848089Y-69774142D01*
X174841722Y-69785932D01*
X174793854Y-69921620D01*
X174793854Y-69921621D01*
X174774900Y-70016908D01*
X174774900Y-70016909D01*
X174765188Y-70115527D01*
X166743626Y-70115527D01*
X166833511Y-70046556D01*
X166875803Y-70014105D01*
X166896045Y-69998571D01*
X166918624Y-69981247D01*
X167076247Y-69823624D01*
X167211948Y-69646774D01*
X167323405Y-69453726D01*
X167408710Y-69247781D01*
X167466404Y-69032463D01*
X167495500Y-68811457D01*
X167495500Y-68588543D01*
X167466404Y-68367537D01*
X167408710Y-68152219D01*
X167323405Y-67946274D01*
X167211948Y-67753226D01*
X167076247Y-67576376D01*
X167076242Y-67576370D01*
X166918629Y-67418757D01*
X166918622Y-67418751D01*
X166741782Y-67283058D01*
X166741780Y-67283057D01*
X166741774Y-67283052D01*
X166548726Y-67171595D01*
X166548722Y-67171593D01*
X166342790Y-67086293D01*
X166342783Y-67086291D01*
X166342781Y-67086290D01*
X166127463Y-67028596D01*
X166127457Y-67028595D01*
X166127452Y-67028594D01*
X165906466Y-66999501D01*
X165906463Y-66999500D01*
X165906457Y-66999500D01*
X165683543Y-66999500D01*
X165683537Y-66999500D01*
X165683533Y-66999501D01*
X165462547Y-67028594D01*
X165462540Y-67028595D01*
X165462537Y-67028596D01*
X165247219Y-67086290D01*
X165247209Y-67086293D01*
X165041277Y-67171593D01*
X165041273Y-67171595D01*
X164848226Y-67283052D01*
X164848217Y-67283058D01*
X164671377Y-67418751D01*
X164671370Y-67418757D01*
X164513757Y-67576370D01*
X164513751Y-67576377D01*
X164378058Y-67753217D01*
X164378052Y-67753226D01*
X164266595Y-67946273D01*
X164266593Y-67946277D01*
X164181293Y-68152209D01*
X164181290Y-68152219D01*
X164124305Y-68364893D01*
X164123597Y-68367534D01*
X164123594Y-68367547D01*
X164094501Y-68588533D01*
X164094500Y-68588549D01*
X159359441Y-68588549D01*
X157486861Y-64843389D01*
X157472781Y-64822833D01*
X157408873Y-64729534D01*
X157398850Y-64718502D01*
X157363779Y-64679898D01*
X157363775Y-64679894D01*
X157363772Y-64679891D01*
X157257894Y-64591366D01*
X157257891Y-64591364D01*
X157257890Y-64591364D01*
X157126315Y-64533138D01*
X157059061Y-64514248D01*
X157059056Y-64514247D01*
X157059055Y-64514247D01*
X157004815Y-64507098D01*
X156916406Y-64495447D01*
X123040380Y-64893989D01*
X122973113Y-64875095D01*
X122926740Y-64822833D01*
X122915984Y-64753796D01*
X122938604Y-64697112D01*
X122969093Y-64655147D01*
X123058418Y-64479837D01*
X123119218Y-64292716D01*
X123125984Y-64250000D01*
X122048482Y-64250000D01*
X122059111Y-64231591D01*
X122100000Y-64078991D01*
X122100000Y-63921009D01*
X122059111Y-63768409D01*
X122048482Y-63750000D01*
X123125984Y-63750000D01*
X123119218Y-63707283D01*
X123058418Y-63520162D01*
X122969095Y-63344856D01*
X122865583Y-63202386D01*
X122842103Y-63136580D01*
X122857928Y-63068526D01*
X122908033Y-63019831D01*
X122965901Y-63005500D01*
X127987721Y-63005500D01*
X127987722Y-63005500D01*
X127987727Y-63005499D01*
X127987745Y-63005499D01*
X128012628Y-63004270D01*
X128037534Y-63003040D01*
X128061852Y-63000632D01*
X128111177Y-62993276D01*
X130538017Y-62507908D01*
X130562335Y-62505500D01*
X141479056Y-62505500D01*
X141487303Y-62505774D01*
X156401755Y-63500072D01*
X156500482Y-63496982D01*
X156530220Y-63493119D01*
X156548287Y-63490774D01*
X156548295Y-63490772D01*
X156548307Y-63490771D01*
X156644543Y-63468543D01*
X156772975Y-63403683D01*
X156830226Y-63363631D01*
X156830229Y-63363629D01*
X156935185Y-63265213D01*
X157506648Y-62550885D01*
X157534703Y-62505500D01*
X157570854Y-62447017D01*
X157570854Y-62447014D01*
X157570858Y-62447010D01*
X157595789Y-62393016D01*
X157633214Y-62276778D01*
X157640061Y-62133060D01*
X157633420Y-62063506D01*
X157633420Y-62063499D01*
X157606038Y-61950635D01*
X157605829Y-61949709D01*
X157607963Y-61915742D01*
X157609583Y-61881749D01*
X157610149Y-61880953D01*
X157610211Y-61879977D01*
X157630370Y-61852556D01*
X157650111Y-61824835D01*
X157651019Y-61824471D01*
X157651598Y-61823684D01*
X157683389Y-61811512D01*
X157714976Y-61798867D01*
X157716402Y-61798872D01*
X157716849Y-61798702D01*
X157717694Y-61798878D01*
X157739574Y-61798968D01*
X157787910Y-61803991D01*
X157833576Y-61802196D01*
X157857713Y-61801249D01*
X157857714Y-61801249D01*
X157857717Y-61801248D01*
X157857725Y-61801248D01*
X157999217Y-61775200D01*
X158127649Y-61710340D01*
X158183780Y-61671071D01*
X158184738Y-61670416D01*
X158184900Y-61670288D01*
X158184903Y-61670286D01*
X158289859Y-61571869D01*
X158872282Y-60843840D01*
X158944573Y-60721506D01*
X158970987Y-60657738D01*
X159006375Y-60520112D01*
X159387660Y-57088549D01*
X164094500Y-57088549D01*
X164094500Y-57311450D01*
X164094501Y-57311466D01*
X164123594Y-57532452D01*
X164123595Y-57532457D01*
X164123596Y-57532463D01*
X164156468Y-57655143D01*
X164181290Y-57747780D01*
X164181293Y-57747790D01*
X164266478Y-57953444D01*
X164266595Y-57953726D01*
X164378052Y-58146774D01*
X164378057Y-58146780D01*
X164378058Y-58146782D01*
X164513751Y-58323622D01*
X164513757Y-58323629D01*
X164671370Y-58481242D01*
X164671377Y-58481248D01*
X164797294Y-58577867D01*
X164848226Y-58616948D01*
X165041274Y-58728405D01*
X165078199Y-58743699D01*
X165178965Y-58785439D01*
X165233368Y-58829280D01*
X165255433Y-58895574D01*
X165238154Y-58963274D01*
X165187016Y-59010884D01*
X165178965Y-59014561D01*
X165041277Y-59071593D01*
X165041273Y-59071595D01*
X164848226Y-59183052D01*
X164848217Y-59183058D01*
X164671377Y-59318751D01*
X164671370Y-59318757D01*
X164513757Y-59476370D01*
X164513751Y-59476377D01*
X164378058Y-59653217D01*
X164378052Y-59653226D01*
X164266595Y-59846273D01*
X164266593Y-59846277D01*
X164181293Y-60052209D01*
X164181290Y-60052219D01*
X164123597Y-60267534D01*
X164123594Y-60267547D01*
X164094501Y-60488533D01*
X164094500Y-60488549D01*
X164094500Y-60711450D01*
X164094501Y-60711466D01*
X164123594Y-60932452D01*
X164123595Y-60932457D01*
X164123596Y-60932463D01*
X164178791Y-61138453D01*
X164181290Y-61147780D01*
X164181293Y-61147790D01*
X164266593Y-61353722D01*
X164266595Y-61353726D01*
X164378052Y-61546774D01*
X164378057Y-61546780D01*
X164378058Y-61546782D01*
X164513751Y-61723622D01*
X164513757Y-61723629D01*
X164671370Y-61881242D01*
X164671376Y-61881247D01*
X164848226Y-62016948D01*
X165041274Y-62128405D01*
X165247219Y-62213710D01*
X165462537Y-62271404D01*
X165683543Y-62300500D01*
X165683550Y-62300500D01*
X165906450Y-62300500D01*
X165906457Y-62300500D01*
X166127463Y-62271404D01*
X166342781Y-62213710D01*
X166548726Y-62128405D01*
X166741774Y-62016948D01*
X166918624Y-61881247D01*
X167076247Y-61723624D01*
X167211948Y-61546774D01*
X167323405Y-61353726D01*
X167408710Y-61147781D01*
X167466404Y-60932463D01*
X167495500Y-60711457D01*
X167495500Y-60488543D01*
X167466404Y-60267537D01*
X167408710Y-60052219D01*
X167323405Y-59846274D01*
X167323403Y-59846271D01*
X167323401Y-59846266D01*
X167211953Y-59653234D01*
X167211950Y-59653231D01*
X167211948Y-59653226D01*
X167132740Y-59549999D01*
X175453244Y-59549999D01*
X175453245Y-59550000D01*
X176372639Y-59550000D01*
X176365743Y-59566649D01*
X176335000Y-59721207D01*
X176335000Y-59878793D01*
X176365743Y-60033351D01*
X176372639Y-60050000D01*
X175453244Y-60050000D01*
X175464087Y-60132367D01*
X175521764Y-60347620D01*
X175607045Y-60553502D01*
X175607054Y-60553520D01*
X175718464Y-60746491D01*
X175718466Y-60746495D01*
X175854130Y-60923293D01*
X175854138Y-60923302D01*
X176011698Y-61080862D01*
X176011706Y-61080869D01*
X176188504Y-61216533D01*
X176188508Y-61216535D01*
X176381479Y-61327945D01*
X176381492Y-61327952D01*
X176520274Y-61385439D01*
X176574677Y-61429281D01*
X176596741Y-61495575D01*
X176579461Y-61563274D01*
X176528324Y-61610884D01*
X176520274Y-61614561D01*
X176381492Y-61672047D01*
X176381479Y-61672054D01*
X176188508Y-61783464D01*
X176188504Y-61783466D01*
X176011706Y-61919130D01*
X175854130Y-62076706D01*
X175718466Y-62253504D01*
X175718464Y-62253508D01*
X175607054Y-62446479D01*
X175607045Y-62446497D01*
X175521764Y-62652379D01*
X175464087Y-62867632D01*
X175453244Y-62949999D01*
X175453245Y-62950000D01*
X176372639Y-62950000D01*
X176365743Y-62966649D01*
X176335000Y-63121207D01*
X176335000Y-63278793D01*
X176365743Y-63433351D01*
X176372639Y-63450000D01*
X175453244Y-63450000D01*
X175464087Y-63532367D01*
X175521764Y-63747620D01*
X175607045Y-63953502D01*
X175607054Y-63953520D01*
X175718464Y-64146491D01*
X175718466Y-64146495D01*
X175854130Y-64323293D01*
X175854138Y-64323302D01*
X176011698Y-64480862D01*
X176011706Y-64480869D01*
X176188504Y-64616533D01*
X176188508Y-64616535D01*
X176381479Y-64727945D01*
X176381497Y-64727954D01*
X176587379Y-64813235D01*
X176802632Y-64870912D01*
X176884999Y-64881755D01*
X176885000Y-64881755D01*
X176885000Y-63962360D01*
X176901649Y-63969257D01*
X177056207Y-64000000D01*
X177213793Y-64000000D01*
X177368351Y-63969257D01*
X177385000Y-63962360D01*
X177385000Y-64881755D01*
X177467367Y-64870912D01*
X177682620Y-64813235D01*
X177888502Y-64727954D01*
X177888520Y-64727945D01*
X178081491Y-64616535D01*
X178081495Y-64616533D01*
X178258293Y-64480869D01*
X178258302Y-64480862D01*
X178415862Y-64323302D01*
X178415869Y-64323293D01*
X178551533Y-64146495D01*
X178551535Y-64146491D01*
X178662945Y-63953520D01*
X178662954Y-63953502D01*
X178748235Y-63747620D01*
X178805912Y-63532367D01*
X178816756Y-63450000D01*
X177897361Y-63450000D01*
X177904257Y-63433351D01*
X177935000Y-63278793D01*
X177935000Y-63121207D01*
X177904257Y-62966649D01*
X177897361Y-62950000D01*
X178816755Y-62950000D01*
X178816755Y-62949999D01*
X178805912Y-62867632D01*
X178748235Y-62652379D01*
X178662954Y-62446497D01*
X178662945Y-62446479D01*
X178551535Y-62253508D01*
X178551533Y-62253504D01*
X178415869Y-62076706D01*
X178415862Y-62076698D01*
X178258302Y-61919138D01*
X178258293Y-61919130D01*
X178081495Y-61783466D01*
X178081491Y-61783464D01*
X177888520Y-61672054D01*
X177888502Y-61672045D01*
X177749726Y-61614561D01*
X177695322Y-61570719D01*
X177673258Y-61504425D01*
X177690538Y-61436726D01*
X177741675Y-61389116D01*
X177749726Y-61385439D01*
X177888502Y-61327954D01*
X177888520Y-61327945D01*
X178081491Y-61216535D01*
X178081495Y-61216533D01*
X178258293Y-61080869D01*
X178258302Y-61080862D01*
X178415862Y-60923302D01*
X178415869Y-60923293D01*
X178551533Y-60746495D01*
X178551535Y-60746491D01*
X178662945Y-60553520D01*
X178662954Y-60553502D01*
X178748235Y-60347620D01*
X178805912Y-60132367D01*
X178816756Y-60050000D01*
X177897361Y-60050000D01*
X177904257Y-60033351D01*
X177935000Y-59878793D01*
X177935000Y-59721207D01*
X177904257Y-59566649D01*
X177897361Y-59550000D01*
X178816755Y-59550000D01*
X178816755Y-59549999D01*
X178805912Y-59467632D01*
X178748235Y-59252379D01*
X178662954Y-59046497D01*
X178662945Y-59046479D01*
X178551535Y-58853508D01*
X178551533Y-58853504D01*
X178415869Y-58676706D01*
X178415862Y-58676698D01*
X178258302Y-58519138D01*
X178258293Y-58519130D01*
X178081495Y-58383466D01*
X178081491Y-58383464D01*
X177888520Y-58272054D01*
X177888502Y-58272045D01*
X177682618Y-58186763D01*
X177467363Y-58129087D01*
X177385000Y-58118242D01*
X177385000Y-59037639D01*
X177368351Y-59030743D01*
X177213793Y-59000000D01*
X177056207Y-59000000D01*
X176901649Y-59030743D01*
X176885000Y-59037639D01*
X176885000Y-58118242D01*
X176884999Y-58118242D01*
X176802636Y-58129087D01*
X176587381Y-58186763D01*
X176381497Y-58272045D01*
X176381479Y-58272054D01*
X176188508Y-58383464D01*
X176188504Y-58383466D01*
X176011706Y-58519130D01*
X175854130Y-58676706D01*
X175718466Y-58853504D01*
X175718464Y-58853508D01*
X175607054Y-59046479D01*
X175607045Y-59046497D01*
X175521764Y-59252379D01*
X175464087Y-59467632D01*
X175453244Y-59549999D01*
X167132740Y-59549999D01*
X167076247Y-59476376D01*
X167076242Y-59476370D01*
X166918629Y-59318757D01*
X166918622Y-59318751D01*
X166741782Y-59183058D01*
X166741780Y-59183057D01*
X166741774Y-59183052D01*
X166548726Y-59071595D01*
X166548722Y-59071593D01*
X166411034Y-59014561D01*
X166356631Y-58970720D01*
X166334566Y-58904426D01*
X166351845Y-58836727D01*
X166402982Y-58789116D01*
X166411034Y-58785439D01*
X166448768Y-58769808D01*
X166548726Y-58728405D01*
X166741774Y-58616948D01*
X166918624Y-58481247D01*
X167076247Y-58323624D01*
X167211948Y-58146774D01*
X167323405Y-57953726D01*
X167408710Y-57747781D01*
X167466404Y-57532463D01*
X167495500Y-57311457D01*
X167495500Y-57088543D01*
X167466404Y-56867537D01*
X167408710Y-56652219D01*
X167401103Y-56633855D01*
X167323406Y-56446277D01*
X167323405Y-56446274D01*
X167211948Y-56253226D01*
X167076247Y-56076376D01*
X167076242Y-56076370D01*
X166918629Y-55918757D01*
X166918622Y-55918751D01*
X166741782Y-55783058D01*
X166741780Y-55783057D01*
X166741774Y-55783052D01*
X166548726Y-55671595D01*
X166548722Y-55671593D01*
X166342790Y-55586293D01*
X166342783Y-55586291D01*
X166342781Y-55586290D01*
X166127463Y-55528596D01*
X166127457Y-55528595D01*
X166127452Y-55528594D01*
X165906466Y-55499501D01*
X165906463Y-55499500D01*
X165906457Y-55499500D01*
X165683543Y-55499500D01*
X165683537Y-55499500D01*
X165683533Y-55499501D01*
X165462547Y-55528594D01*
X165462540Y-55528595D01*
X165462537Y-55528596D01*
X165278199Y-55577989D01*
X165247219Y-55586290D01*
X165247209Y-55586293D01*
X165041277Y-55671593D01*
X165041273Y-55671595D01*
X164848226Y-55783052D01*
X164848217Y-55783058D01*
X164671377Y-55918751D01*
X164671370Y-55918757D01*
X164513757Y-56076370D01*
X164513751Y-56076377D01*
X164378058Y-56253217D01*
X164378052Y-56253226D01*
X164266595Y-56446273D01*
X164266593Y-56446277D01*
X164181293Y-56652209D01*
X164181290Y-56652219D01*
X164145985Y-56783982D01*
X164123597Y-56867534D01*
X164123594Y-56867547D01*
X164094501Y-57088533D01*
X164094500Y-57088549D01*
X159387660Y-57088549D01*
X159490219Y-56165523D01*
X159492788Y-56086721D01*
X159491035Y-56048198D01*
X159490779Y-56046139D01*
X159481322Y-55969962D01*
X159481320Y-55969953D01*
X159445499Y-55870090D01*
X159432742Y-55834526D01*
X159400032Y-55772785D01*
X159315267Y-55656527D01*
X159315266Y-55656526D01*
X159315265Y-55656525D01*
X159201180Y-55568857D01*
X159201177Y-55568855D01*
X159140307Y-55534615D01*
X159140284Y-55534602D01*
X159140272Y-55534597D01*
X159006117Y-55482625D01*
X159006115Y-55482624D01*
X157229847Y-55072715D01*
X157179204Y-55066634D01*
X157122344Y-55059807D01*
X157069551Y-55059162D01*
X157069550Y-55059162D01*
X157069543Y-55059162D01*
X157069539Y-55059162D01*
X156961818Y-55069430D01*
X156961810Y-55069432D01*
X156826417Y-55118103D01*
X156826414Y-55118105D01*
X156764701Y-55150854D01*
X156764695Y-55150858D01*
X156648499Y-55235701D01*
X156648497Y-55235703D01*
X156633272Y-55255545D01*
X156576844Y-55296747D01*
X156507098Y-55300900D01*
X156446178Y-55266687D01*
X156418180Y-55221924D01*
X156400015Y-55171285D01*
X156385695Y-55131361D01*
X156352985Y-55069620D01*
X156268222Y-54953364D01*
X156154137Y-54865694D01*
X156093242Y-54831439D01*
X156093237Y-54831437D01*
X155959072Y-54779461D01*
X152625236Y-54010115D01*
X152625232Y-54010114D01*
X152625231Y-54010114D01*
X152608854Y-54007150D01*
X152577733Y-54001519D01*
X152554290Y-53998424D01*
X152554275Y-53998422D01*
X152506181Y-53994397D01*
X152506182Y-53994397D01*
X138529989Y-53495248D01*
X138529986Y-53495248D01*
X138529985Y-53495248D01*
X138517840Y-53495398D01*
X138481395Y-53495849D01*
X138457653Y-53497286D01*
X138457652Y-53497286D01*
X138409400Y-53502544D01*
X138409375Y-53502547D01*
X138409359Y-53502549D01*
X135489668Y-53963553D01*
X128944174Y-54997052D01*
X128853336Y-55020194D01*
X128810195Y-55035567D01*
X128810186Y-55035571D01*
X128725175Y-55075094D01*
X128725160Y-55075102D01*
X123789294Y-57954358D01*
X123789295Y-57954359D01*
X123789278Y-57954369D01*
X123787339Y-57955500D01*
X123244675Y-58272054D01*
X122892295Y-58477609D01*
X122829815Y-58494500D01*
X122030237Y-58494500D01*
X121963198Y-58474815D01*
X121917443Y-58422011D01*
X121907499Y-58352853D01*
X121936524Y-58289297D01*
X121995302Y-58251523D01*
X122010839Y-58248027D01*
X122192705Y-58219221D01*
X122379835Y-58158418D01*
X122555143Y-58069095D01*
X122714321Y-57953444D01*
X122853444Y-57814321D01*
X122969095Y-57655143D01*
X123058418Y-57479837D01*
X123119218Y-57292716D01*
X123125984Y-57250000D01*
X122048482Y-57250000D01*
X122059111Y-57231591D01*
X122100000Y-57078991D01*
X122100000Y-56921009D01*
X122059111Y-56768409D01*
X122048482Y-56750000D01*
X123125984Y-56750000D01*
X123119218Y-56707283D01*
X123058418Y-56520162D01*
X122969095Y-56344856D01*
X122853444Y-56185678D01*
X122714321Y-56046555D01*
X122555143Y-55930904D01*
X122379835Y-55841581D01*
X122192705Y-55780778D01*
X122010839Y-55751973D01*
X121947704Y-55722044D01*
X121910773Y-55662732D01*
X121911771Y-55592869D01*
X121950381Y-55534637D01*
X122014345Y-55506523D01*
X122030237Y-55505500D01*
X124198567Y-55505500D01*
X124325655Y-55489261D01*
X124325654Y-55489261D01*
X124325663Y-55489260D01*
X124386014Y-55473582D01*
X124504942Y-55425911D01*
X135103176Y-49521177D01*
X135163527Y-49505500D01*
X150388450Y-49505500D01*
X150455489Y-49525185D01*
X150495558Y-49567019D01*
X150929819Y-50311466D01*
X152027486Y-52193183D01*
X152099072Y-52288143D01*
X152106437Y-52295832D01*
X152139139Y-52329974D01*
X152230902Y-52405567D01*
X152361779Y-52465338D01*
X152428818Y-52485023D01*
X152428822Y-52485024D01*
X152571238Y-52505500D01*
X152571241Y-52505500D01*
X155414875Y-52505500D01*
X155414881Y-52505500D01*
X155531133Y-52491951D01*
X155586637Y-52478835D01*
X155696654Y-52438915D01*
X155814841Y-52356858D01*
X155865978Y-52309248D01*
X155956256Y-52197221D01*
X156011318Y-52064293D01*
X156015647Y-52047329D01*
X156051297Y-51987241D01*
X156113775Y-51955964D01*
X156183245Y-51963430D01*
X156237650Y-52007269D01*
X156254773Y-52043057D01*
X156261008Y-52064290D01*
X156282506Y-52137504D01*
X156308435Y-52177850D01*
X156360290Y-52258537D01*
X156360298Y-52258548D01*
X156406042Y-52311340D01*
X156406045Y-52311343D01*
X156406049Y-52311347D01*
X156514783Y-52405567D01*
X156514786Y-52405568D01*
X156514787Y-52405569D01*
X156609044Y-52448616D01*
X156645660Y-52465338D01*
X156712699Y-52485023D01*
X156712703Y-52485024D01*
X156855119Y-52505500D01*
X156855122Y-52505500D01*
X158375990Y-52505500D01*
X158376000Y-52505500D01*
X158483456Y-52493947D01*
X158534967Y-52482741D01*
X158569197Y-52471347D01*
X158637497Y-52448616D01*
X158637501Y-52448613D01*
X158637504Y-52448613D01*
X158741307Y-52381902D01*
X174499500Y-52381902D01*
X174499500Y-52618097D01*
X174536446Y-52851368D01*
X174609433Y-53075996D01*
X174716519Y-53286163D01*
X174716657Y-53286433D01*
X174855483Y-53477510D01*
X175022490Y-53644517D01*
X175213567Y-53783343D01*
X175312991Y-53834002D01*
X175424003Y-53890566D01*
X175424005Y-53890566D01*
X175424008Y-53890568D01*
X175544412Y-53929689D01*
X175648631Y-53963553D01*
X175881903Y-54000500D01*
X175881908Y-54000500D01*
X176118097Y-54000500D01*
X176351368Y-53963553D01*
X176397265Y-53948640D01*
X176575992Y-53890568D01*
X176786433Y-53783343D01*
X176977510Y-53644517D01*
X177144517Y-53477510D01*
X177283343Y-53286433D01*
X177390568Y-53075992D01*
X177463553Y-52851368D01*
X177465717Y-52837708D01*
X177500500Y-52618097D01*
X177500500Y-52381947D01*
X179000000Y-52381947D01*
X179000000Y-52618052D01*
X179036934Y-52851247D01*
X179109897Y-53075802D01*
X179217087Y-53286174D01*
X179277338Y-53369104D01*
X179277340Y-53369105D01*
X179976212Y-52670233D01*
X179987482Y-52712292D01*
X180059890Y-52837708D01*
X180162292Y-52940110D01*
X180287708Y-53012518D01*
X180329765Y-53023787D01*
X179630893Y-53722658D01*
X179713828Y-53782914D01*
X179924197Y-53890102D01*
X180148752Y-53963065D01*
X180148751Y-53963065D01*
X180381948Y-54000000D01*
X180618052Y-54000000D01*
X180851247Y-53963065D01*
X181075802Y-53890102D01*
X181286163Y-53782918D01*
X181286169Y-53782914D01*
X181369104Y-53722658D01*
X181369105Y-53722658D01*
X180670233Y-53023787D01*
X180712292Y-53012518D01*
X180837708Y-52940110D01*
X180940110Y-52837708D01*
X181012518Y-52712292D01*
X181023787Y-52670233D01*
X181722658Y-53369105D01*
X181722658Y-53369104D01*
X181782914Y-53286169D01*
X181782918Y-53286163D01*
X181890102Y-53075802D01*
X181963065Y-52851247D01*
X182000000Y-52618052D01*
X182000000Y-52381947D01*
X181963065Y-52148752D01*
X181890102Y-51924197D01*
X181782914Y-51713828D01*
X181722658Y-51630894D01*
X181722658Y-51630893D01*
X181023787Y-52329765D01*
X181012518Y-52287708D01*
X180940110Y-52162292D01*
X180837708Y-52059890D01*
X180712292Y-51987482D01*
X180670234Y-51976212D01*
X181369105Y-51277340D01*
X181369104Y-51277338D01*
X181286174Y-51217087D01*
X181075802Y-51109897D01*
X180851247Y-51036934D01*
X180851248Y-51036934D01*
X180618052Y-51000000D01*
X180381948Y-51000000D01*
X180148752Y-51036934D01*
X179924197Y-51109897D01*
X179713830Y-51217084D01*
X179630894Y-51277340D01*
X180329766Y-51976212D01*
X180287708Y-51987482D01*
X180162292Y-52059890D01*
X180059890Y-52162292D01*
X179987482Y-52287708D01*
X179976212Y-52329766D01*
X179277340Y-51630894D01*
X179217084Y-51713830D01*
X179109897Y-51924197D01*
X179036934Y-52148752D01*
X179000000Y-52381947D01*
X177500500Y-52381947D01*
X177500500Y-52381902D01*
X177463553Y-52148631D01*
X177390566Y-51924003D01*
X177334002Y-51812991D01*
X177283343Y-51713567D01*
X177144517Y-51522490D01*
X176977510Y-51355483D01*
X176786433Y-51216657D01*
X176575996Y-51109433D01*
X176351368Y-51036446D01*
X176118097Y-50999500D01*
X176118092Y-50999500D01*
X175881908Y-50999500D01*
X175881903Y-50999500D01*
X175648631Y-51036446D01*
X175424003Y-51109433D01*
X175213566Y-51216657D01*
X175130047Y-51277338D01*
X175022490Y-51355483D01*
X175022488Y-51355485D01*
X175022487Y-51355485D01*
X174855485Y-51522487D01*
X174855485Y-51522488D01*
X174855483Y-51522490D01*
X174795862Y-51604550D01*
X174716657Y-51713566D01*
X174609433Y-51924003D01*
X174536446Y-52148631D01*
X174499500Y-52381902D01*
X158741307Y-52381902D01*
X158758543Y-52370825D01*
X158782544Y-52350027D01*
X158811341Y-52325076D01*
X158811343Y-52325072D01*
X158811347Y-52325070D01*
X158905567Y-52216336D01*
X158965338Y-52085459D01*
X158985023Y-52018420D01*
X158985024Y-52018416D01*
X159005500Y-51876000D01*
X159005500Y-46688549D01*
X164164500Y-46688549D01*
X164164500Y-46911450D01*
X164164501Y-46911466D01*
X164193594Y-47132452D01*
X164193595Y-47132457D01*
X164193596Y-47132463D01*
X164193597Y-47132465D01*
X164251290Y-47347780D01*
X164251293Y-47347790D01*
X164299042Y-47463065D01*
X164336595Y-47553726D01*
X164448052Y-47746774D01*
X164448057Y-47746780D01*
X164448058Y-47746782D01*
X164583751Y-47923622D01*
X164583757Y-47923629D01*
X164741370Y-48081242D01*
X164741376Y-48081247D01*
X164918226Y-48216948D01*
X165111274Y-48328405D01*
X165148199Y-48343699D01*
X165248965Y-48385439D01*
X165303368Y-48429280D01*
X165325433Y-48495574D01*
X165308154Y-48563274D01*
X165257016Y-48610884D01*
X165248965Y-48614561D01*
X165111277Y-48671593D01*
X165111273Y-48671595D01*
X164918226Y-48783052D01*
X164918217Y-48783058D01*
X164741377Y-48918751D01*
X164741370Y-48918757D01*
X164583757Y-49076370D01*
X164583751Y-49076377D01*
X164448058Y-49253217D01*
X164448052Y-49253226D01*
X164336595Y-49446273D01*
X164336593Y-49446277D01*
X164251293Y-49652209D01*
X164251290Y-49652219D01*
X164193597Y-49867534D01*
X164193594Y-49867547D01*
X164164501Y-50088533D01*
X164164500Y-50088549D01*
X164164500Y-50311450D01*
X164164501Y-50311466D01*
X164193594Y-50532452D01*
X164193595Y-50532457D01*
X164193596Y-50532463D01*
X164251290Y-50747780D01*
X164251293Y-50747790D01*
X164336593Y-50953722D01*
X164336595Y-50953726D01*
X164448052Y-51146774D01*
X164448057Y-51146780D01*
X164448058Y-51146782D01*
X164583751Y-51323622D01*
X164583757Y-51323629D01*
X164741370Y-51481242D01*
X164741377Y-51481248D01*
X164795125Y-51522490D01*
X164918226Y-51616948D01*
X165111274Y-51728405D01*
X165317219Y-51813710D01*
X165532537Y-51871404D01*
X165753543Y-51900500D01*
X165753550Y-51900500D01*
X165976450Y-51900500D01*
X165976457Y-51900500D01*
X166197463Y-51871404D01*
X166412781Y-51813710D01*
X166618726Y-51728405D01*
X166811774Y-51616948D01*
X166988624Y-51481247D01*
X167146247Y-51323624D01*
X167281948Y-51146774D01*
X167393405Y-50953726D01*
X167478710Y-50747781D01*
X167536404Y-50532463D01*
X167565500Y-50311457D01*
X167565500Y-50088543D01*
X167536404Y-49867537D01*
X167478710Y-49652219D01*
X167393405Y-49446274D01*
X167281948Y-49253226D01*
X167146247Y-49076376D01*
X167146242Y-49076370D01*
X166988629Y-48918757D01*
X166988622Y-48918751D01*
X166811782Y-48783058D01*
X166811780Y-48783057D01*
X166811774Y-48783052D01*
X166618726Y-48671595D01*
X166618722Y-48671593D01*
X166481034Y-48614561D01*
X166426631Y-48570720D01*
X166404566Y-48504426D01*
X166421845Y-48436727D01*
X166472982Y-48389116D01*
X166481034Y-48385439D01*
X166518768Y-48369808D01*
X166618726Y-48328405D01*
X166811774Y-48216948D01*
X166988624Y-48081247D01*
X167146247Y-47923624D01*
X167281948Y-47746774D01*
X167393405Y-47553726D01*
X167478710Y-47347781D01*
X167536404Y-47132463D01*
X167565500Y-46911457D01*
X167565500Y-46688543D01*
X167536404Y-46467537D01*
X167478710Y-46252219D01*
X167393405Y-46046274D01*
X167298504Y-45881902D01*
X174499500Y-45881902D01*
X174499500Y-46118097D01*
X174536446Y-46351368D01*
X174609433Y-46575996D01*
X174708789Y-46770992D01*
X174716657Y-46786433D01*
X174855483Y-46977510D01*
X175022490Y-47144517D01*
X175213567Y-47283343D01*
X175312991Y-47334002D01*
X175424003Y-47390566D01*
X175424005Y-47390566D01*
X175424008Y-47390568D01*
X175544412Y-47429689D01*
X175648631Y-47463553D01*
X175881903Y-47500500D01*
X175881908Y-47500500D01*
X176118097Y-47500500D01*
X176351368Y-47463553D01*
X176352870Y-47463065D01*
X176575992Y-47390568D01*
X176786433Y-47283343D01*
X176977510Y-47144517D01*
X177144517Y-46977510D01*
X177283343Y-46786433D01*
X177390568Y-46575992D01*
X177463553Y-46351368D01*
X177479258Y-46252209D01*
X177500500Y-46118097D01*
X177500500Y-45881947D01*
X179000000Y-45881947D01*
X179000000Y-46118052D01*
X179036934Y-46351247D01*
X179109897Y-46575802D01*
X179217087Y-46786174D01*
X179277338Y-46869104D01*
X179277340Y-46869105D01*
X179976212Y-46170233D01*
X179987482Y-46212292D01*
X180059890Y-46337708D01*
X180162292Y-46440110D01*
X180287708Y-46512518D01*
X180329765Y-46523787D01*
X179630893Y-47222658D01*
X179713828Y-47282914D01*
X179924197Y-47390102D01*
X180148752Y-47463065D01*
X180148751Y-47463065D01*
X180381948Y-47500000D01*
X180618052Y-47500000D01*
X180851247Y-47463065D01*
X181075802Y-47390102D01*
X181286163Y-47282918D01*
X181286169Y-47282914D01*
X181369104Y-47222658D01*
X181369105Y-47222658D01*
X180670233Y-46523787D01*
X180712292Y-46512518D01*
X180837708Y-46440110D01*
X180940110Y-46337708D01*
X181012518Y-46212292D01*
X181023787Y-46170233D01*
X181722658Y-46869105D01*
X181722658Y-46869104D01*
X181782914Y-46786169D01*
X181782918Y-46786163D01*
X181890102Y-46575802D01*
X181963065Y-46351247D01*
X182000000Y-46118052D01*
X182000000Y-45881947D01*
X181963065Y-45648752D01*
X181890102Y-45424197D01*
X181782914Y-45213828D01*
X181722658Y-45130894D01*
X181722658Y-45130893D01*
X181023787Y-45829765D01*
X181012518Y-45787708D01*
X180940110Y-45662292D01*
X180837708Y-45559890D01*
X180712292Y-45487482D01*
X180670234Y-45476212D01*
X181369105Y-44777340D01*
X181369104Y-44777338D01*
X181286174Y-44717087D01*
X181075802Y-44609897D01*
X180851247Y-44536934D01*
X180851248Y-44536934D01*
X180618052Y-44500000D01*
X180381948Y-44500000D01*
X180148752Y-44536934D01*
X179924197Y-44609897D01*
X179713830Y-44717084D01*
X179630894Y-44777340D01*
X180329766Y-45476212D01*
X180287708Y-45487482D01*
X180162292Y-45559890D01*
X180059890Y-45662292D01*
X179987482Y-45787708D01*
X179976212Y-45829766D01*
X179277340Y-45130894D01*
X179217084Y-45213830D01*
X179109897Y-45424197D01*
X179036934Y-45648752D01*
X179000000Y-45881947D01*
X177500500Y-45881947D01*
X177500500Y-45881902D01*
X177463553Y-45648631D01*
X177390566Y-45424003D01*
X177299459Y-45245197D01*
X177283343Y-45213567D01*
X177144517Y-45022490D01*
X176977510Y-44855483D01*
X176786433Y-44716657D01*
X176767576Y-44707049D01*
X176575996Y-44609433D01*
X176351368Y-44536446D01*
X176118097Y-44499500D01*
X176118092Y-44499500D01*
X175881908Y-44499500D01*
X175881903Y-44499500D01*
X175648631Y-44536446D01*
X175424003Y-44609433D01*
X175213566Y-44716657D01*
X175130047Y-44777338D01*
X175022490Y-44855483D01*
X175022488Y-44855485D01*
X175022487Y-44855485D01*
X174855485Y-45022487D01*
X174855485Y-45022488D01*
X174855483Y-45022490D01*
X174803531Y-45093996D01*
X174716657Y-45213566D01*
X174609433Y-45424003D01*
X174536446Y-45648631D01*
X174499500Y-45881902D01*
X167298504Y-45881902D01*
X167281948Y-45853226D01*
X167147385Y-45677859D01*
X167146248Y-45676377D01*
X167146242Y-45676370D01*
X166988629Y-45518757D01*
X166988622Y-45518751D01*
X166811782Y-45383058D01*
X166811780Y-45383057D01*
X166811774Y-45383052D01*
X166618726Y-45271595D01*
X166618722Y-45271593D01*
X166412790Y-45186293D01*
X166412783Y-45186291D01*
X166412781Y-45186290D01*
X166197463Y-45128596D01*
X166197457Y-45128595D01*
X166197452Y-45128594D01*
X165976466Y-45099501D01*
X165976463Y-45099500D01*
X165976457Y-45099500D01*
X165753543Y-45099500D01*
X165753537Y-45099500D01*
X165753533Y-45099501D01*
X165532547Y-45128594D01*
X165532540Y-45128595D01*
X165532537Y-45128596D01*
X165317219Y-45186290D01*
X165317209Y-45186293D01*
X165111277Y-45271593D01*
X165111273Y-45271595D01*
X164918226Y-45383052D01*
X164918217Y-45383058D01*
X164741377Y-45518751D01*
X164741370Y-45518757D01*
X164583757Y-45676370D01*
X164583751Y-45676377D01*
X164448058Y-45853217D01*
X164448052Y-45853226D01*
X164336595Y-46046273D01*
X164336593Y-46046277D01*
X164251293Y-46252209D01*
X164251290Y-46252219D01*
X164193597Y-46467534D01*
X164193594Y-46467547D01*
X164164501Y-46688533D01*
X164164500Y-46688549D01*
X159005500Y-46688549D01*
X159005500Y-43045870D01*
X159004307Y-43011165D01*
X159003138Y-42994178D01*
X158999565Y-42959630D01*
X158959771Y-42821362D01*
X158931088Y-42757652D01*
X158853952Y-42636198D01*
X158581387Y-42318206D01*
X186299500Y-42318206D01*
X186299500Y-42348638D01*
X186299500Y-42681794D01*
X186310337Y-42791829D01*
X186335137Y-43043630D01*
X186406064Y-43400212D01*
X186406067Y-43400223D01*
X186511614Y-43748165D01*
X186650754Y-44084078D01*
X186650756Y-44084083D01*
X186822140Y-44404720D01*
X186822151Y-44404738D01*
X187024140Y-44707035D01*
X187024150Y-44707049D01*
X187254807Y-44988106D01*
X187511893Y-45245192D01*
X187511898Y-45245196D01*
X187511899Y-45245197D01*
X187792956Y-45475854D01*
X188095268Y-45677853D01*
X188095277Y-45677858D01*
X188095279Y-45677859D01*
X188415916Y-45849243D01*
X188415918Y-45849243D01*
X188415924Y-45849247D01*
X188751836Y-45988386D01*
X189099767Y-46093930D01*
X189099773Y-46093931D01*
X189099776Y-46093932D01*
X189099787Y-46093935D01*
X189456369Y-46164862D01*
X189818206Y-46200500D01*
X189818209Y-46200500D01*
X190181791Y-46200500D01*
X190181794Y-46200500D01*
X190543631Y-46164862D01*
X190613045Y-46151054D01*
X190900212Y-46093935D01*
X190900223Y-46093932D01*
X190900223Y-46093931D01*
X190900233Y-46093930D01*
X191248164Y-45988386D01*
X191584076Y-45849247D01*
X191904732Y-45677853D01*
X192207044Y-45475854D01*
X192488101Y-45245197D01*
X192745197Y-44988101D01*
X192975854Y-44707044D01*
X193177853Y-44404732D01*
X193349247Y-44084076D01*
X193488386Y-43748164D01*
X193593930Y-43400233D01*
X193593932Y-43400223D01*
X193593935Y-43400212D01*
X193664416Y-43045873D01*
X193664862Y-43043631D01*
X193700500Y-42681794D01*
X193700500Y-42318206D01*
X193664862Y-41956369D01*
X193624347Y-41752683D01*
X193593935Y-41599787D01*
X193593932Y-41599776D01*
X193593931Y-41599773D01*
X193593930Y-41599767D01*
X193488386Y-41251836D01*
X193349247Y-40915924D01*
X193177853Y-40595268D01*
X192975854Y-40292956D01*
X192745197Y-40011899D01*
X192745196Y-40011898D01*
X192745192Y-40011893D01*
X192488106Y-39754807D01*
X192207049Y-39524150D01*
X192207048Y-39524149D01*
X192207044Y-39524146D01*
X191904732Y-39322147D01*
X191904727Y-39322144D01*
X191904720Y-39322140D01*
X191584083Y-39150756D01*
X191584078Y-39150754D01*
X191248165Y-39011614D01*
X190900223Y-38906067D01*
X190900212Y-38906064D01*
X190543630Y-38835137D01*
X190271111Y-38808296D01*
X190181794Y-38799500D01*
X189818206Y-38799500D01*
X189735679Y-38807628D01*
X189456369Y-38835137D01*
X189099787Y-38906064D01*
X189099776Y-38906067D01*
X188751834Y-39011614D01*
X188415921Y-39150754D01*
X188415916Y-39150756D01*
X188095279Y-39322140D01*
X188095261Y-39322151D01*
X187792964Y-39524140D01*
X187792950Y-39524150D01*
X187511893Y-39754807D01*
X187254807Y-40011893D01*
X187024150Y-40292950D01*
X187024140Y-40292964D01*
X186822151Y-40595261D01*
X186822140Y-40595279D01*
X186650756Y-40915916D01*
X186650754Y-40915921D01*
X186511614Y-41251834D01*
X186406067Y-41599776D01*
X186406064Y-41599787D01*
X186335137Y-41956369D01*
X186307628Y-42235679D01*
X186299500Y-42318206D01*
X158581387Y-42318206D01*
X155920920Y-39214327D01*
X155869166Y-39162155D01*
X155842057Y-39138538D01*
X155842051Y-39138533D01*
X155842047Y-39138530D01*
X155825446Y-39126069D01*
X155783304Y-39094433D01*
X155783300Y-39094431D01*
X155783298Y-39094429D01*
X155652433Y-39034664D01*
X155652428Y-39034662D01*
X155652427Y-39034662D01*
X155585388Y-39014977D01*
X155585390Y-39014977D01*
X155585385Y-39014976D01*
X155537912Y-39008150D01*
X155442968Y-38994500D01*
X129535735Y-38994500D01*
X129395755Y-39014268D01*
X129395752Y-39014268D01*
X129395751Y-39014269D01*
X129395749Y-39014269D01*
X129329764Y-39033285D01*
X129329757Y-39033288D01*
X129200735Y-39091040D01*
X127288596Y-40292956D01*
X125968626Y-41122651D01*
X118138412Y-46044500D01*
X116982629Y-46770992D01*
X115736347Y-47554369D01*
X115734778Y-47555354D01*
X115734500Y-47555530D01*
X115734499Y-47555529D01*
X112729321Y-49444500D01*
X111788997Y-50035560D01*
X111702351Y-50104316D01*
X111664031Y-50142256D01*
X111594435Y-50228178D01*
X111534663Y-50359055D01*
X111514976Y-50426100D01*
X111494500Y-50568519D01*
X96500500Y-50568519D01*
X96500500Y-42318206D01*
X102299500Y-42318206D01*
X102299500Y-42348638D01*
X102299500Y-42681794D01*
X102310337Y-42791829D01*
X102335137Y-43043630D01*
X102406064Y-43400212D01*
X102406067Y-43400223D01*
X102511614Y-43748165D01*
X102650754Y-44084078D01*
X102650756Y-44084083D01*
X102822140Y-44404720D01*
X102822151Y-44404738D01*
X103024140Y-44707035D01*
X103024150Y-44707049D01*
X103254807Y-44988106D01*
X103511893Y-45245192D01*
X103511898Y-45245196D01*
X103511899Y-45245197D01*
X103792956Y-45475854D01*
X104095268Y-45677853D01*
X104095277Y-45677858D01*
X104095279Y-45677859D01*
X104415916Y-45849243D01*
X104415918Y-45849243D01*
X104415924Y-45849247D01*
X104751836Y-45988386D01*
X105099767Y-46093930D01*
X105099773Y-46093931D01*
X105099776Y-46093932D01*
X105099787Y-46093935D01*
X105456369Y-46164862D01*
X105818206Y-46200500D01*
X105818209Y-46200500D01*
X106181791Y-46200500D01*
X106181794Y-46200500D01*
X106543631Y-46164862D01*
X106613045Y-46151054D01*
X106900212Y-46093935D01*
X106900223Y-46093932D01*
X106900223Y-46093931D01*
X106900233Y-46093930D01*
X107248164Y-45988386D01*
X107584076Y-45849247D01*
X107904732Y-45677853D01*
X108207044Y-45475854D01*
X108488101Y-45245197D01*
X108745197Y-44988101D01*
X108975854Y-44707044D01*
X109177853Y-44404732D01*
X109349247Y-44084076D01*
X109488386Y-43748164D01*
X109593930Y-43400233D01*
X109593932Y-43400223D01*
X109593935Y-43400212D01*
X109664416Y-43045873D01*
X109664862Y-43043631D01*
X109700500Y-42681794D01*
X109700500Y-42318206D01*
X109664862Y-41956369D01*
X109624347Y-41752683D01*
X109593935Y-41599787D01*
X109593932Y-41599776D01*
X109593931Y-41599773D01*
X109593930Y-41599767D01*
X109488386Y-41251836D01*
X109349247Y-40915924D01*
X109177853Y-40595268D01*
X108975854Y-40292956D01*
X108745197Y-40011899D01*
X108745196Y-40011898D01*
X108745192Y-40011893D01*
X108488106Y-39754807D01*
X108207049Y-39524150D01*
X108207048Y-39524149D01*
X108207044Y-39524146D01*
X107904732Y-39322147D01*
X107904727Y-39322144D01*
X107904720Y-39322140D01*
X107584083Y-39150756D01*
X107584078Y-39150754D01*
X107248165Y-39011614D01*
X106900223Y-38906067D01*
X106900212Y-38906064D01*
X106543630Y-38835137D01*
X106271111Y-38808296D01*
X106181794Y-38799500D01*
X105818206Y-38799500D01*
X105735679Y-38807628D01*
X105456369Y-38835137D01*
X105099787Y-38906064D01*
X105099776Y-38906067D01*
X104751834Y-39011614D01*
X104415921Y-39150754D01*
X104415916Y-39150756D01*
X104095279Y-39322140D01*
X104095261Y-39322151D01*
X103792964Y-39524140D01*
X103792950Y-39524150D01*
X103511893Y-39754807D01*
X103254807Y-40011893D01*
X103024150Y-40292950D01*
X103024140Y-40292964D01*
X102822151Y-40595261D01*
X102822140Y-40595279D01*
X102650756Y-40915916D01*
X102650754Y-40915921D01*
X102511614Y-41251834D01*
X102406067Y-41599776D01*
X102406064Y-41599787D01*
X102335137Y-41956369D01*
X102307628Y-42235679D01*
X102299500Y-42318206D01*
X96500500Y-42318206D01*
X96500500Y-34624500D01*
X96520185Y-34557461D01*
X96572989Y-34511706D01*
X96624500Y-34500500D01*
X199875500Y-34500500D01*
X199942539Y-34520185D01*
G37*
%TD.AperFunction*%
%TD*%
%TA.AperFunction,Conductor*%
%TO.N,/LED1*%
G36*
X155510007Y-39519685D02*
G01*
X155537116Y-39543302D01*
X158470148Y-42965173D01*
X158498831Y-43028883D01*
X158500000Y-43045870D01*
X158500000Y-51876000D01*
X158480315Y-51943039D01*
X158427511Y-51988794D01*
X158376000Y-52000000D01*
X156855119Y-52000000D01*
X156788080Y-51980315D01*
X156742325Y-51927511D01*
X156732381Y-51858353D01*
X156761406Y-51794797D01*
X156807666Y-51761439D01*
X156888502Y-51727954D01*
X156888520Y-51727945D01*
X157081491Y-51616535D01*
X157081495Y-51616533D01*
X157258293Y-51480869D01*
X157258302Y-51480862D01*
X157415862Y-51323302D01*
X157415869Y-51323293D01*
X157551533Y-51146495D01*
X157551535Y-51146491D01*
X157662945Y-50953520D01*
X157662954Y-50953502D01*
X157748235Y-50747620D01*
X157805912Y-50532367D01*
X157816756Y-50450000D01*
X156897361Y-50450000D01*
X156904257Y-50433351D01*
X156935000Y-50278793D01*
X156935000Y-50121207D01*
X156904257Y-49966649D01*
X156897361Y-49950000D01*
X157816755Y-49950000D01*
X157816755Y-49949999D01*
X157805912Y-49867632D01*
X157748235Y-49652379D01*
X157662954Y-49446497D01*
X157662945Y-49446479D01*
X157551535Y-49253508D01*
X157551533Y-49253504D01*
X157415869Y-49076706D01*
X157415862Y-49076698D01*
X157258302Y-48919138D01*
X157258293Y-48919130D01*
X157081495Y-48783466D01*
X157081491Y-48783464D01*
X156888520Y-48672054D01*
X156888502Y-48672045D01*
X156749726Y-48614561D01*
X156695322Y-48570719D01*
X156673258Y-48504425D01*
X156690538Y-48436726D01*
X156741675Y-48389116D01*
X156749726Y-48385439D01*
X156888502Y-48327954D01*
X156888520Y-48327945D01*
X157081491Y-48216535D01*
X157081495Y-48216533D01*
X157258293Y-48080869D01*
X157258302Y-48080862D01*
X157415862Y-47923302D01*
X157415869Y-47923293D01*
X157551533Y-47746495D01*
X157551535Y-47746491D01*
X157662945Y-47553520D01*
X157662954Y-47553502D01*
X157748235Y-47347620D01*
X157805912Y-47132367D01*
X157816756Y-47050000D01*
X156897361Y-47050000D01*
X156904257Y-47033351D01*
X156935000Y-46878793D01*
X156935000Y-46721207D01*
X156904257Y-46566649D01*
X156897361Y-46550000D01*
X157816755Y-46550000D01*
X157816755Y-46549999D01*
X157805912Y-46467632D01*
X157748235Y-46252379D01*
X157662954Y-46046497D01*
X157662945Y-46046479D01*
X157551535Y-45853508D01*
X157551533Y-45853504D01*
X157415869Y-45676706D01*
X157415862Y-45676698D01*
X157258302Y-45519138D01*
X157258293Y-45519130D01*
X157081495Y-45383466D01*
X157081491Y-45383464D01*
X156888520Y-45272054D01*
X156888502Y-45272045D01*
X156682618Y-45186763D01*
X156467363Y-45129087D01*
X156385000Y-45118242D01*
X156385000Y-46037639D01*
X156368351Y-46030743D01*
X156213793Y-46000000D01*
X156056207Y-46000000D01*
X155901649Y-46030743D01*
X155885000Y-46037639D01*
X155885000Y-45118242D01*
X155884999Y-45118242D01*
X155802636Y-45129087D01*
X155587381Y-45186763D01*
X155381497Y-45272045D01*
X155381479Y-45272054D01*
X155188508Y-45383464D01*
X155188504Y-45383466D01*
X155011706Y-45519130D01*
X154854130Y-45676706D01*
X154718466Y-45853504D01*
X154718464Y-45853508D01*
X154607054Y-46046479D01*
X154607045Y-46046497D01*
X154521764Y-46252379D01*
X154464087Y-46467632D01*
X154453244Y-46549999D01*
X154453245Y-46550000D01*
X155372639Y-46550000D01*
X155365743Y-46566649D01*
X155335000Y-46721207D01*
X155335000Y-46878793D01*
X155365743Y-47033351D01*
X155372639Y-47050000D01*
X154453244Y-47050000D01*
X154464087Y-47132367D01*
X154521764Y-47347620D01*
X154607045Y-47553502D01*
X154607054Y-47553520D01*
X154718464Y-47746491D01*
X154718466Y-47746495D01*
X154854130Y-47923293D01*
X154854138Y-47923302D01*
X155011698Y-48080862D01*
X155011706Y-48080869D01*
X155188504Y-48216533D01*
X155188508Y-48216535D01*
X155381479Y-48327945D01*
X155381492Y-48327952D01*
X155520274Y-48385439D01*
X155574677Y-48429281D01*
X155596741Y-48495575D01*
X155579461Y-48563274D01*
X155528324Y-48610884D01*
X155520274Y-48614561D01*
X155381492Y-48672047D01*
X155381479Y-48672054D01*
X155188508Y-48783464D01*
X155188504Y-48783466D01*
X155011706Y-48919130D01*
X154854130Y-49076706D01*
X154718466Y-49253504D01*
X154718464Y-49253508D01*
X154607054Y-49446479D01*
X154607045Y-49446497D01*
X154521764Y-49652379D01*
X154464087Y-49867632D01*
X154453244Y-49949999D01*
X154453245Y-49950000D01*
X155372639Y-49950000D01*
X155365743Y-49966649D01*
X155335000Y-50121207D01*
X155335000Y-50278793D01*
X155365743Y-50433351D01*
X155372639Y-50450000D01*
X154453244Y-50450000D01*
X154464087Y-50532367D01*
X154521764Y-50747620D01*
X154607045Y-50953502D01*
X154607054Y-50953520D01*
X154718464Y-51146491D01*
X154718466Y-51146495D01*
X154854130Y-51323293D01*
X154854138Y-51323302D01*
X155011698Y-51480862D01*
X155011706Y-51480869D01*
X155188504Y-51616533D01*
X155188508Y-51616535D01*
X155381479Y-51727945D01*
X155381497Y-51727954D01*
X155462334Y-51761439D01*
X155516738Y-51805281D01*
X155538802Y-51871575D01*
X155521522Y-51939274D01*
X155470385Y-51986884D01*
X155414881Y-52000000D01*
X152571238Y-52000000D01*
X152504199Y-51980315D01*
X152464129Y-51938480D01*
X150750016Y-49000000D01*
X150750015Y-49000000D01*
X135000000Y-49000000D01*
X124258914Y-54984322D01*
X124198563Y-55000000D01*
X113051362Y-55000000D01*
X112984323Y-54980315D01*
X112963681Y-54963681D01*
X112036319Y-54036319D01*
X112002834Y-53974996D01*
X112000000Y-53948638D01*
X112000000Y-52950014D01*
X114850000Y-52950014D01*
X114850000Y-53250000D01*
X115951518Y-53250000D01*
X115940889Y-53268409D01*
X115900000Y-53421009D01*
X115900000Y-53578991D01*
X115940889Y-53731591D01*
X115951518Y-53750000D01*
X114850000Y-53750000D01*
X114850000Y-54049985D01*
X114860493Y-54152689D01*
X114860494Y-54152696D01*
X114915641Y-54319118D01*
X114915643Y-54319123D01*
X115007684Y-54468344D01*
X115131655Y-54592315D01*
X115280876Y-54684356D01*
X115280881Y-54684358D01*
X115447303Y-54739505D01*
X115447310Y-54739506D01*
X115550014Y-54749999D01*
X115550027Y-54750000D01*
X116250000Y-54750000D01*
X116250000Y-54048482D01*
X116268409Y-54059111D01*
X116421009Y-54100000D01*
X116578991Y-54100000D01*
X116731591Y-54059111D01*
X116750000Y-54048482D01*
X116750000Y-54750000D01*
X117449973Y-54750000D01*
X117449985Y-54749999D01*
X117552689Y-54739506D01*
X117552696Y-54739505D01*
X117719118Y-54684358D01*
X117719123Y-54684356D01*
X117868344Y-54592315D01*
X117992315Y-54468344D01*
X118084356Y-54319123D01*
X118084358Y-54319118D01*
X118139505Y-54152696D01*
X118139506Y-54152689D01*
X118149999Y-54049985D01*
X118150000Y-54049972D01*
X118150000Y-53750000D01*
X117048482Y-53750000D01*
X117059111Y-53731591D01*
X117100000Y-53578991D01*
X117100000Y-53421009D01*
X117059111Y-53268409D01*
X117048482Y-53250000D01*
X118150000Y-53250000D01*
X118150000Y-52950027D01*
X118149999Y-52950014D01*
X118139506Y-52847310D01*
X118139505Y-52847303D01*
X118103237Y-52737855D01*
X118103236Y-52737853D01*
X118091407Y-52702155D01*
X119850000Y-52702155D01*
X119850000Y-53250000D01*
X120951518Y-53250000D01*
X120940889Y-53268409D01*
X120900000Y-53421009D01*
X120900000Y-53578991D01*
X120940889Y-53731591D01*
X120951518Y-53750000D01*
X119850000Y-53750000D01*
X119850000Y-54297844D01*
X119856401Y-54357372D01*
X119856403Y-54357379D01*
X119906645Y-54492086D01*
X119906649Y-54492093D01*
X119992809Y-54607187D01*
X119992812Y-54607190D01*
X120107906Y-54693350D01*
X120107913Y-54693354D01*
X120242620Y-54743596D01*
X120242627Y-54743598D01*
X120302155Y-54749999D01*
X120302172Y-54750000D01*
X121250000Y-54750000D01*
X121250000Y-54048482D01*
X121268409Y-54059111D01*
X121421009Y-54100000D01*
X121578991Y-54100000D01*
X121731591Y-54059111D01*
X121750000Y-54048482D01*
X121750000Y-54750000D01*
X122697828Y-54750000D01*
X122697844Y-54749999D01*
X122757372Y-54743598D01*
X122757379Y-54743596D01*
X122892086Y-54693354D01*
X122892093Y-54693350D01*
X123007187Y-54607190D01*
X123007190Y-54607187D01*
X123093350Y-54492093D01*
X123093354Y-54492086D01*
X123143596Y-54357379D01*
X123143598Y-54357372D01*
X123149999Y-54297844D01*
X123150000Y-54297827D01*
X123150000Y-53750000D01*
X122048482Y-53750000D01*
X122059111Y-53731591D01*
X122100000Y-53578991D01*
X122100000Y-53421009D01*
X122059111Y-53268409D01*
X122048482Y-53250000D01*
X123150000Y-53250000D01*
X123150000Y-52702172D01*
X123149999Y-52702155D01*
X123143598Y-52642627D01*
X123143596Y-52642620D01*
X123093354Y-52507913D01*
X123093350Y-52507906D01*
X123007190Y-52392812D01*
X123007187Y-52392809D01*
X122892093Y-52306649D01*
X122892086Y-52306645D01*
X122757379Y-52256403D01*
X122757372Y-52256401D01*
X122697844Y-52250000D01*
X121750000Y-52250000D01*
X121750000Y-52951517D01*
X121731591Y-52940889D01*
X121578991Y-52900000D01*
X121421009Y-52900000D01*
X121268409Y-52940889D01*
X121250000Y-52951517D01*
X121250000Y-52250000D01*
X120302155Y-52250000D01*
X120242627Y-52256401D01*
X120242620Y-52256403D01*
X120107913Y-52306645D01*
X120107906Y-52306649D01*
X119992812Y-52392809D01*
X119992809Y-52392812D01*
X119906649Y-52507906D01*
X119906645Y-52507913D01*
X119856403Y-52642620D01*
X119856401Y-52642627D01*
X119850000Y-52702155D01*
X118091407Y-52702155D01*
X118084359Y-52680883D01*
X118084356Y-52680876D01*
X117992315Y-52531655D01*
X117868344Y-52407684D01*
X117719123Y-52315643D01*
X117719118Y-52315641D01*
X117552696Y-52260494D01*
X117552689Y-52260493D01*
X117449985Y-52250000D01*
X116750000Y-52250000D01*
X116750000Y-52951517D01*
X116731591Y-52940889D01*
X116578991Y-52900000D01*
X116421009Y-52900000D01*
X116268409Y-52940889D01*
X116250000Y-52951517D01*
X116250000Y-52250000D01*
X115550014Y-52250000D01*
X115447310Y-52260493D01*
X115447303Y-52260494D01*
X115280881Y-52315641D01*
X115280876Y-52315643D01*
X115131655Y-52407684D01*
X115007684Y-52531655D01*
X114915643Y-52680876D01*
X114915641Y-52680881D01*
X114860494Y-52847303D01*
X114860493Y-52847310D01*
X114850000Y-52950014D01*
X112000000Y-52950014D01*
X112000000Y-50568518D01*
X112019685Y-50501479D01*
X112058008Y-50463537D01*
X126237639Y-41550626D01*
X129469746Y-39519017D01*
X129535735Y-39500000D01*
X155442968Y-39500000D01*
X155510007Y-39519685D01*
G37*
%TD.AperFunction*%
%TA.AperFunction,Conductor*%
G36*
X156385000Y-49437639D02*
G01*
X156368351Y-49430743D01*
X156213793Y-49400000D01*
X156056207Y-49400000D01*
X155901649Y-49430743D01*
X155885000Y-49437639D01*
X155885000Y-47562360D01*
X155901649Y-47569257D01*
X156056207Y-47600000D01*
X156213793Y-47600000D01*
X156368351Y-47569257D01*
X156385000Y-47562360D01*
X156385000Y-49437639D01*
G37*
%TD.AperFunction*%
%TD*%
%TA.AperFunction,Conductor*%
%TO.N,/LED6*%
G36*
X156315000Y-104337639D02*
G01*
X156298351Y-104330743D01*
X156143793Y-104300000D01*
X155986207Y-104300000D01*
X155831649Y-104330743D01*
X155815000Y-104337639D01*
X155815000Y-102462360D01*
X155831649Y-102469257D01*
X155986207Y-102500000D01*
X156143793Y-102500000D01*
X156298351Y-102469257D01*
X156315000Y-102462360D01*
X156315000Y-104337639D01*
G37*
%TD.AperFunction*%
%TA.AperFunction,Conductor*%
G36*
X126013426Y-86519685D02*
G01*
X126036722Y-86539057D01*
X127605284Y-88207283D01*
X128896750Y-89580807D01*
X128915236Y-89606307D01*
X133499998Y-97999999D01*
X133499999Y-97999999D01*
X133500000Y-98000000D01*
X154000000Y-99000000D01*
X158876000Y-99000000D01*
X158943039Y-99019685D01*
X158988794Y-99072489D01*
X159000000Y-99124000D01*
X159000000Y-107932059D01*
X158980315Y-107999098D01*
X158927511Y-108044853D01*
X158870943Y-108055956D01*
X133039786Y-107001623D01*
X132973605Y-106979221D01*
X132962871Y-106970767D01*
X131183987Y-105403523D01*
X130521980Y-104820277D01*
X130489009Y-104773756D01*
X129143806Y-101449999D01*
X154383244Y-101449999D01*
X154383245Y-101450000D01*
X155302639Y-101450000D01*
X155295743Y-101466649D01*
X155265000Y-101621207D01*
X155265000Y-101778793D01*
X155295743Y-101933351D01*
X155302639Y-101950000D01*
X154383244Y-101950000D01*
X154394087Y-102032367D01*
X154451764Y-102247620D01*
X154537045Y-102453502D01*
X154537054Y-102453520D01*
X154648464Y-102646491D01*
X154648466Y-102646495D01*
X154784130Y-102823293D01*
X154784138Y-102823302D01*
X154941698Y-102980862D01*
X154941706Y-102980869D01*
X155118504Y-103116533D01*
X155118508Y-103116535D01*
X155311479Y-103227945D01*
X155311492Y-103227952D01*
X155450274Y-103285439D01*
X155504677Y-103329281D01*
X155526741Y-103395575D01*
X155509461Y-103463274D01*
X155458324Y-103510884D01*
X155450274Y-103514561D01*
X155311492Y-103572047D01*
X155311479Y-103572054D01*
X155118508Y-103683464D01*
X155118504Y-103683466D01*
X154941706Y-103819130D01*
X154784130Y-103976706D01*
X154648466Y-104153504D01*
X154648464Y-104153508D01*
X154537054Y-104346479D01*
X154537045Y-104346497D01*
X154451764Y-104552379D01*
X154394087Y-104767632D01*
X154383244Y-104849999D01*
X154383245Y-104850000D01*
X155302639Y-104850000D01*
X155295743Y-104866649D01*
X155265000Y-105021207D01*
X155265000Y-105178793D01*
X155295743Y-105333351D01*
X155302639Y-105350000D01*
X154383244Y-105350000D01*
X154394087Y-105432367D01*
X154451764Y-105647620D01*
X154537045Y-105853502D01*
X154537054Y-105853520D01*
X154648464Y-106046491D01*
X154648466Y-106046495D01*
X154784130Y-106223293D01*
X154784138Y-106223302D01*
X154941698Y-106380862D01*
X154941706Y-106380869D01*
X155118504Y-106516533D01*
X155118508Y-106516535D01*
X155311479Y-106627945D01*
X155311497Y-106627954D01*
X155517379Y-106713235D01*
X155732632Y-106770912D01*
X155814999Y-106781755D01*
X155815000Y-106781755D01*
X155815000Y-105862360D01*
X155831649Y-105869257D01*
X155986207Y-105900000D01*
X156143793Y-105900000D01*
X156298351Y-105869257D01*
X156315000Y-105862360D01*
X156315000Y-106781755D01*
X156397367Y-106770912D01*
X156612620Y-106713235D01*
X156818502Y-106627954D01*
X156818520Y-106627945D01*
X157011491Y-106516535D01*
X157011495Y-106516533D01*
X157188293Y-106380869D01*
X157188302Y-106380862D01*
X157345862Y-106223302D01*
X157345869Y-106223293D01*
X157481533Y-106046495D01*
X157481535Y-106046491D01*
X157592945Y-105853520D01*
X157592954Y-105853502D01*
X157678235Y-105647620D01*
X157735912Y-105432367D01*
X157746756Y-105350000D01*
X156827361Y-105350000D01*
X156834257Y-105333351D01*
X156865000Y-105178793D01*
X156865000Y-105021207D01*
X156834257Y-104866649D01*
X156827361Y-104850000D01*
X157746755Y-104850000D01*
X157746755Y-104849999D01*
X157735912Y-104767632D01*
X157678235Y-104552379D01*
X157592954Y-104346497D01*
X157592945Y-104346479D01*
X157481535Y-104153508D01*
X157481533Y-104153504D01*
X157345869Y-103976706D01*
X157345862Y-103976698D01*
X157188302Y-103819138D01*
X157188293Y-103819130D01*
X157011495Y-103683466D01*
X157011491Y-103683464D01*
X156818520Y-103572054D01*
X156818502Y-103572045D01*
X156679726Y-103514561D01*
X156625322Y-103470719D01*
X156603258Y-103404425D01*
X156620538Y-103336726D01*
X156671675Y-103289116D01*
X156679726Y-103285439D01*
X156818502Y-103227954D01*
X156818520Y-103227945D01*
X157011491Y-103116535D01*
X157011495Y-103116533D01*
X157188293Y-102980869D01*
X157188302Y-102980862D01*
X157345862Y-102823302D01*
X157345869Y-102823293D01*
X157481533Y-102646495D01*
X157481535Y-102646491D01*
X157592945Y-102453520D01*
X157592954Y-102453502D01*
X157678235Y-102247620D01*
X157735912Y-102032367D01*
X157746756Y-101950000D01*
X156827361Y-101950000D01*
X156834257Y-101933351D01*
X156865000Y-101778793D01*
X156865000Y-101621207D01*
X156834257Y-101466649D01*
X156827361Y-101450000D01*
X157746755Y-101450000D01*
X157746755Y-101449999D01*
X157735912Y-101367632D01*
X157678235Y-101152379D01*
X157592954Y-100946497D01*
X157592945Y-100946479D01*
X157481535Y-100753508D01*
X157481533Y-100753504D01*
X157345869Y-100576706D01*
X157345862Y-100576698D01*
X157188302Y-100419138D01*
X157188293Y-100419130D01*
X157011495Y-100283466D01*
X157011491Y-100283464D01*
X156818520Y-100172054D01*
X156818502Y-100172045D01*
X156612618Y-100086763D01*
X156397363Y-100029087D01*
X156315000Y-100018242D01*
X156315000Y-100937639D01*
X156298351Y-100930743D01*
X156143793Y-100900000D01*
X155986207Y-100900000D01*
X155831649Y-100930743D01*
X155815000Y-100937639D01*
X155815000Y-100018242D01*
X155814999Y-100018242D01*
X155732636Y-100029087D01*
X155517381Y-100086763D01*
X155311497Y-100172045D01*
X155311479Y-100172054D01*
X155118508Y-100283464D01*
X155118504Y-100283466D01*
X154941706Y-100419130D01*
X154784130Y-100576706D01*
X154648466Y-100753504D01*
X154648464Y-100753508D01*
X154537054Y-100946479D01*
X154537045Y-100946497D01*
X154451764Y-101152379D01*
X154394087Y-101367632D01*
X154383244Y-101449999D01*
X129143806Y-101449999D01*
X124515185Y-90013497D01*
X115202809Y-90000059D01*
X115135798Y-89980278D01*
X115128204Y-89974970D01*
X114549216Y-89537211D01*
X114507612Y-89481078D01*
X114500000Y-89438300D01*
X114500000Y-88250000D01*
X114874016Y-88250000D01*
X115951518Y-88250000D01*
X115940889Y-88268409D01*
X115900000Y-88421009D01*
X115900000Y-88578991D01*
X115940889Y-88731591D01*
X115951518Y-88750000D01*
X114874016Y-88750000D01*
X114880781Y-88792716D01*
X114941581Y-88979837D01*
X115030904Y-89155143D01*
X115146555Y-89314321D01*
X115285678Y-89453444D01*
X115444856Y-89569095D01*
X115620164Y-89658418D01*
X115807294Y-89719221D01*
X116001618Y-89750000D01*
X116250000Y-89750000D01*
X116250000Y-89048482D01*
X116268409Y-89059111D01*
X116421009Y-89100000D01*
X116578991Y-89100000D01*
X116731591Y-89059111D01*
X116750000Y-89048482D01*
X116750000Y-89750000D01*
X116998382Y-89750000D01*
X117192705Y-89719221D01*
X117379835Y-89658418D01*
X117555143Y-89569095D01*
X117714321Y-89453444D01*
X117853444Y-89314321D01*
X117969095Y-89155143D01*
X118058418Y-88979837D01*
X118119218Y-88792716D01*
X118125984Y-88750000D01*
X117048482Y-88750000D01*
X117059111Y-88731591D01*
X117100000Y-88578991D01*
X117100000Y-88421009D01*
X117059111Y-88268409D01*
X117048482Y-88250000D01*
X118125984Y-88250000D01*
X119874016Y-88250000D01*
X120951518Y-88250000D01*
X120940889Y-88268409D01*
X120900000Y-88421009D01*
X120900000Y-88578991D01*
X120940889Y-88731591D01*
X120951518Y-88750000D01*
X119874016Y-88750000D01*
X119880781Y-88792716D01*
X119941581Y-88979837D01*
X120030904Y-89155143D01*
X120146555Y-89314321D01*
X120285678Y-89453444D01*
X120444856Y-89569095D01*
X120620164Y-89658418D01*
X120807294Y-89719221D01*
X121001618Y-89750000D01*
X121250000Y-89750000D01*
X121250000Y-89048482D01*
X121268409Y-89059111D01*
X121421009Y-89100000D01*
X121578991Y-89100000D01*
X121731591Y-89059111D01*
X121750000Y-89048482D01*
X121750000Y-89750000D01*
X121998382Y-89750000D01*
X122192705Y-89719221D01*
X122379835Y-89658418D01*
X122555143Y-89569095D01*
X122714321Y-89453444D01*
X122853444Y-89314321D01*
X122969095Y-89155143D01*
X123058418Y-88979837D01*
X123119218Y-88792716D01*
X123125984Y-88750000D01*
X122048482Y-88750000D01*
X122059111Y-88731591D01*
X122100000Y-88578991D01*
X122100000Y-88421009D01*
X122059111Y-88268409D01*
X122048482Y-88250000D01*
X123125984Y-88250000D01*
X123119218Y-88207283D01*
X123058418Y-88020162D01*
X122969095Y-87844856D01*
X122853444Y-87685678D01*
X122714321Y-87546555D01*
X122555143Y-87430904D01*
X122379835Y-87341581D01*
X122192705Y-87280778D01*
X121998382Y-87250000D01*
X121750000Y-87250000D01*
X121750000Y-87951517D01*
X121731591Y-87940889D01*
X121578991Y-87900000D01*
X121421009Y-87900000D01*
X121268409Y-87940889D01*
X121250000Y-87951517D01*
X121250000Y-87250000D01*
X121001618Y-87250000D01*
X120807294Y-87280778D01*
X120620164Y-87341581D01*
X120444856Y-87430904D01*
X120285678Y-87546555D01*
X120146555Y-87685678D01*
X120030904Y-87844856D01*
X119941581Y-88020162D01*
X119880781Y-88207283D01*
X119874016Y-88250000D01*
X118125984Y-88250000D01*
X118119218Y-88207283D01*
X118058418Y-88020162D01*
X117969095Y-87844856D01*
X117853444Y-87685678D01*
X117714321Y-87546555D01*
X117555143Y-87430904D01*
X117379835Y-87341581D01*
X117192705Y-87280778D01*
X116998382Y-87250000D01*
X116750000Y-87250000D01*
X116750000Y-87951517D01*
X116731591Y-87940889D01*
X116578991Y-87900000D01*
X116421009Y-87900000D01*
X116268409Y-87940889D01*
X116250000Y-87951517D01*
X116250000Y-87250000D01*
X116001618Y-87250000D01*
X115807294Y-87280778D01*
X115620164Y-87341581D01*
X115444856Y-87430904D01*
X115285678Y-87546555D01*
X115146555Y-87685678D01*
X115030904Y-87844856D01*
X114941581Y-88020162D01*
X114880781Y-88207283D01*
X114874016Y-88250000D01*
X114500000Y-88250000D01*
X114500000Y-87076636D01*
X114519685Y-87009597D01*
X114568546Y-86965727D01*
X115473818Y-86513091D01*
X115529272Y-86500000D01*
X125946387Y-86500000D01*
X126013426Y-86519685D01*
G37*
%TD.AperFunction*%
%TD*%
%TA.AperFunction,Conductor*%
%TO.N,/LED5*%
G36*
X156315000Y-92837639D02*
G01*
X156298351Y-92830743D01*
X156143793Y-92800000D01*
X155986207Y-92800000D01*
X155831649Y-92830743D01*
X155815000Y-92837639D01*
X155815000Y-90962360D01*
X155831649Y-90969257D01*
X155986207Y-91000000D01*
X156143793Y-91000000D01*
X156298351Y-90969257D01*
X156315000Y-90962360D01*
X156315000Y-92837639D01*
G37*
%TD.AperFunction*%
%TA.AperFunction,Conductor*%
G36*
X122019089Y-79506363D02*
G01*
X133989070Y-83496356D01*
X134010067Y-83505592D01*
X138500000Y-86000000D01*
X138500002Y-86000000D01*
X138500004Y-86000001D01*
X152925223Y-87169612D01*
X156964285Y-87497104D01*
X157028664Y-87521498D01*
X158892173Y-88919130D01*
X158955899Y-88966924D01*
X158997720Y-89022895D01*
X159004990Y-89054898D01*
X159494741Y-94442161D01*
X159481207Y-94510707D01*
X159458931Y-94541068D01*
X157039867Y-96960132D01*
X156978544Y-96993617D01*
X156943751Y-96996164D01*
X135062530Y-95504263D01*
X134996985Y-95480064D01*
X134966351Y-95447123D01*
X133967217Y-93877055D01*
X133076086Y-92476706D01*
X131501978Y-90003109D01*
X131498215Y-89996788D01*
X131472221Y-89949999D01*
X154383244Y-89949999D01*
X154383245Y-89950000D01*
X155302639Y-89950000D01*
X155295743Y-89966649D01*
X155265000Y-90121207D01*
X155265000Y-90278793D01*
X155295743Y-90433351D01*
X155302639Y-90450000D01*
X154383244Y-90450000D01*
X154394087Y-90532367D01*
X154451764Y-90747620D01*
X154537045Y-90953502D01*
X154537054Y-90953520D01*
X154648464Y-91146491D01*
X154648466Y-91146495D01*
X154784130Y-91323293D01*
X154784138Y-91323302D01*
X154941698Y-91480862D01*
X154941706Y-91480869D01*
X155118504Y-91616533D01*
X155118508Y-91616535D01*
X155311479Y-91727945D01*
X155311492Y-91727952D01*
X155450274Y-91785439D01*
X155504677Y-91829281D01*
X155526741Y-91895575D01*
X155509461Y-91963274D01*
X155458324Y-92010884D01*
X155450274Y-92014561D01*
X155311492Y-92072047D01*
X155311479Y-92072054D01*
X155118508Y-92183464D01*
X155118504Y-92183466D01*
X154941706Y-92319130D01*
X154784130Y-92476706D01*
X154648466Y-92653504D01*
X154648464Y-92653508D01*
X154537054Y-92846479D01*
X154537045Y-92846497D01*
X154451764Y-93052379D01*
X154394087Y-93267632D01*
X154383244Y-93349999D01*
X154383245Y-93350000D01*
X155302639Y-93350000D01*
X155295743Y-93366649D01*
X155265000Y-93521207D01*
X155265000Y-93678793D01*
X155295743Y-93833351D01*
X155302639Y-93850000D01*
X154383244Y-93850000D01*
X154394087Y-93932367D01*
X154451764Y-94147620D01*
X154537045Y-94353502D01*
X154537054Y-94353520D01*
X154648464Y-94546491D01*
X154648466Y-94546495D01*
X154784130Y-94723293D01*
X154784138Y-94723302D01*
X154941698Y-94880862D01*
X154941706Y-94880869D01*
X155118504Y-95016533D01*
X155118508Y-95016535D01*
X155311479Y-95127945D01*
X155311497Y-95127954D01*
X155517379Y-95213235D01*
X155732632Y-95270912D01*
X155814999Y-95281755D01*
X155815000Y-95281755D01*
X155815000Y-94362360D01*
X155831649Y-94369257D01*
X155986207Y-94400000D01*
X156143793Y-94400000D01*
X156298351Y-94369257D01*
X156315000Y-94362360D01*
X156315000Y-95281755D01*
X156397367Y-95270912D01*
X156612620Y-95213235D01*
X156818502Y-95127954D01*
X156818520Y-95127945D01*
X157011491Y-95016535D01*
X157011495Y-95016533D01*
X157188293Y-94880869D01*
X157188302Y-94880862D01*
X157345862Y-94723302D01*
X157345869Y-94723293D01*
X157481533Y-94546495D01*
X157481535Y-94546491D01*
X157592945Y-94353520D01*
X157592954Y-94353502D01*
X157678235Y-94147620D01*
X157735912Y-93932367D01*
X157746756Y-93850000D01*
X156827361Y-93850000D01*
X156834257Y-93833351D01*
X156865000Y-93678793D01*
X156865000Y-93521207D01*
X156834257Y-93366649D01*
X156827361Y-93350000D01*
X157746755Y-93350000D01*
X157746755Y-93349999D01*
X157735912Y-93267632D01*
X157678235Y-93052379D01*
X157592954Y-92846497D01*
X157592945Y-92846479D01*
X157481535Y-92653508D01*
X157481533Y-92653504D01*
X157345869Y-92476706D01*
X157345862Y-92476698D01*
X157188302Y-92319138D01*
X157188293Y-92319130D01*
X157011495Y-92183466D01*
X157011491Y-92183464D01*
X156818520Y-92072054D01*
X156818502Y-92072045D01*
X156679726Y-92014561D01*
X156625322Y-91970719D01*
X156603258Y-91904425D01*
X156620538Y-91836726D01*
X156671675Y-91789116D01*
X156679726Y-91785439D01*
X156818502Y-91727954D01*
X156818520Y-91727945D01*
X157011491Y-91616535D01*
X157011495Y-91616533D01*
X157188293Y-91480869D01*
X157188302Y-91480862D01*
X157345862Y-91323302D01*
X157345869Y-91323293D01*
X157481533Y-91146495D01*
X157481535Y-91146491D01*
X157592945Y-90953520D01*
X157592954Y-90953502D01*
X157678235Y-90747620D01*
X157735912Y-90532367D01*
X157746756Y-90450000D01*
X156827361Y-90450000D01*
X156834257Y-90433351D01*
X156865000Y-90278793D01*
X156865000Y-90121207D01*
X156834257Y-89966649D01*
X156827361Y-89950000D01*
X157746755Y-89950000D01*
X157746755Y-89949999D01*
X157735912Y-89867632D01*
X157678235Y-89652379D01*
X157592954Y-89446497D01*
X157592945Y-89446479D01*
X157481535Y-89253508D01*
X157481533Y-89253504D01*
X157345869Y-89076706D01*
X157345862Y-89076698D01*
X157188302Y-88919138D01*
X157188293Y-88919130D01*
X157011495Y-88783466D01*
X157011491Y-88783464D01*
X156818520Y-88672054D01*
X156818502Y-88672045D01*
X156612618Y-88586763D01*
X156397363Y-88529087D01*
X156315000Y-88518242D01*
X156315000Y-89437639D01*
X156298351Y-89430743D01*
X156143793Y-89400000D01*
X155986207Y-89400000D01*
X155831649Y-89430743D01*
X155815000Y-89437639D01*
X155815000Y-88518242D01*
X155814999Y-88518242D01*
X155732636Y-88529087D01*
X155517381Y-88586763D01*
X155311497Y-88672045D01*
X155311479Y-88672054D01*
X155118508Y-88783464D01*
X155118504Y-88783466D01*
X154941706Y-88919130D01*
X154784130Y-89076706D01*
X154648466Y-89253504D01*
X154648464Y-89253508D01*
X154537054Y-89446479D01*
X154537045Y-89446497D01*
X154451764Y-89652379D01*
X154394087Y-89867632D01*
X154383244Y-89949999D01*
X131472221Y-89949999D01*
X129000000Y-85500000D01*
X128999999Y-85499999D01*
X127124997Y-84666665D01*
X124500000Y-83500000D01*
X124499998Y-83499999D01*
X124499996Y-83499999D01*
X114547710Y-83002385D01*
X114481737Y-82979377D01*
X114466221Y-82966221D01*
X113549644Y-82049644D01*
X113516159Y-81988321D01*
X113517026Y-81931892D01*
X113687499Y-81250000D01*
X114874016Y-81250000D01*
X115951518Y-81250000D01*
X115940889Y-81268409D01*
X115900000Y-81421009D01*
X115900000Y-81578991D01*
X115940889Y-81731591D01*
X115951518Y-81750000D01*
X114874016Y-81750000D01*
X114880781Y-81792716D01*
X114941581Y-81979837D01*
X115030904Y-82155143D01*
X115146555Y-82314321D01*
X115285678Y-82453444D01*
X115444856Y-82569095D01*
X115620164Y-82658418D01*
X115807294Y-82719221D01*
X116001618Y-82750000D01*
X116250000Y-82750000D01*
X116250000Y-82048482D01*
X116268409Y-82059111D01*
X116421009Y-82100000D01*
X116578991Y-82100000D01*
X116731591Y-82059111D01*
X116750000Y-82048482D01*
X116750000Y-82750000D01*
X116998382Y-82750000D01*
X117192705Y-82719221D01*
X117379835Y-82658418D01*
X117555143Y-82569095D01*
X117714321Y-82453444D01*
X117853444Y-82314321D01*
X117969095Y-82155143D01*
X118058418Y-81979837D01*
X118119218Y-81792716D01*
X118125984Y-81750000D01*
X117048482Y-81750000D01*
X117059111Y-81731591D01*
X117100000Y-81578991D01*
X117100000Y-81421009D01*
X117059111Y-81268409D01*
X117048482Y-81250000D01*
X118125984Y-81250000D01*
X119874016Y-81250000D01*
X120951518Y-81250000D01*
X120940889Y-81268409D01*
X120900000Y-81421009D01*
X120900000Y-81578991D01*
X120940889Y-81731591D01*
X120951518Y-81750000D01*
X119874016Y-81750000D01*
X119880781Y-81792716D01*
X119941581Y-81979837D01*
X120030904Y-82155143D01*
X120146555Y-82314321D01*
X120285678Y-82453444D01*
X120444856Y-82569095D01*
X120620164Y-82658418D01*
X120807294Y-82719221D01*
X121001618Y-82750000D01*
X121250000Y-82750000D01*
X121250000Y-82048482D01*
X121268409Y-82059111D01*
X121421009Y-82100000D01*
X121578991Y-82100000D01*
X121731591Y-82059111D01*
X121750000Y-82048482D01*
X121750000Y-82750000D01*
X121998382Y-82750000D01*
X122192705Y-82719221D01*
X122379835Y-82658418D01*
X122555143Y-82569095D01*
X122714321Y-82453444D01*
X122853444Y-82314321D01*
X122969095Y-82155143D01*
X123058418Y-81979837D01*
X123119218Y-81792716D01*
X123125984Y-81750000D01*
X122048482Y-81750000D01*
X122059111Y-81731591D01*
X122100000Y-81578991D01*
X122100000Y-81421009D01*
X122059111Y-81268409D01*
X122048482Y-81250000D01*
X123125984Y-81250000D01*
X123119218Y-81207283D01*
X123058418Y-81020162D01*
X122969095Y-80844856D01*
X122853444Y-80685678D01*
X122714321Y-80546555D01*
X122555143Y-80430904D01*
X122379835Y-80341581D01*
X122192705Y-80280778D01*
X121998382Y-80250000D01*
X121750000Y-80250000D01*
X121750000Y-80951517D01*
X121731591Y-80940889D01*
X121578991Y-80900000D01*
X121421009Y-80900000D01*
X121268409Y-80940889D01*
X121250000Y-80951517D01*
X121250000Y-80250000D01*
X121001618Y-80250000D01*
X120807294Y-80280778D01*
X120620164Y-80341581D01*
X120444856Y-80430904D01*
X120285678Y-80546555D01*
X120146555Y-80685678D01*
X120030904Y-80844856D01*
X119941581Y-81020162D01*
X119880781Y-81207283D01*
X119874016Y-81250000D01*
X118125984Y-81250000D01*
X118119218Y-81207283D01*
X118058418Y-81020162D01*
X117969095Y-80844856D01*
X117853444Y-80685678D01*
X117714321Y-80546555D01*
X117555143Y-80430904D01*
X117379835Y-80341581D01*
X117192705Y-80280778D01*
X116998382Y-80250000D01*
X116750000Y-80250000D01*
X116750000Y-80951517D01*
X116731591Y-80940889D01*
X116578991Y-80900000D01*
X116421009Y-80900000D01*
X116268409Y-80940889D01*
X116250000Y-80951517D01*
X116250000Y-80250000D01*
X116001618Y-80250000D01*
X115807294Y-80280778D01*
X115620164Y-80341581D01*
X115444856Y-80430904D01*
X115285678Y-80546555D01*
X115146555Y-80685678D01*
X115030904Y-80844856D01*
X114941581Y-81020162D01*
X114880781Y-81207283D01*
X114874016Y-81250000D01*
X113687499Y-81250000D01*
X113983491Y-80066034D01*
X114018847Y-80005773D01*
X114064573Y-79978475D01*
X115480911Y-79506363D01*
X115520123Y-79500000D01*
X121979877Y-79500000D01*
X122019089Y-79506363D01*
G37*
%TD.AperFunction*%
%TD*%
%TA.AperFunction,Conductor*%
%TO.N,/LED2*%
G36*
X152488127Y-54499575D02*
G01*
X152511570Y-54502670D01*
X155845406Y-55272016D01*
X155906301Y-55306271D01*
X155939011Y-55368012D01*
X155933149Y-55437635D01*
X155890576Y-55493036D01*
X155833708Y-55515780D01*
X155732643Y-55529086D01*
X155732632Y-55529088D01*
X155517381Y-55586763D01*
X155311497Y-55672045D01*
X155311479Y-55672054D01*
X155118508Y-55783464D01*
X155118504Y-55783466D01*
X154941706Y-55919130D01*
X154784130Y-56076706D01*
X154648466Y-56253504D01*
X154648464Y-56253508D01*
X154537054Y-56446479D01*
X154537045Y-56446497D01*
X154451764Y-56652379D01*
X154394087Y-56867632D01*
X154383244Y-56949999D01*
X154383245Y-56950000D01*
X155302639Y-56950000D01*
X155295743Y-56966649D01*
X155265000Y-57121207D01*
X155265000Y-57278793D01*
X155295743Y-57433351D01*
X155302639Y-57450000D01*
X154383244Y-57450000D01*
X154394087Y-57532367D01*
X154451764Y-57747620D01*
X154537045Y-57953502D01*
X154537054Y-57953520D01*
X154648464Y-58146491D01*
X154648466Y-58146495D01*
X154784130Y-58323293D01*
X154784138Y-58323302D01*
X154941698Y-58480862D01*
X154941706Y-58480869D01*
X155118504Y-58616533D01*
X155118508Y-58616535D01*
X155311479Y-58727945D01*
X155311492Y-58727952D01*
X155450274Y-58785439D01*
X155504677Y-58829281D01*
X155526741Y-58895575D01*
X155509461Y-58963274D01*
X155458324Y-59010884D01*
X155450274Y-59014561D01*
X155311492Y-59072047D01*
X155311479Y-59072054D01*
X155118508Y-59183464D01*
X155118504Y-59183466D01*
X154941706Y-59319130D01*
X154784130Y-59476706D01*
X154648466Y-59653504D01*
X154648464Y-59653508D01*
X154537054Y-59846479D01*
X154537045Y-59846497D01*
X154451764Y-60052379D01*
X154394087Y-60267632D01*
X154383244Y-60349999D01*
X154383245Y-60350000D01*
X155302639Y-60350000D01*
X155295743Y-60366649D01*
X155265000Y-60521207D01*
X155265000Y-60678793D01*
X155295743Y-60833351D01*
X155302639Y-60850000D01*
X154383244Y-60850000D01*
X154394087Y-60932367D01*
X154451764Y-61147620D01*
X154537045Y-61353502D01*
X154537054Y-61353520D01*
X154648464Y-61546491D01*
X154648466Y-61546495D01*
X154784130Y-61723293D01*
X154784138Y-61723302D01*
X154941698Y-61880862D01*
X154941706Y-61880869D01*
X155118504Y-62016533D01*
X155118508Y-62016535D01*
X155311479Y-62127945D01*
X155311497Y-62127954D01*
X155517379Y-62213235D01*
X155732632Y-62270912D01*
X155814999Y-62281755D01*
X155815000Y-62281755D01*
X155815000Y-61362360D01*
X155831649Y-61369257D01*
X155986207Y-61400000D01*
X156143793Y-61400000D01*
X156298351Y-61369257D01*
X156315000Y-61362360D01*
X156315000Y-62281755D01*
X156397367Y-62270912D01*
X156612620Y-62213235D01*
X156818502Y-62127954D01*
X156818514Y-62127949D01*
X156953091Y-62050252D01*
X157020992Y-62033779D01*
X157087018Y-62056632D01*
X157130209Y-62111553D01*
X157136850Y-62181107D01*
X157111919Y-62235101D01*
X156540456Y-62949429D01*
X156483205Y-62989481D01*
X156435380Y-62995692D01*
X141500026Y-62000001D01*
X141500004Y-62000000D01*
X141500000Y-62000000D01*
X141499995Y-62000000D01*
X130500000Y-62000000D01*
X128012040Y-62497592D01*
X127987722Y-62500000D01*
X115541333Y-62500000D01*
X115474294Y-62480315D01*
X115466933Y-62475200D01*
X115209006Y-62281755D01*
X113549600Y-61037200D01*
X113546900Y-61033586D01*
X113542797Y-61031713D01*
X113526178Y-61005854D01*
X113507779Y-60981229D01*
X113506777Y-60975665D01*
X113505023Y-60972935D01*
X113500000Y-60938000D01*
X113500000Y-60250000D01*
X114874016Y-60250000D01*
X115951518Y-60250000D01*
X115940889Y-60268409D01*
X115900000Y-60421009D01*
X115900000Y-60578991D01*
X115940889Y-60731591D01*
X115951518Y-60750000D01*
X114874016Y-60750000D01*
X114880781Y-60792716D01*
X114941581Y-60979837D01*
X115030904Y-61155143D01*
X115146555Y-61314321D01*
X115285678Y-61453444D01*
X115444856Y-61569095D01*
X115620164Y-61658418D01*
X115807294Y-61719221D01*
X116001618Y-61750000D01*
X116250000Y-61750000D01*
X116250000Y-61048482D01*
X116268409Y-61059111D01*
X116421009Y-61100000D01*
X116578991Y-61100000D01*
X116731591Y-61059111D01*
X116750000Y-61048482D01*
X116750000Y-61750000D01*
X116998382Y-61750000D01*
X117192705Y-61719221D01*
X117379835Y-61658418D01*
X117555143Y-61569095D01*
X117714321Y-61453444D01*
X117853444Y-61314321D01*
X117969095Y-61155143D01*
X118058418Y-60979837D01*
X118119218Y-60792716D01*
X118125984Y-60750000D01*
X117048482Y-60750000D01*
X117059111Y-60731591D01*
X117100000Y-60578991D01*
X117100000Y-60421009D01*
X117059111Y-60268409D01*
X117048482Y-60250000D01*
X118125984Y-60250000D01*
X119874016Y-60250000D01*
X120951518Y-60250000D01*
X120940889Y-60268409D01*
X120900000Y-60421009D01*
X120900000Y-60578991D01*
X120940889Y-60731591D01*
X120951518Y-60750000D01*
X119874016Y-60750000D01*
X119880781Y-60792716D01*
X119941581Y-60979837D01*
X120030904Y-61155143D01*
X120146555Y-61314321D01*
X120285678Y-61453444D01*
X120444856Y-61569095D01*
X120620164Y-61658418D01*
X120807294Y-61719221D01*
X121001618Y-61750000D01*
X121250000Y-61750000D01*
X121250000Y-61048482D01*
X121268409Y-61059111D01*
X121421009Y-61100000D01*
X121578991Y-61100000D01*
X121731591Y-61059111D01*
X121750000Y-61048482D01*
X121750000Y-61750000D01*
X121998382Y-61750000D01*
X122192705Y-61719221D01*
X122379835Y-61658418D01*
X122555143Y-61569095D01*
X122714321Y-61453444D01*
X122853444Y-61314321D01*
X122969095Y-61155143D01*
X123058418Y-60979837D01*
X123119219Y-60792713D01*
X123119220Y-60792709D01*
X123119457Y-60791212D01*
X123119477Y-60791085D01*
X123125984Y-60750000D01*
X122048482Y-60750000D01*
X122059111Y-60731591D01*
X122100000Y-60578991D01*
X122100000Y-60421009D01*
X122059111Y-60268409D01*
X122048482Y-60250000D01*
X123125984Y-60250000D01*
X123119218Y-60207283D01*
X123058418Y-60020162D01*
X122969095Y-59844856D01*
X122853444Y-59685678D01*
X122714321Y-59546555D01*
X122555143Y-59430904D01*
X122379835Y-59341581D01*
X122192705Y-59280778D01*
X121998382Y-59250000D01*
X121750000Y-59250000D01*
X121750000Y-59951517D01*
X121731591Y-59940889D01*
X121578991Y-59900000D01*
X121421009Y-59900000D01*
X121268409Y-59940889D01*
X121250000Y-59951517D01*
X121250000Y-59250000D01*
X121001618Y-59250000D01*
X120807294Y-59280778D01*
X120620164Y-59341581D01*
X120444856Y-59430904D01*
X120285678Y-59546555D01*
X120146555Y-59685678D01*
X120030904Y-59844856D01*
X119941581Y-60020162D01*
X119880781Y-60207283D01*
X119874016Y-60250000D01*
X118125984Y-60250000D01*
X118119218Y-60207283D01*
X118058418Y-60020162D01*
X117969095Y-59844856D01*
X117853444Y-59685678D01*
X117714321Y-59546555D01*
X117555143Y-59430904D01*
X117379835Y-59341581D01*
X117192705Y-59280778D01*
X116998382Y-59250000D01*
X116750000Y-59250000D01*
X116750000Y-59951517D01*
X116731591Y-59940889D01*
X116578991Y-59900000D01*
X116421009Y-59900000D01*
X116268409Y-59940889D01*
X116250000Y-59951517D01*
X116250000Y-59250000D01*
X116001618Y-59250000D01*
X115807294Y-59280778D01*
X115620164Y-59341581D01*
X115444856Y-59430904D01*
X115285678Y-59546555D01*
X115146555Y-59685678D01*
X115030904Y-59844856D01*
X114941581Y-60020162D01*
X114880781Y-60207283D01*
X114874016Y-60250000D01*
X113500000Y-60250000D01*
X113500000Y-60076636D01*
X113519685Y-60009597D01*
X113568546Y-59965727D01*
X115473818Y-59013091D01*
X115529272Y-59000000D01*
X122999999Y-59000000D01*
X123000000Y-59000000D01*
X128979874Y-55511739D01*
X129023015Y-55496366D01*
X129394978Y-55437635D01*
X138488198Y-54001863D01*
X138511943Y-54000426D01*
X152488127Y-54499575D01*
G37*
%TD.AperFunction*%
%TA.AperFunction,Conductor*%
G36*
X157116169Y-55565269D02*
G01*
X158892452Y-55975181D01*
X158953348Y-56009436D01*
X158986058Y-56071177D01*
X158987811Y-56109700D01*
X158503967Y-60464289D01*
X158477553Y-60528057D01*
X157895130Y-61256086D01*
X157837879Y-61296138D01*
X157768064Y-61298881D01*
X157707848Y-61263442D01*
X157676351Y-61201075D01*
X157678527Y-61146530D01*
X157735912Y-60932367D01*
X157746756Y-60850000D01*
X156827361Y-60850000D01*
X156834257Y-60833351D01*
X156865000Y-60678793D01*
X156865000Y-60521207D01*
X156834257Y-60366649D01*
X156827361Y-60350000D01*
X157746755Y-60350000D01*
X157746755Y-60349999D01*
X157735912Y-60267632D01*
X157678235Y-60052379D01*
X157592954Y-59846497D01*
X157592945Y-59846479D01*
X157481535Y-59653508D01*
X157481533Y-59653504D01*
X157345869Y-59476706D01*
X157345862Y-59476698D01*
X157188302Y-59319138D01*
X157188293Y-59319130D01*
X157011495Y-59183466D01*
X157011491Y-59183464D01*
X156818520Y-59072054D01*
X156818502Y-59072045D01*
X156679726Y-59014561D01*
X156625322Y-58970719D01*
X156603258Y-58904425D01*
X156620538Y-58836726D01*
X156671675Y-58789116D01*
X156679726Y-58785439D01*
X156818502Y-58727954D01*
X156818520Y-58727945D01*
X157011491Y-58616535D01*
X157011495Y-58616533D01*
X157188293Y-58480869D01*
X157188302Y-58480862D01*
X157345862Y-58323302D01*
X157345869Y-58323293D01*
X157481533Y-58146495D01*
X157481535Y-58146491D01*
X157592945Y-57953520D01*
X157592954Y-57953502D01*
X157678235Y-57747620D01*
X157735912Y-57532367D01*
X157746756Y-57450000D01*
X156827361Y-57450000D01*
X156834257Y-57433351D01*
X156865000Y-57278793D01*
X156865000Y-57121207D01*
X156834257Y-56966649D01*
X156827361Y-56950000D01*
X157746755Y-56950000D01*
X157746755Y-56949999D01*
X157735912Y-56867632D01*
X157678235Y-56652379D01*
X157592954Y-56446497D01*
X157592945Y-56446479D01*
X157481535Y-56253508D01*
X157481533Y-56253504D01*
X157345869Y-56076706D01*
X157345862Y-56076698D01*
X157188302Y-55919138D01*
X157188293Y-55919130D01*
X157012803Y-55784470D01*
X156971601Y-55728042D01*
X156967446Y-55658296D01*
X157001659Y-55597376D01*
X157063376Y-55564624D01*
X157116169Y-55565269D01*
G37*
%TD.AperFunction*%
%TA.AperFunction,Conductor*%
G36*
X156315000Y-59837639D02*
G01*
X156298351Y-59830743D01*
X156143793Y-59800000D01*
X155986207Y-59800000D01*
X155831649Y-59830743D01*
X155815000Y-59837639D01*
X155815000Y-57962360D01*
X155831649Y-57969257D01*
X155986207Y-58000000D01*
X156143793Y-58000000D01*
X156298351Y-57969257D01*
X156315000Y-57962360D01*
X156315000Y-59837639D01*
G37*
%TD.AperFunction*%
%TD*%
%TA.AperFunction,Conductor*%
%TO.N,/LED4*%
G36*
X123514808Y-72503702D02*
G01*
X131484616Y-74496154D01*
X131513920Y-74507593D01*
X136083333Y-77000000D01*
X137000000Y-77500000D01*
X155263780Y-77934851D01*
X155330329Y-77956126D01*
X155374815Y-78010004D01*
X155383109Y-78079380D01*
X155352580Y-78142226D01*
X155314530Y-78169037D01*
X155315130Y-78170254D01*
X155311479Y-78172054D01*
X155118508Y-78283464D01*
X155118504Y-78283466D01*
X154941706Y-78419130D01*
X154784130Y-78576706D01*
X154648466Y-78753504D01*
X154648464Y-78753508D01*
X154537054Y-78946479D01*
X154537045Y-78946497D01*
X154451764Y-79152379D01*
X154394087Y-79367632D01*
X154383244Y-79449999D01*
X154383245Y-79450000D01*
X155302639Y-79450000D01*
X155295743Y-79466649D01*
X155265000Y-79621207D01*
X155265000Y-79778793D01*
X155295743Y-79933351D01*
X155302639Y-79950000D01*
X154383244Y-79950000D01*
X154394087Y-80032367D01*
X154451764Y-80247620D01*
X154537045Y-80453502D01*
X154537054Y-80453520D01*
X154648464Y-80646491D01*
X154648466Y-80646495D01*
X154784130Y-80823293D01*
X154784138Y-80823302D01*
X154941698Y-80980862D01*
X154941706Y-80980869D01*
X155118504Y-81116533D01*
X155118508Y-81116535D01*
X155311479Y-81227945D01*
X155311492Y-81227952D01*
X155450274Y-81285439D01*
X155504677Y-81329281D01*
X155526741Y-81395575D01*
X155509461Y-81463274D01*
X155458324Y-81510884D01*
X155450274Y-81514561D01*
X155311492Y-81572047D01*
X155311479Y-81572054D01*
X155118508Y-81683464D01*
X155118504Y-81683466D01*
X154941706Y-81819130D01*
X154784130Y-81976706D01*
X154648466Y-82153504D01*
X154648464Y-82153508D01*
X154537054Y-82346479D01*
X154537045Y-82346497D01*
X154451764Y-82552379D01*
X154394087Y-82767632D01*
X154383244Y-82849999D01*
X154383245Y-82850000D01*
X155302639Y-82850000D01*
X155295743Y-82866649D01*
X155265000Y-83021207D01*
X155265000Y-83178793D01*
X155295743Y-83333351D01*
X155302639Y-83350000D01*
X154383244Y-83350000D01*
X154394087Y-83432367D01*
X154451764Y-83647620D01*
X154537045Y-83853502D01*
X154537054Y-83853520D01*
X154648464Y-84046491D01*
X154648466Y-84046495D01*
X154784130Y-84223293D01*
X154784138Y-84223302D01*
X154941698Y-84380862D01*
X154941706Y-84380869D01*
X155118504Y-84516533D01*
X155118508Y-84516535D01*
X155311479Y-84627945D01*
X155311497Y-84627954D01*
X155517379Y-84713235D01*
X155732632Y-84770912D01*
X155814999Y-84781755D01*
X155815000Y-84781755D01*
X155815000Y-83862360D01*
X155831649Y-83869257D01*
X155986207Y-83900000D01*
X156143793Y-83900000D01*
X156298351Y-83869257D01*
X156315000Y-83862360D01*
X156315000Y-84781755D01*
X156397367Y-84770912D01*
X156612620Y-84713235D01*
X156818502Y-84627954D01*
X156818520Y-84627945D01*
X157011491Y-84516535D01*
X157011495Y-84516533D01*
X157188293Y-84380869D01*
X157188302Y-84380862D01*
X157345862Y-84223302D01*
X157345869Y-84223293D01*
X157481533Y-84046495D01*
X157481535Y-84046491D01*
X157592945Y-83853520D01*
X157592954Y-83853502D01*
X157678235Y-83647620D01*
X157735912Y-83432367D01*
X157746756Y-83350000D01*
X156827361Y-83350000D01*
X156834257Y-83333351D01*
X156865000Y-83178793D01*
X156865000Y-83021207D01*
X156834257Y-82866649D01*
X156827361Y-82850000D01*
X157746755Y-82850000D01*
X157746755Y-82849999D01*
X157735912Y-82767632D01*
X157678235Y-82552379D01*
X157592954Y-82346497D01*
X157592945Y-82346479D01*
X157481535Y-82153508D01*
X157481533Y-82153504D01*
X157345869Y-81976706D01*
X157345862Y-81976698D01*
X157188302Y-81819138D01*
X157188293Y-81819130D01*
X157011495Y-81683466D01*
X157011491Y-81683464D01*
X156818520Y-81572054D01*
X156818502Y-81572045D01*
X156679726Y-81514561D01*
X156625322Y-81470719D01*
X156603258Y-81404425D01*
X156620538Y-81336726D01*
X156671675Y-81289116D01*
X156679726Y-81285439D01*
X156818502Y-81227954D01*
X156818520Y-81227945D01*
X157011491Y-81116535D01*
X157011495Y-81116533D01*
X157188293Y-80980869D01*
X157188302Y-80980862D01*
X157345862Y-80823302D01*
X157345869Y-80823293D01*
X157481533Y-80646495D01*
X157481535Y-80646491D01*
X157592945Y-80453520D01*
X157592954Y-80453502D01*
X157678235Y-80247620D01*
X157735912Y-80032367D01*
X157746756Y-79950000D01*
X156827361Y-79950000D01*
X156834257Y-79933351D01*
X156865000Y-79778793D01*
X156865000Y-79621207D01*
X156834257Y-79466649D01*
X156827361Y-79450000D01*
X157746755Y-79450000D01*
X157746755Y-79449999D01*
X157735912Y-79367632D01*
X157678235Y-79152379D01*
X157592954Y-78946497D01*
X157592945Y-78946479D01*
X157481535Y-78753508D01*
X157481533Y-78753504D01*
X157345869Y-78576706D01*
X157345862Y-78576698D01*
X157188302Y-78419138D01*
X157188293Y-78419130D01*
X157011498Y-78283469D01*
X156877620Y-78206176D01*
X156829404Y-78155609D01*
X156816180Y-78087002D01*
X156842148Y-78022137D01*
X156899062Y-77981608D01*
X156942569Y-77974823D01*
X157907632Y-77997800D01*
X157974182Y-78019075D01*
X158018667Y-78072953D01*
X158024310Y-78089138D01*
X159484042Y-83441490D01*
X159482690Y-83511347D01*
X159463611Y-83548517D01*
X158038663Y-85448448D01*
X157982692Y-85490269D01*
X157935590Y-85497987D01*
X142019844Y-85000620D01*
X141981341Y-84993215D01*
X140976873Y-84627954D01*
X131016423Y-81005972D01*
X130985866Y-80989721D01*
X130513930Y-80646495D01*
X128755494Y-79367632D01*
X125500000Y-76999999D01*
X120055554Y-76222222D01*
X118500000Y-76000000D01*
X118499998Y-76000000D01*
X114576636Y-76000000D01*
X114509597Y-75980315D01*
X114465727Y-75931454D01*
X114284548Y-75569095D01*
X114157161Y-75314321D01*
X114077572Y-75155143D01*
X113989919Y-74979837D01*
X113625000Y-74250000D01*
X114874016Y-74250000D01*
X115951518Y-74250000D01*
X115940889Y-74268409D01*
X115900000Y-74421009D01*
X115900000Y-74578991D01*
X115940889Y-74731591D01*
X115951518Y-74750000D01*
X114874016Y-74750000D01*
X114880781Y-74792716D01*
X114941581Y-74979837D01*
X115030904Y-75155143D01*
X115146555Y-75314321D01*
X115285678Y-75453444D01*
X115444856Y-75569095D01*
X115620164Y-75658418D01*
X115807294Y-75719221D01*
X116001618Y-75750000D01*
X116250000Y-75750000D01*
X116250000Y-75048482D01*
X116268409Y-75059111D01*
X116421009Y-75100000D01*
X116578991Y-75100000D01*
X116731591Y-75059111D01*
X116750000Y-75048482D01*
X116750000Y-75750000D01*
X116998382Y-75750000D01*
X117192705Y-75719221D01*
X117379835Y-75658418D01*
X117555143Y-75569095D01*
X117714321Y-75453444D01*
X117853444Y-75314321D01*
X117969095Y-75155143D01*
X118058418Y-74979837D01*
X118119218Y-74792716D01*
X118125984Y-74750000D01*
X117048482Y-74750000D01*
X117059111Y-74731591D01*
X117100000Y-74578991D01*
X117100000Y-74421009D01*
X117059111Y-74268409D01*
X117048482Y-74250000D01*
X118125984Y-74250000D01*
X119874016Y-74250000D01*
X120951518Y-74250000D01*
X120940889Y-74268409D01*
X120900000Y-74421009D01*
X120900000Y-74578991D01*
X120940889Y-74731591D01*
X120951518Y-74750000D01*
X119874016Y-74750000D01*
X119880781Y-74792716D01*
X119941581Y-74979837D01*
X120030904Y-75155143D01*
X120146555Y-75314321D01*
X120285678Y-75453444D01*
X120444856Y-75569095D01*
X120620164Y-75658418D01*
X120807294Y-75719221D01*
X121001618Y-75750000D01*
X121250000Y-75750000D01*
X121250000Y-75048482D01*
X121268409Y-75059111D01*
X121421009Y-75100000D01*
X121578991Y-75100000D01*
X121731591Y-75059111D01*
X121750000Y-75048482D01*
X121750000Y-75750000D01*
X121998382Y-75750000D01*
X122192705Y-75719221D01*
X122379835Y-75658418D01*
X122555143Y-75569095D01*
X122714321Y-75453444D01*
X122853444Y-75314321D01*
X122969095Y-75155143D01*
X123058418Y-74979837D01*
X123119218Y-74792716D01*
X123125984Y-74750000D01*
X122048482Y-74750000D01*
X122059111Y-74731591D01*
X122100000Y-74578991D01*
X122100000Y-74421009D01*
X122059111Y-74268409D01*
X122048482Y-74250000D01*
X123125984Y-74250000D01*
X123119218Y-74207283D01*
X123058418Y-74020162D01*
X122969095Y-73844856D01*
X122853444Y-73685678D01*
X122714321Y-73546555D01*
X122555143Y-73430904D01*
X122379835Y-73341581D01*
X122192705Y-73280778D01*
X121998382Y-73250000D01*
X121750000Y-73250000D01*
X121750000Y-73951517D01*
X121731591Y-73940889D01*
X121578991Y-73900000D01*
X121421009Y-73900000D01*
X121268409Y-73940889D01*
X121250000Y-73951517D01*
X121250000Y-73250000D01*
X121001618Y-73250000D01*
X120807294Y-73280778D01*
X120620164Y-73341581D01*
X120444856Y-73430904D01*
X120285678Y-73546555D01*
X120146555Y-73685678D01*
X120030904Y-73844856D01*
X119941581Y-74020162D01*
X119880781Y-74207283D01*
X119874016Y-74250000D01*
X118125984Y-74250000D01*
X118119218Y-74207283D01*
X118058418Y-74020162D01*
X117969095Y-73844856D01*
X117853444Y-73685678D01*
X117714321Y-73546555D01*
X117555143Y-73430904D01*
X117379835Y-73341581D01*
X117192705Y-73280778D01*
X116998382Y-73250000D01*
X116750000Y-73250000D01*
X116750000Y-73951517D01*
X116731591Y-73940889D01*
X116578991Y-73900000D01*
X116421009Y-73900000D01*
X116268409Y-73940889D01*
X116250000Y-73951517D01*
X116250000Y-73250000D01*
X116001618Y-73250000D01*
X115807294Y-73280778D01*
X115620164Y-73341581D01*
X115444856Y-73430904D01*
X115285678Y-73546555D01*
X115146555Y-73685678D01*
X115030904Y-73844856D01*
X114941581Y-74020162D01*
X114880781Y-74207283D01*
X114874016Y-74250000D01*
X113625000Y-74250000D01*
X113603642Y-74207283D01*
X113522970Y-74045940D01*
X113510595Y-73977175D01*
X113516242Y-73951274D01*
X113971737Y-72584788D01*
X114011611Y-72527413D01*
X114076175Y-72500705D01*
X114089374Y-72500000D01*
X123484734Y-72500000D01*
X123514808Y-72503702D01*
G37*
%TD.AperFunction*%
%TA.AperFunction,Conductor*%
G36*
X156315000Y-82337639D02*
G01*
X156298351Y-82330743D01*
X156143793Y-82300000D01*
X155986207Y-82300000D01*
X155831649Y-82330743D01*
X155815000Y-82337639D01*
X155815000Y-80462360D01*
X155831649Y-80469257D01*
X155986207Y-80500000D01*
X156143793Y-80500000D01*
X156298351Y-80469257D01*
X156315000Y-80462360D01*
X156315000Y-82337639D01*
G37*
%TD.AperFunction*%
%TD*%
%TA.AperFunction,Conductor*%
%TO.N,/LED3*%
G36*
X156315000Y-71337639D02*
G01*
X156298351Y-71330743D01*
X156143793Y-71300000D01*
X155986207Y-71300000D01*
X155831649Y-71330743D01*
X155815000Y-71337639D01*
X155815000Y-69462360D01*
X155831649Y-69469257D01*
X155986207Y-69500000D01*
X156143793Y-69500000D01*
X156298351Y-69469257D01*
X156315000Y-69462360D01*
X156315000Y-71337639D01*
G37*
%TD.AperFunction*%
%TA.AperFunction,Conductor*%
G36*
X156989624Y-65019807D02*
G01*
X157034725Y-65069450D01*
X159475818Y-69951636D01*
X159488193Y-70020401D01*
X159481014Y-70050629D01*
X158025807Y-73931179D01*
X157983836Y-73987039D01*
X157927238Y-74010394D01*
X154522080Y-74496845D01*
X154478203Y-74495261D01*
X147813877Y-73046495D01*
X143902520Y-72196200D01*
X142999955Y-71999990D01*
X133500001Y-70000000D01*
X133499995Y-69999999D01*
X116599903Y-69034280D01*
X116025518Y-69001458D01*
X116016528Y-68999063D01*
X116010630Y-68999700D01*
X115977138Y-68988569D01*
X115969818Y-68984909D01*
X115918659Y-68937322D01*
X115901349Y-68869630D01*
X115923384Y-68803326D01*
X115977768Y-68759460D01*
X116025272Y-68750000D01*
X116250000Y-68750000D01*
X116250000Y-68048482D01*
X116268409Y-68059111D01*
X116421009Y-68100000D01*
X116578991Y-68100000D01*
X116731591Y-68059111D01*
X116750000Y-68048482D01*
X116750000Y-68750000D01*
X116998382Y-68750000D01*
X117192705Y-68719221D01*
X117379835Y-68658418D01*
X117555143Y-68569095D01*
X117714321Y-68453444D01*
X117853444Y-68314321D01*
X117969095Y-68155143D01*
X118058418Y-67979837D01*
X118119218Y-67792716D01*
X118125984Y-67750000D01*
X117048482Y-67750000D01*
X117059111Y-67731591D01*
X117100000Y-67578991D01*
X117100000Y-67421009D01*
X117059111Y-67268409D01*
X117048482Y-67250000D01*
X118125984Y-67250000D01*
X119874016Y-67250000D01*
X120951518Y-67250000D01*
X120940889Y-67268409D01*
X120900000Y-67421009D01*
X120900000Y-67578991D01*
X120940889Y-67731591D01*
X120951518Y-67750000D01*
X119874016Y-67750000D01*
X119880781Y-67792716D01*
X119941581Y-67979837D01*
X120030904Y-68155143D01*
X120146555Y-68314321D01*
X120285678Y-68453444D01*
X120444856Y-68569095D01*
X120620164Y-68658418D01*
X120807294Y-68719221D01*
X121001618Y-68750000D01*
X121250000Y-68750000D01*
X121250000Y-68048482D01*
X121268409Y-68059111D01*
X121421009Y-68100000D01*
X121578991Y-68100000D01*
X121731591Y-68059111D01*
X121750000Y-68048482D01*
X121750000Y-68750000D01*
X121998382Y-68750000D01*
X122192705Y-68719221D01*
X122379835Y-68658418D01*
X122555143Y-68569095D01*
X122714321Y-68453444D01*
X122714322Y-68453443D01*
X122717766Y-68449999D01*
X154383244Y-68449999D01*
X154383245Y-68450000D01*
X155302639Y-68450000D01*
X155295743Y-68466649D01*
X155265000Y-68621207D01*
X155265000Y-68778793D01*
X155295743Y-68933351D01*
X155302639Y-68950000D01*
X154383244Y-68950000D01*
X154394087Y-69032367D01*
X154451764Y-69247620D01*
X154537045Y-69453502D01*
X154537054Y-69453520D01*
X154648464Y-69646491D01*
X154648466Y-69646495D01*
X154784130Y-69823293D01*
X154784138Y-69823302D01*
X154941698Y-69980862D01*
X154941706Y-69980869D01*
X155118504Y-70116533D01*
X155118508Y-70116535D01*
X155311479Y-70227945D01*
X155311492Y-70227952D01*
X155450274Y-70285439D01*
X155504677Y-70329281D01*
X155526741Y-70395575D01*
X155509461Y-70463274D01*
X155458324Y-70510884D01*
X155450274Y-70514561D01*
X155311492Y-70572047D01*
X155311479Y-70572054D01*
X155118508Y-70683464D01*
X155118504Y-70683466D01*
X154941706Y-70819130D01*
X154784130Y-70976706D01*
X154648466Y-71153504D01*
X154648464Y-71153508D01*
X154537054Y-71346479D01*
X154537045Y-71346497D01*
X154451764Y-71552379D01*
X154394087Y-71767632D01*
X154383244Y-71849999D01*
X154383245Y-71850000D01*
X155302639Y-71850000D01*
X155295743Y-71866649D01*
X155265000Y-72021207D01*
X155265000Y-72178793D01*
X155295743Y-72333351D01*
X155302639Y-72350000D01*
X154383244Y-72350000D01*
X154394087Y-72432367D01*
X154451764Y-72647620D01*
X154537045Y-72853502D01*
X154537054Y-72853520D01*
X154648464Y-73046491D01*
X154648466Y-73046495D01*
X154784130Y-73223293D01*
X154784138Y-73223302D01*
X154941698Y-73380862D01*
X154941706Y-73380869D01*
X155118504Y-73516533D01*
X155118508Y-73516535D01*
X155311479Y-73627945D01*
X155311497Y-73627954D01*
X155517379Y-73713235D01*
X155732632Y-73770912D01*
X155814999Y-73781755D01*
X155815000Y-73781755D01*
X155815000Y-72862360D01*
X155831649Y-72869257D01*
X155986207Y-72900000D01*
X156143793Y-72900000D01*
X156298351Y-72869257D01*
X156315000Y-72862360D01*
X156315000Y-73781755D01*
X156397367Y-73770912D01*
X156612620Y-73713235D01*
X156818502Y-73627954D01*
X156818520Y-73627945D01*
X157011491Y-73516535D01*
X157011495Y-73516533D01*
X157188293Y-73380869D01*
X157188302Y-73380862D01*
X157345862Y-73223302D01*
X157345869Y-73223293D01*
X157481533Y-73046495D01*
X157481535Y-73046491D01*
X157592945Y-72853520D01*
X157592954Y-72853502D01*
X157678235Y-72647620D01*
X157735912Y-72432367D01*
X157746756Y-72350000D01*
X156827361Y-72350000D01*
X156834257Y-72333351D01*
X156865000Y-72178793D01*
X156865000Y-72021207D01*
X156834257Y-71866649D01*
X156827361Y-71850000D01*
X157746755Y-71850000D01*
X157746755Y-71849999D01*
X157735912Y-71767632D01*
X157678235Y-71552379D01*
X157592954Y-71346497D01*
X157592945Y-71346479D01*
X157481535Y-71153508D01*
X157481533Y-71153504D01*
X157345869Y-70976706D01*
X157345862Y-70976698D01*
X157188302Y-70819138D01*
X157188293Y-70819130D01*
X157011495Y-70683466D01*
X157011491Y-70683464D01*
X156818520Y-70572054D01*
X156818502Y-70572045D01*
X156679726Y-70514561D01*
X156625322Y-70470719D01*
X156603258Y-70404425D01*
X156620538Y-70336726D01*
X156671675Y-70289116D01*
X156679726Y-70285439D01*
X156818502Y-70227954D01*
X156818520Y-70227945D01*
X157011491Y-70116535D01*
X157011495Y-70116533D01*
X157188293Y-69980869D01*
X157188302Y-69980862D01*
X157345862Y-69823302D01*
X157345869Y-69823293D01*
X157481533Y-69646495D01*
X157481535Y-69646491D01*
X157592945Y-69453520D01*
X157592954Y-69453502D01*
X157678235Y-69247620D01*
X157735912Y-69032367D01*
X157746756Y-68950000D01*
X156827361Y-68950000D01*
X156834257Y-68933351D01*
X156865000Y-68778793D01*
X156865000Y-68621207D01*
X156834257Y-68466649D01*
X156827361Y-68450000D01*
X157746755Y-68450000D01*
X157746755Y-68449999D01*
X157735912Y-68367632D01*
X157678235Y-68152379D01*
X157592954Y-67946497D01*
X157592945Y-67946479D01*
X157481535Y-67753508D01*
X157481533Y-67753504D01*
X157345869Y-67576706D01*
X157345862Y-67576698D01*
X157188302Y-67419138D01*
X157188293Y-67419130D01*
X157011495Y-67283466D01*
X157011491Y-67283464D01*
X156818520Y-67172054D01*
X156818502Y-67172045D01*
X156612618Y-67086763D01*
X156397363Y-67029087D01*
X156315000Y-67018242D01*
X156315000Y-67937639D01*
X156298351Y-67930743D01*
X156143793Y-67900000D01*
X155986207Y-67900000D01*
X155831649Y-67930743D01*
X155815000Y-67937639D01*
X155815000Y-67018242D01*
X155814999Y-67018242D01*
X155732636Y-67029087D01*
X155517381Y-67086763D01*
X155311497Y-67172045D01*
X155311479Y-67172054D01*
X155118508Y-67283464D01*
X155118504Y-67283466D01*
X154941706Y-67419130D01*
X154784130Y-67576706D01*
X154648466Y-67753504D01*
X154648464Y-67753508D01*
X154537054Y-67946479D01*
X154537045Y-67946497D01*
X154451764Y-68152379D01*
X154394087Y-68367632D01*
X154383244Y-68449999D01*
X122717766Y-68449999D01*
X122765929Y-68401837D01*
X122853443Y-68314322D01*
X122853444Y-68314321D01*
X122969095Y-68155143D01*
X123058418Y-67979837D01*
X123119218Y-67792716D01*
X123125984Y-67750000D01*
X122048482Y-67750000D01*
X122059111Y-67731591D01*
X122100000Y-67578991D01*
X122100000Y-67421009D01*
X122059111Y-67268409D01*
X122048482Y-67250000D01*
X123125984Y-67250000D01*
X123119218Y-67207283D01*
X123058418Y-67020162D01*
X122969095Y-66844856D01*
X122853444Y-66685678D01*
X122714321Y-66546555D01*
X122555143Y-66430904D01*
X122379835Y-66341581D01*
X122192705Y-66280778D01*
X121998382Y-66250000D01*
X121750000Y-66250000D01*
X121750000Y-66951517D01*
X121731591Y-66940889D01*
X121578991Y-66900000D01*
X121421009Y-66900000D01*
X121268409Y-66940889D01*
X121250000Y-66951517D01*
X121250000Y-66250000D01*
X121001618Y-66250000D01*
X120807294Y-66280778D01*
X120620164Y-66341581D01*
X120444856Y-66430904D01*
X120285678Y-66546555D01*
X120146555Y-66685678D01*
X120030904Y-66844856D01*
X119941581Y-67020162D01*
X119880781Y-67207283D01*
X119874016Y-67250000D01*
X118125984Y-67250000D01*
X118119218Y-67207283D01*
X118058418Y-67020162D01*
X117969095Y-66844856D01*
X117853444Y-66685678D01*
X117714321Y-66546555D01*
X117555143Y-66430904D01*
X117379835Y-66341581D01*
X117192705Y-66280778D01*
X116998382Y-66250000D01*
X116750000Y-66250000D01*
X116750000Y-66951517D01*
X116731591Y-66940889D01*
X116578991Y-66900000D01*
X116421009Y-66900000D01*
X116268409Y-66940889D01*
X116250000Y-66951517D01*
X116250000Y-66250000D01*
X116001618Y-66250000D01*
X115807294Y-66280778D01*
X115620164Y-66341581D01*
X115444856Y-66430904D01*
X115285678Y-66546555D01*
X115146555Y-66685678D01*
X115030904Y-66844856D01*
X114941581Y-67020162D01*
X114880781Y-67207283D01*
X114874016Y-67250000D01*
X115951518Y-67250000D01*
X115940889Y-67268409D01*
X115900000Y-67421009D01*
X115900000Y-67578991D01*
X115940889Y-67731591D01*
X115951518Y-67750000D01*
X114874016Y-67750000D01*
X114880781Y-67792716D01*
X114941581Y-67979837D01*
X115030904Y-68155143D01*
X115143446Y-68310042D01*
X115166926Y-68375848D01*
X115151101Y-68443902D01*
X115100995Y-68492597D01*
X115032517Y-68506473D01*
X114987674Y-68493837D01*
X114084712Y-68042356D01*
X114033553Y-67994769D01*
X114016243Y-67927077D01*
X114018574Y-67907129D01*
X114480302Y-65598488D01*
X114512751Y-65536613D01*
X114573503Y-65502103D01*
X114600430Y-65498818D01*
X156922358Y-65000913D01*
X156989624Y-65019807D01*
G37*
%TD.AperFunction*%
%TD*%
M02*
