%TF.GenerationSoftware,KiCad,Pcbnew,9.0.5*%
%TF.CreationDate,2026-02-20T11:52:18+01:00*%
%TF.ProjectId,Pekaway_rework,50656b61-7761-4795-9f72-65776f726b2e,rev?*%
%TF.SameCoordinates,Original*%
%TF.FileFunction,Paste,Top*%
%TF.FilePolarity,Positive*%
%FSLAX46Y46*%
G04 Gerber Fmt 4.6, Leading zero omitted, Abs format (unit mm)*
G04 Created by KiCad (PCBNEW 9.0.5) date 2026-02-20 11:52:18*
%MOMM*%
%LPD*%
G01*
G04 APERTURE LIST*
G04 Aperture macros list*
%AMRoundRect*
0 Rectangle with rounded corners*
0 $1 Rounding radius*
0 $2 $3 $4 $5 $6 $7 $8 $9 X,Y pos of 4 corners*
0 Add a 4 corners polygon primitive as box body*
4,1,4,$2,$3,$4,$5,$6,$7,$8,$9,$2,$3,0*
0 Add four circle primitives for the rounded corners*
1,1,$1+$1,$2,$3*
1,1,$1+$1,$4,$5*
1,1,$1+$1,$6,$7*
1,1,$1+$1,$8,$9*
0 Add four rect primitives between the rounded corners*
20,1,$1+$1,$2,$3,$4,$5,0*
20,1,$1+$1,$4,$5,$6,$7,0*
20,1,$1+$1,$6,$7,$8,$9,0*
20,1,$1+$1,$8,$9,$2,$3,0*%
G04 Aperture macros list end*
%ADD10RoundRect,0.225000X-0.225000X-0.375000X0.225000X-0.375000X0.225000X0.375000X-0.225000X0.375000X0*%
%ADD11RoundRect,0.218750X0.218750X0.256250X-0.218750X0.256250X-0.218750X-0.256250X0.218750X-0.256250X0*%
%ADD12C,2.400000*%
G04 APERTURE END LIST*
D10*
%TO.C,D3*%
X133850000Y-67500000D03*
X137150000Y-67500000D03*
%TD*%
D11*
%TO.C,D9*%
X141852500Y-67700000D03*
X140277500Y-67700000D03*
%TD*%
D10*
%TO.C,D1*%
X133850000Y-47500000D03*
X137150000Y-47500000D03*
%TD*%
%TO.C,D2*%
X133850000Y-57000000D03*
X137150000Y-57000000D03*
%TD*%
D12*
%TO.C,F4*%
X156065000Y-79700000D03*
X156065000Y-83100000D03*
X165795000Y-79700000D03*
X165795000Y-83100000D03*
%TD*%
%TO.C,F2*%
X156065000Y-57200000D03*
X156065000Y-60600000D03*
X165795000Y-57200000D03*
X165795000Y-60600000D03*
%TD*%
D11*
%TO.C,D10*%
X142217500Y-80400000D03*
X140642500Y-80400000D03*
%TD*%
%TO.C,D12*%
X142287500Y-101000000D03*
X140712500Y-101000000D03*
%TD*%
D12*
%TO.C,F1*%
X156135000Y-46800000D03*
X156135000Y-50200000D03*
X165865000Y-46800000D03*
X165865000Y-50200000D03*
%TD*%
%TO.C,F3*%
X156065000Y-68700000D03*
X156065000Y-72100000D03*
X165795000Y-68700000D03*
X165795000Y-72100000D03*
%TD*%
D10*
%TO.C,D5*%
X133850000Y-90500000D03*
X137150000Y-90500000D03*
%TD*%
D12*
%TO.C,F7*%
X177135000Y-59800000D03*
X177135000Y-63200000D03*
X186865000Y-59800000D03*
X186865000Y-63200000D03*
%TD*%
D10*
%TO.C,D6*%
X133850000Y-101000000D03*
X137150000Y-101000000D03*
%TD*%
D12*
%TO.C,F5*%
X156065000Y-90200000D03*
X156065000Y-93600000D03*
X165795000Y-90200000D03*
X165795000Y-93600000D03*
%TD*%
D11*
%TO.C,D8*%
X142217500Y-56900000D03*
X140642500Y-56900000D03*
%TD*%
D10*
%TO.C,D4*%
X134215000Y-80200000D03*
X137515000Y-80200000D03*
%TD*%
D12*
%TO.C,F6*%
X156065000Y-101700000D03*
X156065000Y-105100000D03*
X165795000Y-101700000D03*
X165795000Y-105100000D03*
%TD*%
D11*
%TO.C,D11*%
X142352500Y-90700000D03*
X140777500Y-90700000D03*
%TD*%
%TO.C,D7*%
X142217500Y-47400000D03*
X140642500Y-47400000D03*
%TD*%
M02*
