M48
; DRILL file {KiCad 9.0.5} date 2026-02-20T11:52:13+0100
; FORMAT={-:-/ absolute / metric / decimal}
; #@! TF.CreationDate,2026-02-20T11:52:13+01:00
; #@! TF.GenerationSoftware,Kicad,Pcbnew,9.0.5
; #@! TF.FileFunction,Plated,1,2,PTH
FMAT,2
METRIC
; #@! TA.AperFunction,Plated,PTH,ViaDrill
T1C0.300
; #@! TA.AperFunction,Plated,PTH,ComponentDrill
T2C1.100
; #@! TA.AperFunction,Plated,PTH,ComponentDrill
T3C1.200
; #@! TA.AperFunction,Plated,PTH,ComponentDrill
T4C1.300
; #@! TA.AperFunction,Plated,PTH,ComponentDrill
T5C1.600
%
G90
G05
T1
X132.5Y-47.5
X132.5Y-57.5
X132.5Y-67.5
X132.5Y-101.0
X133.5Y-89.0
X134.0Y-78.5
T2
X176.0Y-46.0
X176.0Y-52.5
X180.5Y-46.0
X180.5Y-52.5
T3
X116.5Y-53.5
X116.5Y-57.0
X116.5Y-60.5
X116.5Y-64.0
X116.5Y-67.5
X116.5Y-71.0
X116.5Y-74.5
X116.5Y-78.0
X116.5Y-81.5
X116.5Y-85.0
X116.5Y-88.5
X116.5Y-92.0
X121.5Y-53.5
X121.5Y-57.0
X121.5Y-60.5
X121.5Y-64.0
X121.5Y-67.5
X121.5Y-71.0
X121.5Y-74.5
X121.5Y-78.0
X121.5Y-81.5
X121.5Y-85.0
X121.5Y-88.5
X121.5Y-92.0
T4
X179.8Y-75.583
X179.8Y-88.083
X188.0Y-75.583
X188.0Y-88.083
T5
X156.065Y-57.2
X156.065Y-60.6
X156.065Y-68.7
X156.065Y-72.1
X156.065Y-79.7
X156.065Y-83.1
X156.065Y-90.2
X156.065Y-93.6
X156.065Y-101.7
X156.065Y-105.1
X156.135Y-46.8
X156.135Y-50.2
X165.795Y-57.2
X165.795Y-60.6
X165.795Y-68.7
X165.795Y-72.1
X165.795Y-79.7
X165.795Y-83.1
X165.795Y-90.2
X165.795Y-93.6
X165.795Y-101.7
X165.795Y-105.1
X165.865Y-46.8
X165.865Y-50.2
X177.135Y-59.8
X177.135Y-63.2
X186.865Y-59.8
X186.865Y-63.2
M30
