%TF.GenerationSoftware,KiCad,Pcbnew,9.0.5*%
%TF.CreationDate,2026-02-20T11:52:18+01:00*%
%TF.ProjectId,Pekaway_rework,50656b61-7761-4795-9f72-65776f726b2e,rev?*%
%TF.SameCoordinates,Original*%
%TF.FileFunction,Legend,Top*%
%TF.FilePolarity,Positive*%
%FSLAX46Y46*%
G04 Gerber Fmt 4.6, Leading zero omitted, Abs format (unit mm)*
G04 Created by KiCad (PCBNEW 9.0.5) date 2026-02-20 11:52:18*
%MOMM*%
%LPD*%
G01*
G04 APERTURE LIST*
%ADD10C,0.300000*%
%ADD11C,0.150000*%
%ADD12C,0.152400*%
%ADD13C,0.508000*%
%ADD14C,0.120000*%
%ADD15C,0.100000*%
G04 APERTURE END LIST*
D10*
X101340225Y-54872257D02*
X101197368Y-54800828D01*
X101197368Y-54800828D02*
X100983082Y-54800828D01*
X100983082Y-54800828D02*
X100768796Y-54872257D01*
X100768796Y-54872257D02*
X100625939Y-55015114D01*
X100625939Y-55015114D02*
X100554510Y-55157971D01*
X100554510Y-55157971D02*
X100483082Y-55443685D01*
X100483082Y-55443685D02*
X100483082Y-55657971D01*
X100483082Y-55657971D02*
X100554510Y-55943685D01*
X100554510Y-55943685D02*
X100625939Y-56086542D01*
X100625939Y-56086542D02*
X100768796Y-56229400D01*
X100768796Y-56229400D02*
X100983082Y-56300828D01*
X100983082Y-56300828D02*
X101125939Y-56300828D01*
X101125939Y-56300828D02*
X101340225Y-56229400D01*
X101340225Y-56229400D02*
X101411653Y-56157971D01*
X101411653Y-56157971D02*
X101411653Y-55657971D01*
X101411653Y-55657971D02*
X101125939Y-55657971D01*
X102054510Y-56300828D02*
X102054510Y-54800828D01*
X102054510Y-54800828D02*
X102911653Y-56300828D01*
X102911653Y-56300828D02*
X102911653Y-54800828D01*
X103625939Y-56300828D02*
X103625939Y-54800828D01*
X103625939Y-54800828D02*
X103983082Y-54800828D01*
X103983082Y-54800828D02*
X104197368Y-54872257D01*
X104197368Y-54872257D02*
X104340225Y-55015114D01*
X104340225Y-55015114D02*
X104411654Y-55157971D01*
X104411654Y-55157971D02*
X104483082Y-55443685D01*
X104483082Y-55443685D02*
X104483082Y-55657971D01*
X104483082Y-55657971D02*
X104411654Y-55943685D01*
X104411654Y-55943685D02*
X104340225Y-56086542D01*
X104340225Y-56086542D02*
X104197368Y-56229400D01*
X104197368Y-56229400D02*
X103983082Y-56300828D01*
X103983082Y-56300828D02*
X103625939Y-56300828D01*
X104768797Y-56443685D02*
X105911654Y-56443685D01*
X107054511Y-56300828D02*
X106197368Y-56300828D01*
X106625939Y-56300828D02*
X106625939Y-54800828D01*
X106625939Y-54800828D02*
X106483082Y-55015114D01*
X106483082Y-55015114D02*
X106340225Y-55157971D01*
X106340225Y-55157971D02*
X106197368Y-55229400D01*
X100340225Y-88300828D02*
X100840225Y-89800828D01*
X100840225Y-89800828D02*
X101340225Y-88300828D01*
X102697367Y-89657971D02*
X102625939Y-89729400D01*
X102625939Y-89729400D02*
X102411653Y-89800828D01*
X102411653Y-89800828D02*
X102268796Y-89800828D01*
X102268796Y-89800828D02*
X102054510Y-89729400D01*
X102054510Y-89729400D02*
X101911653Y-89586542D01*
X101911653Y-89586542D02*
X101840224Y-89443685D01*
X101840224Y-89443685D02*
X101768796Y-89157971D01*
X101768796Y-89157971D02*
X101768796Y-88943685D01*
X101768796Y-88943685D02*
X101840224Y-88657971D01*
X101840224Y-88657971D02*
X101911653Y-88515114D01*
X101911653Y-88515114D02*
X102054510Y-88372257D01*
X102054510Y-88372257D02*
X102268796Y-88300828D01*
X102268796Y-88300828D02*
X102411653Y-88300828D01*
X102411653Y-88300828D02*
X102625939Y-88372257D01*
X102625939Y-88372257D02*
X102697367Y-88443685D01*
X104197367Y-89657971D02*
X104125939Y-89729400D01*
X104125939Y-89729400D02*
X103911653Y-89800828D01*
X103911653Y-89800828D02*
X103768796Y-89800828D01*
X103768796Y-89800828D02*
X103554510Y-89729400D01*
X103554510Y-89729400D02*
X103411653Y-89586542D01*
X103411653Y-89586542D02*
X103340224Y-89443685D01*
X103340224Y-89443685D02*
X103268796Y-89157971D01*
X103268796Y-89157971D02*
X103268796Y-88943685D01*
X103268796Y-88943685D02*
X103340224Y-88657971D01*
X103340224Y-88657971D02*
X103411653Y-88515114D01*
X103411653Y-88515114D02*
X103554510Y-88372257D01*
X103554510Y-88372257D02*
X103768796Y-88300828D01*
X103768796Y-88300828D02*
X103911653Y-88300828D01*
X103911653Y-88300828D02*
X104125939Y-88372257D01*
X104125939Y-88372257D02*
X104197367Y-88443685D01*
X104483082Y-89943685D02*
X105625939Y-89943685D01*
X106625939Y-88300828D02*
X106340224Y-88300828D01*
X106340224Y-88300828D02*
X106197367Y-88372257D01*
X106197367Y-88372257D02*
X106125939Y-88443685D01*
X106125939Y-88443685D02*
X105983081Y-88657971D01*
X105983081Y-88657971D02*
X105911653Y-88943685D01*
X105911653Y-88943685D02*
X105911653Y-89515114D01*
X105911653Y-89515114D02*
X105983081Y-89657971D01*
X105983081Y-89657971D02*
X106054510Y-89729400D01*
X106054510Y-89729400D02*
X106197367Y-89800828D01*
X106197367Y-89800828D02*
X106483081Y-89800828D01*
X106483081Y-89800828D02*
X106625939Y-89729400D01*
X106625939Y-89729400D02*
X106697367Y-89657971D01*
X106697367Y-89657971D02*
X106768796Y-89515114D01*
X106768796Y-89515114D02*
X106768796Y-89157971D01*
X106768796Y-89157971D02*
X106697367Y-89015114D01*
X106697367Y-89015114D02*
X106625939Y-88943685D01*
X106625939Y-88943685D02*
X106483081Y-88872257D01*
X106483081Y-88872257D02*
X106197367Y-88872257D01*
X106197367Y-88872257D02*
X106054510Y-88943685D01*
X106054510Y-88943685D02*
X105983081Y-89015114D01*
X105983081Y-89015114D02*
X105911653Y-89157971D01*
X101340225Y-90872257D02*
X101197368Y-90800828D01*
X101197368Y-90800828D02*
X100983082Y-90800828D01*
X100983082Y-90800828D02*
X100768796Y-90872257D01*
X100768796Y-90872257D02*
X100625939Y-91015114D01*
X100625939Y-91015114D02*
X100554510Y-91157971D01*
X100554510Y-91157971D02*
X100483082Y-91443685D01*
X100483082Y-91443685D02*
X100483082Y-91657971D01*
X100483082Y-91657971D02*
X100554510Y-91943685D01*
X100554510Y-91943685D02*
X100625939Y-92086542D01*
X100625939Y-92086542D02*
X100768796Y-92229400D01*
X100768796Y-92229400D02*
X100983082Y-92300828D01*
X100983082Y-92300828D02*
X101125939Y-92300828D01*
X101125939Y-92300828D02*
X101340225Y-92229400D01*
X101340225Y-92229400D02*
X101411653Y-92157971D01*
X101411653Y-92157971D02*
X101411653Y-91657971D01*
X101411653Y-91657971D02*
X101125939Y-91657971D01*
X102054510Y-92300828D02*
X102054510Y-90800828D01*
X102054510Y-90800828D02*
X102911653Y-92300828D01*
X102911653Y-92300828D02*
X102911653Y-90800828D01*
X103625939Y-92300828D02*
X103625939Y-90800828D01*
X103625939Y-90800828D02*
X103983082Y-90800828D01*
X103983082Y-90800828D02*
X104197368Y-90872257D01*
X104197368Y-90872257D02*
X104340225Y-91015114D01*
X104340225Y-91015114D02*
X104411654Y-91157971D01*
X104411654Y-91157971D02*
X104483082Y-91443685D01*
X104483082Y-91443685D02*
X104483082Y-91657971D01*
X104483082Y-91657971D02*
X104411654Y-91943685D01*
X104411654Y-91943685D02*
X104340225Y-92086542D01*
X104340225Y-92086542D02*
X104197368Y-92229400D01*
X104197368Y-92229400D02*
X103983082Y-92300828D01*
X103983082Y-92300828D02*
X103625939Y-92300828D01*
X104768797Y-92443685D02*
X105911654Y-92443685D01*
X106911654Y-90800828D02*
X106625939Y-90800828D01*
X106625939Y-90800828D02*
X106483082Y-90872257D01*
X106483082Y-90872257D02*
X106411654Y-90943685D01*
X106411654Y-90943685D02*
X106268796Y-91157971D01*
X106268796Y-91157971D02*
X106197368Y-91443685D01*
X106197368Y-91443685D02*
X106197368Y-92015114D01*
X106197368Y-92015114D02*
X106268796Y-92157971D01*
X106268796Y-92157971D02*
X106340225Y-92229400D01*
X106340225Y-92229400D02*
X106483082Y-92300828D01*
X106483082Y-92300828D02*
X106768796Y-92300828D01*
X106768796Y-92300828D02*
X106911654Y-92229400D01*
X106911654Y-92229400D02*
X106983082Y-92157971D01*
X106983082Y-92157971D02*
X107054511Y-92015114D01*
X107054511Y-92015114D02*
X107054511Y-91657971D01*
X107054511Y-91657971D02*
X106983082Y-91515114D01*
X106983082Y-91515114D02*
X106911654Y-91443685D01*
X106911654Y-91443685D02*
X106768796Y-91372257D01*
X106768796Y-91372257D02*
X106483082Y-91372257D01*
X106483082Y-91372257D02*
X106340225Y-91443685D01*
X106340225Y-91443685D02*
X106268796Y-91515114D01*
X106268796Y-91515114D02*
X106197368Y-91657971D01*
X100340225Y-66800828D02*
X100840225Y-68300828D01*
X100840225Y-68300828D02*
X101340225Y-66800828D01*
X102697367Y-68157971D02*
X102625939Y-68229400D01*
X102625939Y-68229400D02*
X102411653Y-68300828D01*
X102411653Y-68300828D02*
X102268796Y-68300828D01*
X102268796Y-68300828D02*
X102054510Y-68229400D01*
X102054510Y-68229400D02*
X101911653Y-68086542D01*
X101911653Y-68086542D02*
X101840224Y-67943685D01*
X101840224Y-67943685D02*
X101768796Y-67657971D01*
X101768796Y-67657971D02*
X101768796Y-67443685D01*
X101768796Y-67443685D02*
X101840224Y-67157971D01*
X101840224Y-67157971D02*
X101911653Y-67015114D01*
X101911653Y-67015114D02*
X102054510Y-66872257D01*
X102054510Y-66872257D02*
X102268796Y-66800828D01*
X102268796Y-66800828D02*
X102411653Y-66800828D01*
X102411653Y-66800828D02*
X102625939Y-66872257D01*
X102625939Y-66872257D02*
X102697367Y-66943685D01*
X104197367Y-68157971D02*
X104125939Y-68229400D01*
X104125939Y-68229400D02*
X103911653Y-68300828D01*
X103911653Y-68300828D02*
X103768796Y-68300828D01*
X103768796Y-68300828D02*
X103554510Y-68229400D01*
X103554510Y-68229400D02*
X103411653Y-68086542D01*
X103411653Y-68086542D02*
X103340224Y-67943685D01*
X103340224Y-67943685D02*
X103268796Y-67657971D01*
X103268796Y-67657971D02*
X103268796Y-67443685D01*
X103268796Y-67443685D02*
X103340224Y-67157971D01*
X103340224Y-67157971D02*
X103411653Y-67015114D01*
X103411653Y-67015114D02*
X103554510Y-66872257D01*
X103554510Y-66872257D02*
X103768796Y-66800828D01*
X103768796Y-66800828D02*
X103911653Y-66800828D01*
X103911653Y-66800828D02*
X104125939Y-66872257D01*
X104125939Y-66872257D02*
X104197367Y-66943685D01*
X104483082Y-68443685D02*
X105625939Y-68443685D01*
X105840224Y-66800828D02*
X106768796Y-66800828D01*
X106768796Y-66800828D02*
X106268796Y-67372257D01*
X106268796Y-67372257D02*
X106483081Y-67372257D01*
X106483081Y-67372257D02*
X106625939Y-67443685D01*
X106625939Y-67443685D02*
X106697367Y-67515114D01*
X106697367Y-67515114D02*
X106768796Y-67657971D01*
X106768796Y-67657971D02*
X106768796Y-68015114D01*
X106768796Y-68015114D02*
X106697367Y-68157971D01*
X106697367Y-68157971D02*
X106625939Y-68229400D01*
X106625939Y-68229400D02*
X106483081Y-68300828D01*
X106483081Y-68300828D02*
X106054510Y-68300828D01*
X106054510Y-68300828D02*
X105911653Y-68229400D01*
X105911653Y-68229400D02*
X105840224Y-68157971D01*
X197372257Y-76918573D02*
X197300828Y-77061431D01*
X197300828Y-77061431D02*
X197300828Y-77275716D01*
X197300828Y-77275716D02*
X197372257Y-77490002D01*
X197372257Y-77490002D02*
X197515114Y-77632859D01*
X197515114Y-77632859D02*
X197657971Y-77704288D01*
X197657971Y-77704288D02*
X197943685Y-77775716D01*
X197943685Y-77775716D02*
X198157971Y-77775716D01*
X198157971Y-77775716D02*
X198443685Y-77704288D01*
X198443685Y-77704288D02*
X198586542Y-77632859D01*
X198586542Y-77632859D02*
X198729400Y-77490002D01*
X198729400Y-77490002D02*
X198800828Y-77275716D01*
X198800828Y-77275716D02*
X198800828Y-77132859D01*
X198800828Y-77132859D02*
X198729400Y-76918573D01*
X198729400Y-76918573D02*
X198657971Y-76847145D01*
X198657971Y-76847145D02*
X198157971Y-76847145D01*
X198157971Y-76847145D02*
X198157971Y-77132859D01*
X198800828Y-76204288D02*
X197300828Y-76204288D01*
X197300828Y-76204288D02*
X198800828Y-75347145D01*
X198800828Y-75347145D02*
X197300828Y-75347145D01*
X198800828Y-74632859D02*
X197300828Y-74632859D01*
X197300828Y-74632859D02*
X197300828Y-74275716D01*
X197300828Y-74275716D02*
X197372257Y-74061430D01*
X197372257Y-74061430D02*
X197515114Y-73918573D01*
X197515114Y-73918573D02*
X197657971Y-73847144D01*
X197657971Y-73847144D02*
X197943685Y-73775716D01*
X197943685Y-73775716D02*
X198157971Y-73775716D01*
X198157971Y-73775716D02*
X198443685Y-73847144D01*
X198443685Y-73847144D02*
X198586542Y-73918573D01*
X198586542Y-73918573D02*
X198729400Y-74061430D01*
X198729400Y-74061430D02*
X198800828Y-74275716D01*
X198800828Y-74275716D02*
X198800828Y-74632859D01*
X101340225Y-76872257D02*
X101197368Y-76800828D01*
X101197368Y-76800828D02*
X100983082Y-76800828D01*
X100983082Y-76800828D02*
X100768796Y-76872257D01*
X100768796Y-76872257D02*
X100625939Y-77015114D01*
X100625939Y-77015114D02*
X100554510Y-77157971D01*
X100554510Y-77157971D02*
X100483082Y-77443685D01*
X100483082Y-77443685D02*
X100483082Y-77657971D01*
X100483082Y-77657971D02*
X100554510Y-77943685D01*
X100554510Y-77943685D02*
X100625939Y-78086542D01*
X100625939Y-78086542D02*
X100768796Y-78229400D01*
X100768796Y-78229400D02*
X100983082Y-78300828D01*
X100983082Y-78300828D02*
X101125939Y-78300828D01*
X101125939Y-78300828D02*
X101340225Y-78229400D01*
X101340225Y-78229400D02*
X101411653Y-78157971D01*
X101411653Y-78157971D02*
X101411653Y-77657971D01*
X101411653Y-77657971D02*
X101125939Y-77657971D01*
X102054510Y-78300828D02*
X102054510Y-76800828D01*
X102054510Y-76800828D02*
X102911653Y-78300828D01*
X102911653Y-78300828D02*
X102911653Y-76800828D01*
X103625939Y-78300828D02*
X103625939Y-76800828D01*
X103625939Y-76800828D02*
X103983082Y-76800828D01*
X103983082Y-76800828D02*
X104197368Y-76872257D01*
X104197368Y-76872257D02*
X104340225Y-77015114D01*
X104340225Y-77015114D02*
X104411654Y-77157971D01*
X104411654Y-77157971D02*
X104483082Y-77443685D01*
X104483082Y-77443685D02*
X104483082Y-77657971D01*
X104483082Y-77657971D02*
X104411654Y-77943685D01*
X104411654Y-77943685D02*
X104340225Y-78086542D01*
X104340225Y-78086542D02*
X104197368Y-78229400D01*
X104197368Y-78229400D02*
X103983082Y-78300828D01*
X103983082Y-78300828D02*
X103625939Y-78300828D01*
X104768797Y-78443685D02*
X105911654Y-78443685D01*
X106911654Y-77300828D02*
X106911654Y-78300828D01*
X106554511Y-76729400D02*
X106197368Y-77800828D01*
X106197368Y-77800828D02*
X107125939Y-77800828D01*
X100340225Y-52300828D02*
X100840225Y-53800828D01*
X100840225Y-53800828D02*
X101340225Y-52300828D01*
X102697367Y-53657971D02*
X102625939Y-53729400D01*
X102625939Y-53729400D02*
X102411653Y-53800828D01*
X102411653Y-53800828D02*
X102268796Y-53800828D01*
X102268796Y-53800828D02*
X102054510Y-53729400D01*
X102054510Y-53729400D02*
X101911653Y-53586542D01*
X101911653Y-53586542D02*
X101840224Y-53443685D01*
X101840224Y-53443685D02*
X101768796Y-53157971D01*
X101768796Y-53157971D02*
X101768796Y-52943685D01*
X101768796Y-52943685D02*
X101840224Y-52657971D01*
X101840224Y-52657971D02*
X101911653Y-52515114D01*
X101911653Y-52515114D02*
X102054510Y-52372257D01*
X102054510Y-52372257D02*
X102268796Y-52300828D01*
X102268796Y-52300828D02*
X102411653Y-52300828D01*
X102411653Y-52300828D02*
X102625939Y-52372257D01*
X102625939Y-52372257D02*
X102697367Y-52443685D01*
X104197367Y-53657971D02*
X104125939Y-53729400D01*
X104125939Y-53729400D02*
X103911653Y-53800828D01*
X103911653Y-53800828D02*
X103768796Y-53800828D01*
X103768796Y-53800828D02*
X103554510Y-53729400D01*
X103554510Y-53729400D02*
X103411653Y-53586542D01*
X103411653Y-53586542D02*
X103340224Y-53443685D01*
X103340224Y-53443685D02*
X103268796Y-53157971D01*
X103268796Y-53157971D02*
X103268796Y-52943685D01*
X103268796Y-52943685D02*
X103340224Y-52657971D01*
X103340224Y-52657971D02*
X103411653Y-52515114D01*
X103411653Y-52515114D02*
X103554510Y-52372257D01*
X103554510Y-52372257D02*
X103768796Y-52300828D01*
X103768796Y-52300828D02*
X103911653Y-52300828D01*
X103911653Y-52300828D02*
X104125939Y-52372257D01*
X104125939Y-52372257D02*
X104197367Y-52443685D01*
X104483082Y-53943685D02*
X105625939Y-53943685D01*
X106768796Y-53800828D02*
X105911653Y-53800828D01*
X106340224Y-53800828D02*
X106340224Y-52300828D01*
X106340224Y-52300828D02*
X106197367Y-52515114D01*
X106197367Y-52515114D02*
X106054510Y-52657971D01*
X106054510Y-52657971D02*
X105911653Y-52729400D01*
X197800828Y-90159774D02*
X199300828Y-89659774D01*
X199300828Y-89659774D02*
X197800828Y-89159774D01*
X199157971Y-87802632D02*
X199229400Y-87874060D01*
X199229400Y-87874060D02*
X199300828Y-88088346D01*
X199300828Y-88088346D02*
X199300828Y-88231203D01*
X199300828Y-88231203D02*
X199229400Y-88445489D01*
X199229400Y-88445489D02*
X199086542Y-88588346D01*
X199086542Y-88588346D02*
X198943685Y-88659775D01*
X198943685Y-88659775D02*
X198657971Y-88731203D01*
X198657971Y-88731203D02*
X198443685Y-88731203D01*
X198443685Y-88731203D02*
X198157971Y-88659775D01*
X198157971Y-88659775D02*
X198015114Y-88588346D01*
X198015114Y-88588346D02*
X197872257Y-88445489D01*
X197872257Y-88445489D02*
X197800828Y-88231203D01*
X197800828Y-88231203D02*
X197800828Y-88088346D01*
X197800828Y-88088346D02*
X197872257Y-87874060D01*
X197872257Y-87874060D02*
X197943685Y-87802632D01*
X199157971Y-86302632D02*
X199229400Y-86374060D01*
X199229400Y-86374060D02*
X199300828Y-86588346D01*
X199300828Y-86588346D02*
X199300828Y-86731203D01*
X199300828Y-86731203D02*
X199229400Y-86945489D01*
X199229400Y-86945489D02*
X199086542Y-87088346D01*
X199086542Y-87088346D02*
X198943685Y-87159775D01*
X198943685Y-87159775D02*
X198657971Y-87231203D01*
X198657971Y-87231203D02*
X198443685Y-87231203D01*
X198443685Y-87231203D02*
X198157971Y-87159775D01*
X198157971Y-87159775D02*
X198015114Y-87088346D01*
X198015114Y-87088346D02*
X197872257Y-86945489D01*
X197872257Y-86945489D02*
X197800828Y-86731203D01*
X197800828Y-86731203D02*
X197800828Y-86588346D01*
X197800828Y-86588346D02*
X197872257Y-86374060D01*
X197872257Y-86374060D02*
X197943685Y-86302632D01*
X100340225Y-74300828D02*
X100840225Y-75800828D01*
X100840225Y-75800828D02*
X101340225Y-74300828D01*
X102697367Y-75657971D02*
X102625939Y-75729400D01*
X102625939Y-75729400D02*
X102411653Y-75800828D01*
X102411653Y-75800828D02*
X102268796Y-75800828D01*
X102268796Y-75800828D02*
X102054510Y-75729400D01*
X102054510Y-75729400D02*
X101911653Y-75586542D01*
X101911653Y-75586542D02*
X101840224Y-75443685D01*
X101840224Y-75443685D02*
X101768796Y-75157971D01*
X101768796Y-75157971D02*
X101768796Y-74943685D01*
X101768796Y-74943685D02*
X101840224Y-74657971D01*
X101840224Y-74657971D02*
X101911653Y-74515114D01*
X101911653Y-74515114D02*
X102054510Y-74372257D01*
X102054510Y-74372257D02*
X102268796Y-74300828D01*
X102268796Y-74300828D02*
X102411653Y-74300828D01*
X102411653Y-74300828D02*
X102625939Y-74372257D01*
X102625939Y-74372257D02*
X102697367Y-74443685D01*
X104197367Y-75657971D02*
X104125939Y-75729400D01*
X104125939Y-75729400D02*
X103911653Y-75800828D01*
X103911653Y-75800828D02*
X103768796Y-75800828D01*
X103768796Y-75800828D02*
X103554510Y-75729400D01*
X103554510Y-75729400D02*
X103411653Y-75586542D01*
X103411653Y-75586542D02*
X103340224Y-75443685D01*
X103340224Y-75443685D02*
X103268796Y-75157971D01*
X103268796Y-75157971D02*
X103268796Y-74943685D01*
X103268796Y-74943685D02*
X103340224Y-74657971D01*
X103340224Y-74657971D02*
X103411653Y-74515114D01*
X103411653Y-74515114D02*
X103554510Y-74372257D01*
X103554510Y-74372257D02*
X103768796Y-74300828D01*
X103768796Y-74300828D02*
X103911653Y-74300828D01*
X103911653Y-74300828D02*
X104125939Y-74372257D01*
X104125939Y-74372257D02*
X104197367Y-74443685D01*
X104483082Y-75943685D02*
X105625939Y-75943685D01*
X106625939Y-74800828D02*
X106625939Y-75800828D01*
X106268796Y-74229400D02*
X105911653Y-75300828D01*
X105911653Y-75300828D02*
X106840224Y-75300828D01*
X101340225Y-83872257D02*
X101197368Y-83800828D01*
X101197368Y-83800828D02*
X100983082Y-83800828D01*
X100983082Y-83800828D02*
X100768796Y-83872257D01*
X100768796Y-83872257D02*
X100625939Y-84015114D01*
X100625939Y-84015114D02*
X100554510Y-84157971D01*
X100554510Y-84157971D02*
X100483082Y-84443685D01*
X100483082Y-84443685D02*
X100483082Y-84657971D01*
X100483082Y-84657971D02*
X100554510Y-84943685D01*
X100554510Y-84943685D02*
X100625939Y-85086542D01*
X100625939Y-85086542D02*
X100768796Y-85229400D01*
X100768796Y-85229400D02*
X100983082Y-85300828D01*
X100983082Y-85300828D02*
X101125939Y-85300828D01*
X101125939Y-85300828D02*
X101340225Y-85229400D01*
X101340225Y-85229400D02*
X101411653Y-85157971D01*
X101411653Y-85157971D02*
X101411653Y-84657971D01*
X101411653Y-84657971D02*
X101125939Y-84657971D01*
X102054510Y-85300828D02*
X102054510Y-83800828D01*
X102054510Y-83800828D02*
X102911653Y-85300828D01*
X102911653Y-85300828D02*
X102911653Y-83800828D01*
X103625939Y-85300828D02*
X103625939Y-83800828D01*
X103625939Y-83800828D02*
X103983082Y-83800828D01*
X103983082Y-83800828D02*
X104197368Y-83872257D01*
X104197368Y-83872257D02*
X104340225Y-84015114D01*
X104340225Y-84015114D02*
X104411654Y-84157971D01*
X104411654Y-84157971D02*
X104483082Y-84443685D01*
X104483082Y-84443685D02*
X104483082Y-84657971D01*
X104483082Y-84657971D02*
X104411654Y-84943685D01*
X104411654Y-84943685D02*
X104340225Y-85086542D01*
X104340225Y-85086542D02*
X104197368Y-85229400D01*
X104197368Y-85229400D02*
X103983082Y-85300828D01*
X103983082Y-85300828D02*
X103625939Y-85300828D01*
X104768797Y-85443685D02*
X105911654Y-85443685D01*
X106983082Y-83800828D02*
X106268796Y-83800828D01*
X106268796Y-83800828D02*
X106197368Y-84515114D01*
X106197368Y-84515114D02*
X106268796Y-84443685D01*
X106268796Y-84443685D02*
X106411654Y-84372257D01*
X106411654Y-84372257D02*
X106768796Y-84372257D01*
X106768796Y-84372257D02*
X106911654Y-84443685D01*
X106911654Y-84443685D02*
X106983082Y-84515114D01*
X106983082Y-84515114D02*
X107054511Y-84657971D01*
X107054511Y-84657971D02*
X107054511Y-85015114D01*
X107054511Y-85015114D02*
X106983082Y-85157971D01*
X106983082Y-85157971D02*
X106911654Y-85229400D01*
X106911654Y-85229400D02*
X106768796Y-85300828D01*
X106768796Y-85300828D02*
X106411654Y-85300828D01*
X106411654Y-85300828D02*
X106268796Y-85229400D01*
X106268796Y-85229400D02*
X106197368Y-85157971D01*
X101340225Y-62372257D02*
X101197368Y-62300828D01*
X101197368Y-62300828D02*
X100983082Y-62300828D01*
X100983082Y-62300828D02*
X100768796Y-62372257D01*
X100768796Y-62372257D02*
X100625939Y-62515114D01*
X100625939Y-62515114D02*
X100554510Y-62657971D01*
X100554510Y-62657971D02*
X100483082Y-62943685D01*
X100483082Y-62943685D02*
X100483082Y-63157971D01*
X100483082Y-63157971D02*
X100554510Y-63443685D01*
X100554510Y-63443685D02*
X100625939Y-63586542D01*
X100625939Y-63586542D02*
X100768796Y-63729400D01*
X100768796Y-63729400D02*
X100983082Y-63800828D01*
X100983082Y-63800828D02*
X101125939Y-63800828D01*
X101125939Y-63800828D02*
X101340225Y-63729400D01*
X101340225Y-63729400D02*
X101411653Y-63657971D01*
X101411653Y-63657971D02*
X101411653Y-63157971D01*
X101411653Y-63157971D02*
X101125939Y-63157971D01*
X102054510Y-63800828D02*
X102054510Y-62300828D01*
X102054510Y-62300828D02*
X102911653Y-63800828D01*
X102911653Y-63800828D02*
X102911653Y-62300828D01*
X103625939Y-63800828D02*
X103625939Y-62300828D01*
X103625939Y-62300828D02*
X103983082Y-62300828D01*
X103983082Y-62300828D02*
X104197368Y-62372257D01*
X104197368Y-62372257D02*
X104340225Y-62515114D01*
X104340225Y-62515114D02*
X104411654Y-62657971D01*
X104411654Y-62657971D02*
X104483082Y-62943685D01*
X104483082Y-62943685D02*
X104483082Y-63157971D01*
X104483082Y-63157971D02*
X104411654Y-63443685D01*
X104411654Y-63443685D02*
X104340225Y-63586542D01*
X104340225Y-63586542D02*
X104197368Y-63729400D01*
X104197368Y-63729400D02*
X103983082Y-63800828D01*
X103983082Y-63800828D02*
X103625939Y-63800828D01*
X104768797Y-63943685D02*
X105911654Y-63943685D01*
X106197368Y-62443685D02*
X106268796Y-62372257D01*
X106268796Y-62372257D02*
X106411654Y-62300828D01*
X106411654Y-62300828D02*
X106768796Y-62300828D01*
X106768796Y-62300828D02*
X106911654Y-62372257D01*
X106911654Y-62372257D02*
X106983082Y-62443685D01*
X106983082Y-62443685D02*
X107054511Y-62586542D01*
X107054511Y-62586542D02*
X107054511Y-62729400D01*
X107054511Y-62729400D02*
X106983082Y-62943685D01*
X106983082Y-62943685D02*
X106125939Y-63800828D01*
X106125939Y-63800828D02*
X107054511Y-63800828D01*
X101340225Y-69372257D02*
X101197368Y-69300828D01*
X101197368Y-69300828D02*
X100983082Y-69300828D01*
X100983082Y-69300828D02*
X100768796Y-69372257D01*
X100768796Y-69372257D02*
X100625939Y-69515114D01*
X100625939Y-69515114D02*
X100554510Y-69657971D01*
X100554510Y-69657971D02*
X100483082Y-69943685D01*
X100483082Y-69943685D02*
X100483082Y-70157971D01*
X100483082Y-70157971D02*
X100554510Y-70443685D01*
X100554510Y-70443685D02*
X100625939Y-70586542D01*
X100625939Y-70586542D02*
X100768796Y-70729400D01*
X100768796Y-70729400D02*
X100983082Y-70800828D01*
X100983082Y-70800828D02*
X101125939Y-70800828D01*
X101125939Y-70800828D02*
X101340225Y-70729400D01*
X101340225Y-70729400D02*
X101411653Y-70657971D01*
X101411653Y-70657971D02*
X101411653Y-70157971D01*
X101411653Y-70157971D02*
X101125939Y-70157971D01*
X102054510Y-70800828D02*
X102054510Y-69300828D01*
X102054510Y-69300828D02*
X102911653Y-70800828D01*
X102911653Y-70800828D02*
X102911653Y-69300828D01*
X103625939Y-70800828D02*
X103625939Y-69300828D01*
X103625939Y-69300828D02*
X103983082Y-69300828D01*
X103983082Y-69300828D02*
X104197368Y-69372257D01*
X104197368Y-69372257D02*
X104340225Y-69515114D01*
X104340225Y-69515114D02*
X104411654Y-69657971D01*
X104411654Y-69657971D02*
X104483082Y-69943685D01*
X104483082Y-69943685D02*
X104483082Y-70157971D01*
X104483082Y-70157971D02*
X104411654Y-70443685D01*
X104411654Y-70443685D02*
X104340225Y-70586542D01*
X104340225Y-70586542D02*
X104197368Y-70729400D01*
X104197368Y-70729400D02*
X103983082Y-70800828D01*
X103983082Y-70800828D02*
X103625939Y-70800828D01*
X104768797Y-70943685D02*
X105911654Y-70943685D01*
X106125939Y-69300828D02*
X107054511Y-69300828D01*
X107054511Y-69300828D02*
X106554511Y-69872257D01*
X106554511Y-69872257D02*
X106768796Y-69872257D01*
X106768796Y-69872257D02*
X106911654Y-69943685D01*
X106911654Y-69943685D02*
X106983082Y-70015114D01*
X106983082Y-70015114D02*
X107054511Y-70157971D01*
X107054511Y-70157971D02*
X107054511Y-70515114D01*
X107054511Y-70515114D02*
X106983082Y-70657971D01*
X106983082Y-70657971D02*
X106911654Y-70729400D01*
X106911654Y-70729400D02*
X106768796Y-70800828D01*
X106768796Y-70800828D02*
X106340225Y-70800828D01*
X106340225Y-70800828D02*
X106197368Y-70729400D01*
X106197368Y-70729400D02*
X106125939Y-70657971D01*
X100340225Y-81300828D02*
X100840225Y-82800828D01*
X100840225Y-82800828D02*
X101340225Y-81300828D01*
X102697367Y-82657971D02*
X102625939Y-82729400D01*
X102625939Y-82729400D02*
X102411653Y-82800828D01*
X102411653Y-82800828D02*
X102268796Y-82800828D01*
X102268796Y-82800828D02*
X102054510Y-82729400D01*
X102054510Y-82729400D02*
X101911653Y-82586542D01*
X101911653Y-82586542D02*
X101840224Y-82443685D01*
X101840224Y-82443685D02*
X101768796Y-82157971D01*
X101768796Y-82157971D02*
X101768796Y-81943685D01*
X101768796Y-81943685D02*
X101840224Y-81657971D01*
X101840224Y-81657971D02*
X101911653Y-81515114D01*
X101911653Y-81515114D02*
X102054510Y-81372257D01*
X102054510Y-81372257D02*
X102268796Y-81300828D01*
X102268796Y-81300828D02*
X102411653Y-81300828D01*
X102411653Y-81300828D02*
X102625939Y-81372257D01*
X102625939Y-81372257D02*
X102697367Y-81443685D01*
X104197367Y-82657971D02*
X104125939Y-82729400D01*
X104125939Y-82729400D02*
X103911653Y-82800828D01*
X103911653Y-82800828D02*
X103768796Y-82800828D01*
X103768796Y-82800828D02*
X103554510Y-82729400D01*
X103554510Y-82729400D02*
X103411653Y-82586542D01*
X103411653Y-82586542D02*
X103340224Y-82443685D01*
X103340224Y-82443685D02*
X103268796Y-82157971D01*
X103268796Y-82157971D02*
X103268796Y-81943685D01*
X103268796Y-81943685D02*
X103340224Y-81657971D01*
X103340224Y-81657971D02*
X103411653Y-81515114D01*
X103411653Y-81515114D02*
X103554510Y-81372257D01*
X103554510Y-81372257D02*
X103768796Y-81300828D01*
X103768796Y-81300828D02*
X103911653Y-81300828D01*
X103911653Y-81300828D02*
X104125939Y-81372257D01*
X104125939Y-81372257D02*
X104197367Y-81443685D01*
X104483082Y-82943685D02*
X105625939Y-82943685D01*
X106697367Y-81300828D02*
X105983081Y-81300828D01*
X105983081Y-81300828D02*
X105911653Y-82015114D01*
X105911653Y-82015114D02*
X105983081Y-81943685D01*
X105983081Y-81943685D02*
X106125939Y-81872257D01*
X106125939Y-81872257D02*
X106483081Y-81872257D01*
X106483081Y-81872257D02*
X106625939Y-81943685D01*
X106625939Y-81943685D02*
X106697367Y-82015114D01*
X106697367Y-82015114D02*
X106768796Y-82157971D01*
X106768796Y-82157971D02*
X106768796Y-82515114D01*
X106768796Y-82515114D02*
X106697367Y-82657971D01*
X106697367Y-82657971D02*
X106625939Y-82729400D01*
X106625939Y-82729400D02*
X106483081Y-82800828D01*
X106483081Y-82800828D02*
X106125939Y-82800828D01*
X106125939Y-82800828D02*
X105983081Y-82729400D01*
X105983081Y-82729400D02*
X105911653Y-82657971D01*
X100340225Y-59800828D02*
X100840225Y-61300828D01*
X100840225Y-61300828D02*
X101340225Y-59800828D01*
X102697367Y-61157971D02*
X102625939Y-61229400D01*
X102625939Y-61229400D02*
X102411653Y-61300828D01*
X102411653Y-61300828D02*
X102268796Y-61300828D01*
X102268796Y-61300828D02*
X102054510Y-61229400D01*
X102054510Y-61229400D02*
X101911653Y-61086542D01*
X101911653Y-61086542D02*
X101840224Y-60943685D01*
X101840224Y-60943685D02*
X101768796Y-60657971D01*
X101768796Y-60657971D02*
X101768796Y-60443685D01*
X101768796Y-60443685D02*
X101840224Y-60157971D01*
X101840224Y-60157971D02*
X101911653Y-60015114D01*
X101911653Y-60015114D02*
X102054510Y-59872257D01*
X102054510Y-59872257D02*
X102268796Y-59800828D01*
X102268796Y-59800828D02*
X102411653Y-59800828D01*
X102411653Y-59800828D02*
X102625939Y-59872257D01*
X102625939Y-59872257D02*
X102697367Y-59943685D01*
X104197367Y-61157971D02*
X104125939Y-61229400D01*
X104125939Y-61229400D02*
X103911653Y-61300828D01*
X103911653Y-61300828D02*
X103768796Y-61300828D01*
X103768796Y-61300828D02*
X103554510Y-61229400D01*
X103554510Y-61229400D02*
X103411653Y-61086542D01*
X103411653Y-61086542D02*
X103340224Y-60943685D01*
X103340224Y-60943685D02*
X103268796Y-60657971D01*
X103268796Y-60657971D02*
X103268796Y-60443685D01*
X103268796Y-60443685D02*
X103340224Y-60157971D01*
X103340224Y-60157971D02*
X103411653Y-60015114D01*
X103411653Y-60015114D02*
X103554510Y-59872257D01*
X103554510Y-59872257D02*
X103768796Y-59800828D01*
X103768796Y-59800828D02*
X103911653Y-59800828D01*
X103911653Y-59800828D02*
X104125939Y-59872257D01*
X104125939Y-59872257D02*
X104197367Y-59943685D01*
X104483082Y-61443685D02*
X105625939Y-61443685D01*
X105911653Y-59943685D02*
X105983081Y-59872257D01*
X105983081Y-59872257D02*
X106125939Y-59800828D01*
X106125939Y-59800828D02*
X106483081Y-59800828D01*
X106483081Y-59800828D02*
X106625939Y-59872257D01*
X106625939Y-59872257D02*
X106697367Y-59943685D01*
X106697367Y-59943685D02*
X106768796Y-60086542D01*
X106768796Y-60086542D02*
X106768796Y-60229400D01*
X106768796Y-60229400D02*
X106697367Y-60443685D01*
X106697367Y-60443685D02*
X105840224Y-61300828D01*
X105840224Y-61300828D02*
X106768796Y-61300828D01*
D11*
X183354818Y-87416733D02*
X184069103Y-87416733D01*
X184069103Y-87416733D02*
X184211960Y-87464352D01*
X184211960Y-87464352D02*
X184307199Y-87559590D01*
X184307199Y-87559590D02*
X184354818Y-87702447D01*
X184354818Y-87702447D02*
X184354818Y-87797685D01*
X183354818Y-87035780D02*
X183354818Y-86416733D01*
X183354818Y-86416733D02*
X183735770Y-86750066D01*
X183735770Y-86750066D02*
X183735770Y-86607209D01*
X183735770Y-86607209D02*
X183783389Y-86511971D01*
X183783389Y-86511971D02*
X183831008Y-86464352D01*
X183831008Y-86464352D02*
X183926246Y-86416733D01*
X183926246Y-86416733D02*
X184164341Y-86416733D01*
X184164341Y-86416733D02*
X184259579Y-86464352D01*
X184259579Y-86464352D02*
X184307199Y-86511971D01*
X184307199Y-86511971D02*
X184354818Y-86607209D01*
X184354818Y-86607209D02*
X184354818Y-86892923D01*
X184354818Y-86892923D02*
X184307199Y-86988161D01*
X184307199Y-86988161D02*
X184259579Y-87035780D01*
X134761905Y-65954819D02*
X134761905Y-64954819D01*
X134761905Y-64954819D02*
X135000000Y-64954819D01*
X135000000Y-64954819D02*
X135142857Y-65002438D01*
X135142857Y-65002438D02*
X135238095Y-65097676D01*
X135238095Y-65097676D02*
X135285714Y-65192914D01*
X135285714Y-65192914D02*
X135333333Y-65383390D01*
X135333333Y-65383390D02*
X135333333Y-65526247D01*
X135333333Y-65526247D02*
X135285714Y-65716723D01*
X135285714Y-65716723D02*
X135238095Y-65811961D01*
X135238095Y-65811961D02*
X135142857Y-65907200D01*
X135142857Y-65907200D02*
X135000000Y-65954819D01*
X135000000Y-65954819D02*
X134761905Y-65954819D01*
X135666667Y-64954819D02*
X136285714Y-64954819D01*
X136285714Y-64954819D02*
X135952381Y-65335771D01*
X135952381Y-65335771D02*
X136095238Y-65335771D01*
X136095238Y-65335771D02*
X136190476Y-65383390D01*
X136190476Y-65383390D02*
X136238095Y-65431009D01*
X136238095Y-65431009D02*
X136285714Y-65526247D01*
X136285714Y-65526247D02*
X136285714Y-65764342D01*
X136285714Y-65764342D02*
X136238095Y-65859580D01*
X136238095Y-65859580D02*
X136190476Y-65907200D01*
X136190476Y-65907200D02*
X136095238Y-65954819D01*
X136095238Y-65954819D02*
X135809524Y-65954819D01*
X135809524Y-65954819D02*
X135714286Y-65907200D01*
X135714286Y-65907200D02*
X135666667Y-65859580D01*
X140326905Y-69584819D02*
X140326905Y-68584819D01*
X140326905Y-68584819D02*
X140565000Y-68584819D01*
X140565000Y-68584819D02*
X140707857Y-68632438D01*
X140707857Y-68632438D02*
X140803095Y-68727676D01*
X140803095Y-68727676D02*
X140850714Y-68822914D01*
X140850714Y-68822914D02*
X140898333Y-69013390D01*
X140898333Y-69013390D02*
X140898333Y-69156247D01*
X140898333Y-69156247D02*
X140850714Y-69346723D01*
X140850714Y-69346723D02*
X140803095Y-69441961D01*
X140803095Y-69441961D02*
X140707857Y-69537200D01*
X140707857Y-69537200D02*
X140565000Y-69584819D01*
X140565000Y-69584819D02*
X140326905Y-69584819D01*
X141374524Y-69584819D02*
X141565000Y-69584819D01*
X141565000Y-69584819D02*
X141660238Y-69537200D01*
X141660238Y-69537200D02*
X141707857Y-69489580D01*
X141707857Y-69489580D02*
X141803095Y-69346723D01*
X141803095Y-69346723D02*
X141850714Y-69156247D01*
X141850714Y-69156247D02*
X141850714Y-68775295D01*
X141850714Y-68775295D02*
X141803095Y-68680057D01*
X141803095Y-68680057D02*
X141755476Y-68632438D01*
X141755476Y-68632438D02*
X141660238Y-68584819D01*
X141660238Y-68584819D02*
X141469762Y-68584819D01*
X141469762Y-68584819D02*
X141374524Y-68632438D01*
X141374524Y-68632438D02*
X141326905Y-68680057D01*
X141326905Y-68680057D02*
X141279286Y-68775295D01*
X141279286Y-68775295D02*
X141279286Y-69013390D01*
X141279286Y-69013390D02*
X141326905Y-69108628D01*
X141326905Y-69108628D02*
X141374524Y-69156247D01*
X141374524Y-69156247D02*
X141469762Y-69203866D01*
X141469762Y-69203866D02*
X141660238Y-69203866D01*
X141660238Y-69203866D02*
X141755476Y-69156247D01*
X141755476Y-69156247D02*
X141803095Y-69108628D01*
X141803095Y-69108628D02*
X141850714Y-69013390D01*
X134761905Y-45954819D02*
X134761905Y-44954819D01*
X134761905Y-44954819D02*
X135000000Y-44954819D01*
X135000000Y-44954819D02*
X135142857Y-45002438D01*
X135142857Y-45002438D02*
X135238095Y-45097676D01*
X135238095Y-45097676D02*
X135285714Y-45192914D01*
X135285714Y-45192914D02*
X135333333Y-45383390D01*
X135333333Y-45383390D02*
X135333333Y-45526247D01*
X135333333Y-45526247D02*
X135285714Y-45716723D01*
X135285714Y-45716723D02*
X135238095Y-45811961D01*
X135238095Y-45811961D02*
X135142857Y-45907200D01*
X135142857Y-45907200D02*
X135000000Y-45954819D01*
X135000000Y-45954819D02*
X134761905Y-45954819D01*
X136285714Y-45954819D02*
X135714286Y-45954819D01*
X136000000Y-45954819D02*
X136000000Y-44954819D01*
X136000000Y-44954819D02*
X135904762Y-45097676D01*
X135904762Y-45097676D02*
X135809524Y-45192914D01*
X135809524Y-45192914D02*
X135714286Y-45240533D01*
X134761905Y-55454819D02*
X134761905Y-54454819D01*
X134761905Y-54454819D02*
X135000000Y-54454819D01*
X135000000Y-54454819D02*
X135142857Y-54502438D01*
X135142857Y-54502438D02*
X135238095Y-54597676D01*
X135238095Y-54597676D02*
X135285714Y-54692914D01*
X135285714Y-54692914D02*
X135333333Y-54883390D01*
X135333333Y-54883390D02*
X135333333Y-55026247D01*
X135333333Y-55026247D02*
X135285714Y-55216723D01*
X135285714Y-55216723D02*
X135238095Y-55311961D01*
X135238095Y-55311961D02*
X135142857Y-55407200D01*
X135142857Y-55407200D02*
X135000000Y-55454819D01*
X135000000Y-55454819D02*
X134761905Y-55454819D01*
X135714286Y-54550057D02*
X135761905Y-54502438D01*
X135761905Y-54502438D02*
X135857143Y-54454819D01*
X135857143Y-54454819D02*
X136095238Y-54454819D01*
X136095238Y-54454819D02*
X136190476Y-54502438D01*
X136190476Y-54502438D02*
X136238095Y-54550057D01*
X136238095Y-54550057D02*
X136285714Y-54645295D01*
X136285714Y-54645295D02*
X136285714Y-54740533D01*
X136285714Y-54740533D02*
X136238095Y-54883390D01*
X136238095Y-54883390D02*
X135666667Y-55454819D01*
X135666667Y-55454819D02*
X136285714Y-55454819D01*
X140215714Y-82284819D02*
X140215714Y-81284819D01*
X140215714Y-81284819D02*
X140453809Y-81284819D01*
X140453809Y-81284819D02*
X140596666Y-81332438D01*
X140596666Y-81332438D02*
X140691904Y-81427676D01*
X140691904Y-81427676D02*
X140739523Y-81522914D01*
X140739523Y-81522914D02*
X140787142Y-81713390D01*
X140787142Y-81713390D02*
X140787142Y-81856247D01*
X140787142Y-81856247D02*
X140739523Y-82046723D01*
X140739523Y-82046723D02*
X140691904Y-82141961D01*
X140691904Y-82141961D02*
X140596666Y-82237200D01*
X140596666Y-82237200D02*
X140453809Y-82284819D01*
X140453809Y-82284819D02*
X140215714Y-82284819D01*
X141739523Y-82284819D02*
X141168095Y-82284819D01*
X141453809Y-82284819D02*
X141453809Y-81284819D01*
X141453809Y-81284819D02*
X141358571Y-81427676D01*
X141358571Y-81427676D02*
X141263333Y-81522914D01*
X141263333Y-81522914D02*
X141168095Y-81570533D01*
X142358571Y-81284819D02*
X142453809Y-81284819D01*
X142453809Y-81284819D02*
X142549047Y-81332438D01*
X142549047Y-81332438D02*
X142596666Y-81380057D01*
X142596666Y-81380057D02*
X142644285Y-81475295D01*
X142644285Y-81475295D02*
X142691904Y-81665771D01*
X142691904Y-81665771D02*
X142691904Y-81903866D01*
X142691904Y-81903866D02*
X142644285Y-82094342D01*
X142644285Y-82094342D02*
X142596666Y-82189580D01*
X142596666Y-82189580D02*
X142549047Y-82237200D01*
X142549047Y-82237200D02*
X142453809Y-82284819D01*
X142453809Y-82284819D02*
X142358571Y-82284819D01*
X142358571Y-82284819D02*
X142263333Y-82237200D01*
X142263333Y-82237200D02*
X142215714Y-82189580D01*
X142215714Y-82189580D02*
X142168095Y-82094342D01*
X142168095Y-82094342D02*
X142120476Y-81903866D01*
X142120476Y-81903866D02*
X142120476Y-81665771D01*
X142120476Y-81665771D02*
X142168095Y-81475295D01*
X142168095Y-81475295D02*
X142215714Y-81380057D01*
X142215714Y-81380057D02*
X142263333Y-81332438D01*
X142263333Y-81332438D02*
X142358571Y-81284819D01*
X140285714Y-102884819D02*
X140285714Y-101884819D01*
X140285714Y-101884819D02*
X140523809Y-101884819D01*
X140523809Y-101884819D02*
X140666666Y-101932438D01*
X140666666Y-101932438D02*
X140761904Y-102027676D01*
X140761904Y-102027676D02*
X140809523Y-102122914D01*
X140809523Y-102122914D02*
X140857142Y-102313390D01*
X140857142Y-102313390D02*
X140857142Y-102456247D01*
X140857142Y-102456247D02*
X140809523Y-102646723D01*
X140809523Y-102646723D02*
X140761904Y-102741961D01*
X140761904Y-102741961D02*
X140666666Y-102837200D01*
X140666666Y-102837200D02*
X140523809Y-102884819D01*
X140523809Y-102884819D02*
X140285714Y-102884819D01*
X141809523Y-102884819D02*
X141238095Y-102884819D01*
X141523809Y-102884819D02*
X141523809Y-101884819D01*
X141523809Y-101884819D02*
X141428571Y-102027676D01*
X141428571Y-102027676D02*
X141333333Y-102122914D01*
X141333333Y-102122914D02*
X141238095Y-102170533D01*
X142190476Y-101980057D02*
X142238095Y-101932438D01*
X142238095Y-101932438D02*
X142333333Y-101884819D01*
X142333333Y-101884819D02*
X142571428Y-101884819D01*
X142571428Y-101884819D02*
X142666666Y-101932438D01*
X142666666Y-101932438D02*
X142714285Y-101980057D01*
X142714285Y-101980057D02*
X142761904Y-102075295D01*
X142761904Y-102075295D02*
X142761904Y-102170533D01*
X142761904Y-102170533D02*
X142714285Y-102313390D01*
X142714285Y-102313390D02*
X142142857Y-102884819D01*
X142142857Y-102884819D02*
X142761904Y-102884819D01*
X182907200Y-50583332D02*
X182954819Y-50440475D01*
X182954819Y-50440475D02*
X182954819Y-50202380D01*
X182954819Y-50202380D02*
X182907200Y-50107142D01*
X182907200Y-50107142D02*
X182859580Y-50059523D01*
X182859580Y-50059523D02*
X182764342Y-50011904D01*
X182764342Y-50011904D02*
X182669104Y-50011904D01*
X182669104Y-50011904D02*
X182573866Y-50059523D01*
X182573866Y-50059523D02*
X182526247Y-50107142D01*
X182526247Y-50107142D02*
X182478628Y-50202380D01*
X182478628Y-50202380D02*
X182431009Y-50392856D01*
X182431009Y-50392856D02*
X182383390Y-50488094D01*
X182383390Y-50488094D02*
X182335771Y-50535713D01*
X182335771Y-50535713D02*
X182240533Y-50583332D01*
X182240533Y-50583332D02*
X182145295Y-50583332D01*
X182145295Y-50583332D02*
X182050057Y-50535713D01*
X182050057Y-50535713D02*
X182002438Y-50488094D01*
X182002438Y-50488094D02*
X181954819Y-50392856D01*
X181954819Y-50392856D02*
X181954819Y-50154761D01*
X181954819Y-50154761D02*
X182002438Y-50011904D01*
X181954819Y-49678570D02*
X182954819Y-49440475D01*
X182954819Y-49440475D02*
X182240533Y-49249999D01*
X182240533Y-49249999D02*
X182954819Y-49059523D01*
X182954819Y-49059523D02*
X181954819Y-48821428D01*
X182954819Y-47916666D02*
X182954819Y-48488094D01*
X182954819Y-48202380D02*
X181954819Y-48202380D01*
X181954819Y-48202380D02*
X182097676Y-48297618D01*
X182097676Y-48297618D02*
X182192914Y-48392856D01*
X182192914Y-48392856D02*
X182240533Y-48488094D01*
X134761905Y-88954819D02*
X134761905Y-87954819D01*
X134761905Y-87954819D02*
X135000000Y-87954819D01*
X135000000Y-87954819D02*
X135142857Y-88002438D01*
X135142857Y-88002438D02*
X135238095Y-88097676D01*
X135238095Y-88097676D02*
X135285714Y-88192914D01*
X135285714Y-88192914D02*
X135333333Y-88383390D01*
X135333333Y-88383390D02*
X135333333Y-88526247D01*
X135333333Y-88526247D02*
X135285714Y-88716723D01*
X135285714Y-88716723D02*
X135238095Y-88811961D01*
X135238095Y-88811961D02*
X135142857Y-88907200D01*
X135142857Y-88907200D02*
X135000000Y-88954819D01*
X135000000Y-88954819D02*
X134761905Y-88954819D01*
X136238095Y-87954819D02*
X135761905Y-87954819D01*
X135761905Y-87954819D02*
X135714286Y-88431009D01*
X135714286Y-88431009D02*
X135761905Y-88383390D01*
X135761905Y-88383390D02*
X135857143Y-88335771D01*
X135857143Y-88335771D02*
X136095238Y-88335771D01*
X136095238Y-88335771D02*
X136190476Y-88383390D01*
X136190476Y-88383390D02*
X136238095Y-88431009D01*
X136238095Y-88431009D02*
X136285714Y-88526247D01*
X136285714Y-88526247D02*
X136285714Y-88764342D01*
X136285714Y-88764342D02*
X136238095Y-88859580D01*
X136238095Y-88859580D02*
X136190476Y-88907200D01*
X136190476Y-88907200D02*
X136095238Y-88954819D01*
X136095238Y-88954819D02*
X135857143Y-88954819D01*
X135857143Y-88954819D02*
X135761905Y-88907200D01*
X135761905Y-88907200D02*
X135714286Y-88859580D01*
X134761905Y-99454819D02*
X134761905Y-98454819D01*
X134761905Y-98454819D02*
X135000000Y-98454819D01*
X135000000Y-98454819D02*
X135142857Y-98502438D01*
X135142857Y-98502438D02*
X135238095Y-98597676D01*
X135238095Y-98597676D02*
X135285714Y-98692914D01*
X135285714Y-98692914D02*
X135333333Y-98883390D01*
X135333333Y-98883390D02*
X135333333Y-99026247D01*
X135333333Y-99026247D02*
X135285714Y-99216723D01*
X135285714Y-99216723D02*
X135238095Y-99311961D01*
X135238095Y-99311961D02*
X135142857Y-99407200D01*
X135142857Y-99407200D02*
X135000000Y-99454819D01*
X135000000Y-99454819D02*
X134761905Y-99454819D01*
X136190476Y-98454819D02*
X136000000Y-98454819D01*
X136000000Y-98454819D02*
X135904762Y-98502438D01*
X135904762Y-98502438D02*
X135857143Y-98550057D01*
X135857143Y-98550057D02*
X135761905Y-98692914D01*
X135761905Y-98692914D02*
X135714286Y-98883390D01*
X135714286Y-98883390D02*
X135714286Y-99264342D01*
X135714286Y-99264342D02*
X135761905Y-99359580D01*
X135761905Y-99359580D02*
X135809524Y-99407200D01*
X135809524Y-99407200D02*
X135904762Y-99454819D01*
X135904762Y-99454819D02*
X136095238Y-99454819D01*
X136095238Y-99454819D02*
X136190476Y-99407200D01*
X136190476Y-99407200D02*
X136238095Y-99359580D01*
X136238095Y-99359580D02*
X136285714Y-99264342D01*
X136285714Y-99264342D02*
X136285714Y-99026247D01*
X136285714Y-99026247D02*
X136238095Y-98931009D01*
X136238095Y-98931009D02*
X136190476Y-98883390D01*
X136190476Y-98883390D02*
X136095238Y-98835771D01*
X136095238Y-98835771D02*
X135904762Y-98835771D01*
X135904762Y-98835771D02*
X135809524Y-98883390D01*
X135809524Y-98883390D02*
X135761905Y-98931009D01*
X135761905Y-98931009D02*
X135714286Y-99026247D01*
X124374819Y-73023333D02*
X125089104Y-73023333D01*
X125089104Y-73023333D02*
X125231961Y-73070952D01*
X125231961Y-73070952D02*
X125327200Y-73166190D01*
X125327200Y-73166190D02*
X125374819Y-73309047D01*
X125374819Y-73309047D02*
X125374819Y-73404285D01*
X124374819Y-72070952D02*
X124374819Y-72547142D01*
X124374819Y-72547142D02*
X124851009Y-72594761D01*
X124851009Y-72594761D02*
X124803390Y-72547142D01*
X124803390Y-72547142D02*
X124755771Y-72451904D01*
X124755771Y-72451904D02*
X124755771Y-72213809D01*
X124755771Y-72213809D02*
X124803390Y-72118571D01*
X124803390Y-72118571D02*
X124851009Y-72070952D01*
X124851009Y-72070952D02*
X124946247Y-72023333D01*
X124946247Y-72023333D02*
X125184342Y-72023333D01*
X125184342Y-72023333D02*
X125279580Y-72070952D01*
X125279580Y-72070952D02*
X125327200Y-72118571D01*
X125327200Y-72118571D02*
X125374819Y-72213809D01*
X125374819Y-72213809D02*
X125374819Y-72451904D01*
X125374819Y-72451904D02*
X125327200Y-72547142D01*
X125327200Y-72547142D02*
X125279580Y-72594761D01*
X140691905Y-58784819D02*
X140691905Y-57784819D01*
X140691905Y-57784819D02*
X140930000Y-57784819D01*
X140930000Y-57784819D02*
X141072857Y-57832438D01*
X141072857Y-57832438D02*
X141168095Y-57927676D01*
X141168095Y-57927676D02*
X141215714Y-58022914D01*
X141215714Y-58022914D02*
X141263333Y-58213390D01*
X141263333Y-58213390D02*
X141263333Y-58356247D01*
X141263333Y-58356247D02*
X141215714Y-58546723D01*
X141215714Y-58546723D02*
X141168095Y-58641961D01*
X141168095Y-58641961D02*
X141072857Y-58737200D01*
X141072857Y-58737200D02*
X140930000Y-58784819D01*
X140930000Y-58784819D02*
X140691905Y-58784819D01*
X141834762Y-58213390D02*
X141739524Y-58165771D01*
X141739524Y-58165771D02*
X141691905Y-58118152D01*
X141691905Y-58118152D02*
X141644286Y-58022914D01*
X141644286Y-58022914D02*
X141644286Y-57975295D01*
X141644286Y-57975295D02*
X141691905Y-57880057D01*
X141691905Y-57880057D02*
X141739524Y-57832438D01*
X141739524Y-57832438D02*
X141834762Y-57784819D01*
X141834762Y-57784819D02*
X142025238Y-57784819D01*
X142025238Y-57784819D02*
X142120476Y-57832438D01*
X142120476Y-57832438D02*
X142168095Y-57880057D01*
X142168095Y-57880057D02*
X142215714Y-57975295D01*
X142215714Y-57975295D02*
X142215714Y-58022914D01*
X142215714Y-58022914D02*
X142168095Y-58118152D01*
X142168095Y-58118152D02*
X142120476Y-58165771D01*
X142120476Y-58165771D02*
X142025238Y-58213390D01*
X142025238Y-58213390D02*
X141834762Y-58213390D01*
X141834762Y-58213390D02*
X141739524Y-58261009D01*
X141739524Y-58261009D02*
X141691905Y-58308628D01*
X141691905Y-58308628D02*
X141644286Y-58403866D01*
X141644286Y-58403866D02*
X141644286Y-58594342D01*
X141644286Y-58594342D02*
X141691905Y-58689580D01*
X141691905Y-58689580D02*
X141739524Y-58737200D01*
X141739524Y-58737200D02*
X141834762Y-58784819D01*
X141834762Y-58784819D02*
X142025238Y-58784819D01*
X142025238Y-58784819D02*
X142120476Y-58737200D01*
X142120476Y-58737200D02*
X142168095Y-58689580D01*
X142168095Y-58689580D02*
X142215714Y-58594342D01*
X142215714Y-58594342D02*
X142215714Y-58403866D01*
X142215714Y-58403866D02*
X142168095Y-58308628D01*
X142168095Y-58308628D02*
X142120476Y-58261009D01*
X142120476Y-58261009D02*
X142025238Y-58213390D01*
X183354818Y-74916733D02*
X184069103Y-74916733D01*
X184069103Y-74916733D02*
X184211960Y-74964352D01*
X184211960Y-74964352D02*
X184307199Y-75059590D01*
X184307199Y-75059590D02*
X184354818Y-75202447D01*
X184354818Y-75202447D02*
X184354818Y-75297685D01*
X183688151Y-74011971D02*
X184354818Y-74011971D01*
X183307199Y-74250066D02*
X184021484Y-74488161D01*
X184021484Y-74488161D02*
X184021484Y-73869114D01*
X135126905Y-78654819D02*
X135126905Y-77654819D01*
X135126905Y-77654819D02*
X135365000Y-77654819D01*
X135365000Y-77654819D02*
X135507857Y-77702438D01*
X135507857Y-77702438D02*
X135603095Y-77797676D01*
X135603095Y-77797676D02*
X135650714Y-77892914D01*
X135650714Y-77892914D02*
X135698333Y-78083390D01*
X135698333Y-78083390D02*
X135698333Y-78226247D01*
X135698333Y-78226247D02*
X135650714Y-78416723D01*
X135650714Y-78416723D02*
X135603095Y-78511961D01*
X135603095Y-78511961D02*
X135507857Y-78607200D01*
X135507857Y-78607200D02*
X135365000Y-78654819D01*
X135365000Y-78654819D02*
X135126905Y-78654819D01*
X136555476Y-77988152D02*
X136555476Y-78654819D01*
X136317381Y-77607200D02*
X136079286Y-78321485D01*
X136079286Y-78321485D02*
X136698333Y-78321485D01*
X140350714Y-92584819D02*
X140350714Y-91584819D01*
X140350714Y-91584819D02*
X140588809Y-91584819D01*
X140588809Y-91584819D02*
X140731666Y-91632438D01*
X140731666Y-91632438D02*
X140826904Y-91727676D01*
X140826904Y-91727676D02*
X140874523Y-91822914D01*
X140874523Y-91822914D02*
X140922142Y-92013390D01*
X140922142Y-92013390D02*
X140922142Y-92156247D01*
X140922142Y-92156247D02*
X140874523Y-92346723D01*
X140874523Y-92346723D02*
X140826904Y-92441961D01*
X140826904Y-92441961D02*
X140731666Y-92537200D01*
X140731666Y-92537200D02*
X140588809Y-92584819D01*
X140588809Y-92584819D02*
X140350714Y-92584819D01*
X141874523Y-92584819D02*
X141303095Y-92584819D01*
X141588809Y-92584819D02*
X141588809Y-91584819D01*
X141588809Y-91584819D02*
X141493571Y-91727676D01*
X141493571Y-91727676D02*
X141398333Y-91822914D01*
X141398333Y-91822914D02*
X141303095Y-91870533D01*
X142826904Y-92584819D02*
X142255476Y-92584819D01*
X142541190Y-92584819D02*
X142541190Y-91584819D01*
X142541190Y-91584819D02*
X142445952Y-91727676D01*
X142445952Y-91727676D02*
X142350714Y-91822914D01*
X142350714Y-91822914D02*
X142255476Y-91870533D01*
X140691905Y-49284819D02*
X140691905Y-48284819D01*
X140691905Y-48284819D02*
X140930000Y-48284819D01*
X140930000Y-48284819D02*
X141072857Y-48332438D01*
X141072857Y-48332438D02*
X141168095Y-48427676D01*
X141168095Y-48427676D02*
X141215714Y-48522914D01*
X141215714Y-48522914D02*
X141263333Y-48713390D01*
X141263333Y-48713390D02*
X141263333Y-48856247D01*
X141263333Y-48856247D02*
X141215714Y-49046723D01*
X141215714Y-49046723D02*
X141168095Y-49141961D01*
X141168095Y-49141961D02*
X141072857Y-49237200D01*
X141072857Y-49237200D02*
X140930000Y-49284819D01*
X140930000Y-49284819D02*
X140691905Y-49284819D01*
X141596667Y-48284819D02*
X142263333Y-48284819D01*
X142263333Y-48284819D02*
X141834762Y-49284819D01*
D12*
%TO.C,J3*%
X176900000Y-83383400D02*
X193200001Y-83383400D01*
X176900000Y-90783401D02*
X176900000Y-83383400D01*
X183400003Y-90783400D02*
X183400003Y-91683401D01*
X188800002Y-90783400D02*
X188800002Y-91683401D01*
X188800002Y-91683401D02*
X183400003Y-91683401D01*
X193200001Y-85603403D02*
X196100000Y-85603403D01*
X193200001Y-90003402D02*
X196100000Y-90003402D01*
X193200001Y-90783401D02*
X176900000Y-90783401D01*
X193200001Y-90783401D02*
X193200001Y-83383400D01*
X196100000Y-90003402D02*
X196100000Y-85603403D01*
D13*
X180181000Y-82621400D02*
G75*
G02*
X179419000Y-82621400I-381000J0D01*
G01*
X179419000Y-82621400D02*
G75*
G02*
X180181000Y-82621400I381000J0D01*
G01*
D14*
%TO.C,D3*%
X133140000Y-66500000D02*
X133140000Y-68500000D01*
X133140000Y-66500000D02*
X137150000Y-66500000D01*
X133140000Y-68500000D02*
X137150000Y-68500000D01*
%TO.C,D9*%
X140265000Y-68435000D02*
X142550000Y-68435000D01*
X142550000Y-66965000D02*
X140265000Y-66965000D01*
X142550000Y-68435000D02*
X142550000Y-66965000D01*
%TO.C,D1*%
X133140000Y-46500000D02*
X133140000Y-48500000D01*
X133140000Y-46500000D02*
X137150000Y-46500000D01*
X133140000Y-48500000D02*
X137150000Y-48500000D01*
%TO.C,D2*%
X133140000Y-56000000D02*
X133140000Y-58000000D01*
X133140000Y-56000000D02*
X137150000Y-56000000D01*
X133140000Y-58000000D02*
X137150000Y-58000000D01*
%TO.C,F4*%
D15*
X154430000Y-78400000D02*
X167430000Y-78400000D01*
X167430000Y-84400000D01*
X154430000Y-84400000D01*
X154430000Y-78400000D01*
%TO.C,F2*%
X154430000Y-55900000D02*
X167430000Y-55900000D01*
X167430000Y-61900000D01*
X154430000Y-61900000D01*
X154430000Y-55900000D01*
D14*
%TO.C,D10*%
X140630000Y-81135000D02*
X142915000Y-81135000D01*
X142915000Y-79665000D02*
X140630000Y-79665000D01*
X142915000Y-81135000D02*
X142915000Y-79665000D01*
%TO.C,D12*%
X140700000Y-101735000D02*
X142985000Y-101735000D01*
X142985000Y-100265000D02*
X140700000Y-100265000D01*
X142985000Y-101735000D02*
X142985000Y-100265000D01*
%TO.C,F1*%
D15*
X154500000Y-45500000D02*
X167500000Y-45500000D01*
X167500000Y-51500000D01*
X154500000Y-51500000D01*
X154500000Y-45500000D01*
D14*
%TO.C,SW1*%
X175000000Y-47000000D02*
X175000000Y-51500000D01*
X177500000Y-52750000D02*
X179000000Y-52750000D01*
X179000000Y-45750000D02*
X177500000Y-45750000D01*
X181500000Y-51500000D02*
X181500000Y-47000000D01*
%TO.C,F3*%
D15*
X154430000Y-67400000D02*
X167430000Y-67400000D01*
X167430000Y-73400000D01*
X154430000Y-73400000D01*
X154430000Y-67400000D01*
D14*
%TO.C,D5*%
X133140000Y-89500000D02*
X133140000Y-91500000D01*
X133140000Y-89500000D02*
X137150000Y-89500000D01*
X133140000Y-91500000D02*
X137150000Y-91500000D01*
%TO.C,F7*%
D15*
X175500000Y-58500000D02*
X188500000Y-58500000D01*
X188500000Y-64500000D01*
X175500000Y-64500000D01*
X175500000Y-58500000D01*
D14*
%TO.C,D6*%
X133140000Y-100000000D02*
X133140000Y-102000000D01*
X133140000Y-100000000D02*
X137150000Y-100000000D01*
X133140000Y-102000000D02*
X137150000Y-102000000D01*
%TO.C,F5*%
D15*
X154430000Y-88900000D02*
X167430000Y-88900000D01*
X167430000Y-94900000D01*
X154430000Y-94900000D01*
X154430000Y-88900000D01*
D14*
%TO.C,J5*%
X110930000Y-50820000D02*
X123920000Y-50820000D01*
X110930000Y-53200000D02*
X110930000Y-50820000D01*
X110930000Y-94560000D02*
X110930000Y-53800000D01*
X123920000Y-50820000D02*
X123920000Y-94560000D01*
X123920000Y-94560000D02*
X110930000Y-94560000D01*
X110930000Y-53500000D02*
X110320000Y-53940000D01*
X110320000Y-53060000D01*
X110930000Y-53500000D01*
G36*
X110930000Y-53500000D02*
G01*
X110320000Y-53940000D01*
X110320000Y-53060000D01*
X110930000Y-53500000D01*
G37*
%TO.C,D8*%
X140630000Y-57635000D02*
X142915000Y-57635000D01*
X142915000Y-56165000D02*
X140630000Y-56165000D01*
X142915000Y-57635000D02*
X142915000Y-56165000D01*
D12*
%TO.C,J4*%
X176900000Y-70883400D02*
X193200001Y-70883400D01*
X176900000Y-78283401D02*
X176900000Y-70883400D01*
X183400003Y-78283400D02*
X183400003Y-79183401D01*
X188800002Y-78283400D02*
X188800002Y-79183401D01*
X188800002Y-79183401D02*
X183400003Y-79183401D01*
X193200001Y-73103403D02*
X196100000Y-73103403D01*
X193200001Y-77503402D02*
X196100000Y-77503402D01*
X193200001Y-78283401D02*
X176900000Y-78283401D01*
X193200001Y-78283401D02*
X193200001Y-70883400D01*
X196100000Y-77503402D02*
X196100000Y-73103403D01*
D13*
X180181000Y-70121400D02*
G75*
G02*
X179419000Y-70121400I-381000J0D01*
G01*
X179419000Y-70121400D02*
G75*
G02*
X180181000Y-70121400I381000J0D01*
G01*
D14*
%TO.C,D4*%
X133505000Y-79200000D02*
X133505000Y-81200000D01*
X133505000Y-79200000D02*
X137515000Y-79200000D01*
X133505000Y-81200000D02*
X137515000Y-81200000D01*
%TO.C,F6*%
D15*
X154430000Y-100400000D02*
X167430000Y-100400000D01*
X167430000Y-106400000D01*
X154430000Y-106400000D01*
X154430000Y-100400000D01*
D14*
%TO.C,D11*%
X140765000Y-91435000D02*
X143050000Y-91435000D01*
X143050000Y-89965000D02*
X140765000Y-89965000D01*
X143050000Y-91435000D02*
X143050000Y-89965000D01*
%TO.C,D7*%
X140630000Y-48135000D02*
X142915000Y-48135000D01*
X142915000Y-46665000D02*
X140630000Y-46665000D01*
X142915000Y-48135000D02*
X142915000Y-46665000D01*
%TD*%
M02*
